<svg xmlns="http://www.w3.org/2000/svg" xmlns:xlink="http://www.w3.org/1999/xlink" xmlns:lucid="lucid" width="456.33" height="543.09"><g transform="translate(-407 -59.1269457685969)" lucid:page-tab-id="0_0"><path d="M427 555c0-3.3 2.7-6 6-6h404.33c3.32 0 6 2.7 6 6v21.2c0 3.33-2.68 6-6 6H433c-3.3 0-6-2.67-6-6z" stroke="#000" stroke-opacity="0" stroke-width="3" fill="#fff" fill-opacity="0"/><use xlink:href="#a" transform="matrix(1,0,0,1,432,554) translate(0 15.999999999999998)"/><use xlink:href="#b" transform="matrix(1,0,0,1,432,554) translate(73.2222222222222 15.999999999999998)"/><use xlink:href="#c" transform="matrix(1,0,0,1,432,554) translate(163.1111111111111 15.999999999999998)"/><use xlink:href="#d" transform="matrix(1,0,0,1,432,554) translate(211.99999999999997 15.999999999999998)"/><use xlink:href="#e" transform="matrix(1,0,0,1,432,554) translate(233.05555555555551 15.999999999999998)"/><use xlink:href="#f" transform="matrix(1,0,0,1,432,554) translate(269.66666666666663 15.999999999999998)"/><path d="M626.86 283.03v30.75" stroke="#0c7cba" stroke-width="2" fill="none"/><path d="M626.86 267.77l4.64 14.26h-9.27z" stroke="#0c7cba" stroke-width="2" fill="#0c7cba"/><path d="M627.86 314.9l-.93-.12-1.07.03v-1.05h2" fill="#0c7cba"/><path d="M666.87 336.28H686c3.3 0 6 2.7 6 6v38.94" stroke="#0c7cba" stroke-width="2" fill="none"/><path d="M651.6 336.28l14.27-4.64v9.27z" stroke="#0c7cba" stroke-width="2" fill="#fff"/><path d="M693 382.33l-.93-.1-1.07.02v-1.06h2" fill="#0c7cba"/><path d="M646.86 243.03c0 11.05-8.95 20-20 20-11.04 0-20-8.95-20-20s8.96-20 20-20c11.05 0 20 8.95 20 20z" stroke="#5e5e5e" stroke-width="3" fill="#c1e4f7" fill-opacity=".39"/><use xlink:href="#g" transform="matrix(1,0,0,1,611.8642890772127,228.02940906014604) translate(8.527135416666667 21.297743055555554)"/><path d="M463.72 79.13h320.05v40H463.72z" fill="#fff" fill-opacity="0"/><use xlink:href="#h" transform="matrix(1,0,0,1,468.71958692411135,84.1269457685969) translate(0 19.422743055555554)"/><use xlink:href="#i" transform="matrix(1,0,0,1,468.71958692411135,84.1269457685969) translate(18.28342013888889 19.422743055555554)"/><use xlink:href="#j" transform="matrix(1,0,0,1,468.71958692411135,84.1269457685969) translate(33.21397569444444 19.422743055555554)"/><use xlink:href="#k" transform="matrix(1,0,0,1,468.71958692411135,84.1269457685969) translate(64.20355902777777 19.422743055555554)"/><use xlink:href="#l" transform="matrix(1,0,0,1,468.71958692411135,84.1269457685969) translate(152.00737847222223 19.422743055555554)"/><use xlink:href="#m" transform="matrix(1,0,0,1,468.71958692411135,84.1269457685969) translate(169.63975694444446 19.422743055555554)"/><path d="M463.72 110.13h320.05v40H463.72z" fill="#fff" fill-opacity="0"/><use xlink:href="#n" transform="matrix(1,0,0,1,468.71958692411135,115.12694576859693) translate(0 19.422743055555554)"/><use xlink:href="#i" transform="matrix(1,0,0,1,468.71958692411135,115.12694576859693) translate(17.14409722222222 19.422743055555554)"/><use xlink:href="#j" transform="matrix(1,0,0,1,468.71958692411135,115.12694576859693) translate(32.07465277777777 19.422743055555554)"/><use xlink:href="#k" transform="matrix(1,0,0,1,468.71958692411135,115.12694576859693) translate(63.0642361111111 19.422743055555554)"/><use xlink:href="#o" transform="matrix(1,0,0,1,468.71958692411135,115.12694576859693) translate(150.86805555555554 19.422743055555554)"/><use xlink:href="#p" transform="matrix(1,0,0,1,468.71958692411135,115.12694576859693) translate(208.61545138888886 19.422743055555554)"/><use xlink:href="#q" transform="matrix(1,0,0,1,468.71958692411135,115.12694576859693) translate(223.06857638888886 19.422743055555554)"/><path d="M463.72 141.13h360v61.43h-360z" fill="#fff" fill-opacity="0"/><use xlink:href="#r" transform="matrix(1,0,0,1,468.7195869241117,146.1269457685968) translate(0 19.422743055555554)"/><use xlink:href="#i" transform="matrix(1,0,0,1,468.7195869241117,146.1269457685968) translate(16.612413194444443 19.422743055555554)"/><use xlink:href="#j" transform="matrix(1,0,0,1,468.7195869241117,146.1269457685968) translate(31.542968749999996 19.422743055555554)"/><use xlink:href="#k" transform="matrix(1,0,0,1,468.7195869241117,146.1269457685968) translate(62.53255208333333 19.422743055555554)"/><use xlink:href="#s" transform="matrix(1,0,0,1,468.7195869241117,146.1269457685968) translate(150.33637152777777 19.422743055555554)"/><use xlink:href="#t" transform="matrix(1,0,0,1,468.7195869241117,146.1269457685968) translate(230.82682291666666 19.422743055555554)"/><use xlink:href="#q" transform="matrix(1,0,0,1,468.7195869241117,146.1269457685968) translate(262.87977430555554 19.422743055555554)"/><path d="M463.72 171.13h350.54v61.43H463.72z" fill="#fff" fill-opacity="0"/><use xlink:href="#u" transform="matrix(1,0,0,1,468.7195869241117,176.12694576859687) translate(0 19.422743055555554)"/><use xlink:href="#i" transform="matrix(1,0,0,1,468.7195869241117,176.12694576859687) translate(17.48046875 19.422743055555554)"/><use xlink:href="#j" transform="matrix(1,0,0,1,468.7195869241117,176.12694576859687) translate(32.41102430555556 19.422743055555554)"/><use xlink:href="#v" transform="matrix(1,0,0,1,468.7195869241117,176.12694576859687) translate(63.400607638888886 19.422743055555554)"/><use xlink:href="#w" transform="matrix(1,0,0,1,468.7195869241117,176.12694576859687) translate(146.44097222222223 19.422743055555554)"/><use xlink:href="#x" transform="matrix(1,0,0,1,468.7195869241117,176.12694576859687) translate(182.60633680555554 19.422743055555554)"/><path d="M646.86 336.28c0 11.05-8.95 20-20 20-11.04 0-20-8.95-20-20s8.96-20 20-20c11.05 0 20 8.95 20 20z" stroke="#5e5e5e" stroke-width="3" fill="#c1e4f7" fill-opacity=".39"/><g><use xlink:href="#y" transform="matrix(1,0,0,1,611.8642890772127,321.27961871763176) translate(9.096796875 21.297743055555554)"/></g><path d="M712 403.72c0 11.05-8.95 20-20 20s-20-8.95-20-20 8.95-20 20-20 20 8.95 20 20z" stroke="#5e5e5e" stroke-width="3" fill="#c1e4f7" fill-opacity=".39"/><g><use xlink:href="#z" transform="matrix(1,0,0,1,677,388.72038128236824) translate(9.36263888888889 21.297743055555554)"/></g><path d="M586.86 336.28H566c-3.3 0-6 2.7-6 6v38.94" stroke="#0c7cba" stroke-width="2" fill="none"/><path d="M602.13 336.28l-14.27 4.63v-9.26z" stroke="#0c7cba" stroke-width="2" fill="#fff"/><path d="M561 382.33l-.93-.1-1.07.02v-1.06h2" fill="#0c7cba"/><path d="M580 403.72c0 11.05-8.95 20-20 20s-20-8.95-20-20 8.95-20 20-20 20 8.95 20 20z" stroke="#5e5e5e" stroke-width="3" fill="#c1e4f7" fill-opacity=".39"/><g><use xlink:href="#A" transform="matrix(1,0,0,1,545,388.72038128236824) translate(8.928611111111111 21.297743055555554)"/></g><path d="M427 453c0-3.3 2.7-6 6-6h404.33c3.32 0 6 2.7 6 6v64.67c0 3.3-2.68 6-6 6H433c-3.3 0-6-2.7-6-6z" stroke="#5e5e5e" fill-opacity="0"/><path d="M738.95 471h56.5v34h-56.5z" fill="#fff" fill-opacity="0"/><g><use xlink:href="#B" transform="matrix(1,0,0,1,743.9504754688395,476) translate(0 15.999999999999998)"/></g><path d="M725.45 486h12.5" stroke="#0c7cba" stroke-width="2" fill="none"/><path d="M710.2 486l14.25-4.64v9.28z" stroke="#0c7cba" stroke-width="2" fill="#fff"/><path d="M737.92 486h1.03" stroke="#0c7cba" stroke-width="2" fill="none"/><path d="M606.6 471h56.5v34h-56.5z" fill="#fff" fill-opacity="0"/><g><use xlink:href="#C" transform="matrix(1,0,0,1,611.5900950937679,476) translate(0 15.999999999999998)"/></g><path d="M593.1 486h12.5" stroke="#0c7cba" stroke-width="2" fill="none"/><path d="M577.83 486l14.26-4.64v9.28z" stroke="#0c7cba" stroke-width="2" fill="#0c7cba"/><path d="M606.6 487h-1.04v-2h1.03" fill="#0c7cba"/><path d="M503.5 471.35H637v58H503.5z" fill="#fff" fill-opacity="0"/><g><use xlink:href="#D" transform="matrix(1,0,0,1,508.5135235208733,476.34793579331654) translate(0 15.999999999999998)"/></g><path d="M487.48 486c0 11.05-8.95 20-20 20-11.04 0-20-8.95-20-20s8.96-20 20-20c11.05 0 20 8.95 20 20z" stroke="#5e5e5e" stroke-width="3" fill="#c1e4f7" fill-opacity=".39"/><defs><path fill="#333" d="M185-189c-5-48-123-54-124 2 14 75 158 14 163 119 3 78-121 87-175 55-17-10-28-26-33-46l33-7c5 56 141 63 141-1 0-78-155-14-162-118-5-82 145-84 179-34 5 7 8 16 11 25" id="E"/><path fill="#333" d="M141-36C126-15 110 5 73 4 37 3 15-17 15-53c-1-64 63-63 125-63 3-35-9-54-41-54-24 1-41 7-42 31l-33-3c5-37 33-52 76-52 45 0 72 20 72 64v82c-1 20 7 32 28 27v20c-31 9-61-2-59-35zM48-53c0 20 12 33 32 33 41-3 63-29 60-74-43 2-92-5-92 41" id="F"/><path fill="#333" d="M210-169c-67 3-38 105-44 169h-31v-121c0-29-5-50-35-48C34-165 62-65 56 0H25l-1-190h30c1 10-1 24 2 32 10-44 99-50 107 0 11-21 27-35 58-36 85-2 47 119 55 194h-31v-121c0-29-5-49-35-48" id="G"/><path fill="#333" d="M115-194c55 1 70 41 70 98S169 2 115 4C84 4 66-9 55-30l1 105H24l-1-265h31l2 30c10-21 28-34 59-34zm-8 174c40 0 45-34 45-75s-6-73-45-74c-42 0-51 32-51 76 0 43 10 73 51 73" id="H"/><path fill="#333" d="M24 0v-261h32V0H24" id="I"/><path fill="#333" d="M100-194c63 0 86 42 84 106H49c0 40 14 67 53 68 26 1 43-12 49-29l28 8c-11 28-37 45-77 45C44 4 14-33 15-96c1-61 26-98 85-98zm52 81c6-60-76-77-97-28-3 7-6 17-6 28h103" id="J"/><g id="a"><use transform="matrix(0.055555555555555546,0,0,0.055555555555555546,0,0)" xlink:href="#E"/><use transform="matrix(0.055555555555555546,0,0,0.055555555555555546,13.33333333333333,0)" xlink:href="#F"/><use transform="matrix(0.055555555555555546,0,0,0.055555555555555546,24.44444444444444,0)" xlink:href="#G"/><use transform="matrix(0.055555555555555546,0,0,0.055555555555555546,41.05555555555554,0)" xlink:href="#H"/><use transform="matrix(0.055555555555555546,0,0,0.055555555555555546,52.16666666666665,0)" xlink:href="#I"/><use transform="matrix(0.055555555555555546,0,0,0.055555555555555546,56.555555555555536,0)" xlink:href="#J"/></g><path fill="#333" d="M114-163C36-179 61-72 57 0H25l-1-190h30c1 12-1 29 2 39 6-27 23-49 58-41v29" id="K"/><path fill="#333" d="M177-190C167-65 218 103 67 71c-23-6-38-20-44-43l32-5c15 47 100 32 89-28v-30C133-14 115 1 83 1 29 1 15-40 15-95c0-56 16-97 71-98 29-1 48 16 59 35 1-10 0-23 2-32h30zM94-22c36 0 50-32 50-73 0-42-14-75-50-75-39 0-46 34-46 75s6 73 46 73" id="L"/><path fill="#333" d="M84 4C-5 8 30-112 23-190h32v120c0 31 7 50 39 49 72-2 45-101 50-169h31l1 190h-30c-1-10 1-25-2-33-11 22-28 36-60 37" id="M"/><path fill="#333" d="M117-194c89-4 53 116 60 194h-32v-121c0-31-8-49-39-48C34-167 62-67 57 0H25l-1-190h30c1 10-1 24 2 32 11-22 29-35 61-36" id="N"/><path fill="#333" d="M59-47c-2 24 18 29 38 22v24C64 9 27 4 27-40v-127H5v-23h24l9-43h21v43h35v23H59v120" id="O"/><g id="b"><use transform="matrix(0.055555555555555546,0,0,0.055555555555555546,0,0)" xlink:href="#F"/><use transform="matrix(0.055555555555555546,0,0,0.055555555555555546,11.111111111111109,0)" xlink:href="#K"/><use transform="matrix(0.055555555555555546,0,0,0.055555555555555546,17.722222222222218,0)" xlink:href="#L"/><use transform="matrix(0.055555555555555546,0,0,0.055555555555555546,28.83333333333333,0)" xlink:href="#M"/><use transform="matrix(0.055555555555555546,0,0,0.055555555555555546,39.944444444444436,0)" xlink:href="#G"/><use transform="matrix(0.055555555555555546,0,0,0.055555555555555546,56.55555555555554,0)" xlink:href="#J"/><use transform="matrix(0.055555555555555546,0,0,0.055555555555555546,67.66666666666666,0)" xlink:href="#N"/><use transform="matrix(0.055555555555555546,0,0,0.055555555555555546,78.77777777777777,0)" xlink:href="#O"/></g><path fill="#333" d="M135-143c-3-34-86-38-87 0 15 53 115 12 119 90S17 21 10-45l28-5c4 36 97 45 98 0-10-56-113-15-118-90-4-57 82-63 122-42 12 7 21 19 24 35" id="P"/><path fill="#333" d="M85-194c31 0 48 13 60 33l-1-100h32l1 261h-30c-2-10 0-23-3-31C134-8 116 4 85 4 32 4 16-35 15-94c0-66 23-100 70-100zm9 24c-40 0-46 34-46 75 0 40 6 74 45 74 42 0 51-32 51-76 0-42-9-74-50-73" id="Q"/><g id="c"><use transform="matrix(0.055555555555555546,0,0,0.055555555555555546,0,0)" xlink:href="#M"/><use transform="matrix(0.055555555555555546,0,0,0.055555555555555546,11.111111111111109,0)" xlink:href="#P"/><use transform="matrix(0.055555555555555546,0,0,0.055555555555555546,21.111111111111107,0)" xlink:href="#J"/><use transform="matrix(0.055555555555555546,0,0,0.055555555555555546,32.222222222222214,0)" xlink:href="#Q"/></g><path fill="#333" d="M24-231v-30h32v30H24zM24 0v-190h32V0H24" id="R"/><g id="d"><use transform="matrix(0.055555555555555546,0,0,0.055555555555555546,0,0)" xlink:href="#R"/><use transform="matrix(0.055555555555555546,0,0,0.055555555555555546,4.388888888888888,0)" xlink:href="#N"/></g><path fill="#333" d="M106-169C34-169 62-67 57 0H25v-261h32l-1 103c12-21 28-36 61-36 89 0 53 116 60 194h-32v-121c2-32-8-49-39-48" id="S"/><g id="e"><use transform="matrix(0.055555555555555546,0,0,0.055555555555555546,0,0)" xlink:href="#O"/><use transform="matrix(0.055555555555555546,0,0,0.055555555555555546,5.5555555555555545,0)" xlink:href="#S"/><use transform="matrix(0.055555555555555546,0,0,0.055555555555555546,16.666666666666664,0)" xlink:href="#R"/><use transform="matrix(0.055555555555555546,0,0,0.055555555555555546,21.055555555555554,0)" xlink:href="#P"/></g><path fill="#333" d="M96-169c-40 0-48 33-48 73s9 75 48 75c24 0 41-14 43-38l32 2c-6 37-31 61-74 61-59 0-76-41-82-99-10-93 101-131 147-64 4 7 5 14 7 22l-32 3c-4-21-16-35-41-35" id="T"/><g id="f"><use transform="matrix(0.055555555555555546,0,0,0.055555555555555546,0,0)" xlink:href="#F"/><use transform="matrix(0.055555555555555546,0,0,0.055555555555555546,11.111111111111109,0)" xlink:href="#K"/><use transform="matrix(0.055555555555555546,0,0,0.055555555555555546,17.722222222222218,0)" xlink:href="#O"/><use transform="matrix(0.055555555555555546,0,0,0.055555555555555546,23.27777777777777,0)" xlink:href="#R"/><use transform="matrix(0.055555555555555546,0,0,0.055555555555555546,27.66666666666666,0)" xlink:href="#T"/><use transform="matrix(0.055555555555555546,0,0,0.055555555555555546,37.66666666666666,0)" xlink:href="#I"/><use transform="matrix(0.055555555555555546,0,0,0.055555555555555546,42.05555555555554,0)" xlink:href="#J"/></g><path fill="#333" d="M371-429L244-141c-9 21-3 36 16 45s54 16 104 23l-9 73H-50l10-73c71-17 125-16 148-68l468-1064c61-50 141-86 225-112l227 1176c8 50 51 60 105 68l-9 73H663l10-73c48-3 82-10 101-20s26-26 22-48l-54-288H371zm348-121l-90-472-205 472h295" id="U"/><use transform="matrix(0.010850694444444444,0,0,0.010850694444444444,0,0)" xlink:href="#U" id="g"/><use transform="matrix(0.010850694444444444,0,0,0.010850694444444444,0,0)" xlink:href="#U" id="h"/><path fill="#333" d="M83-672c16-37 39-79 58-113h673l25 31c-15 38-38 80-57 114H108zM43-372c15-38 38-79 57-113h673l25 31c-15 38-38 80-57 114H67" id="V"/><use transform="matrix(0.010850694444444444,0,0,0.010850694444444444,0,0)" xlink:href="#V" id="i"/><path fill="#333" d="M352-90c82 0 133-30 211-64l17 37C486-49 387 21 252 41 109 22 117-184 141-332l77-483H74l-15-31 101-59h72c14-82 21-160 75-199l101-72 28 25c-33 61-45 156-60 246h249l20 28c-32 41-83 79-127 107-20-47-87-43-156-45-27 202-72 388-83 604-3 66 23 121 73 121" id="W"/><path fill="#333" d="M793-135c-6 100 112 46 161 26l15 37C872-21 815 28 713 41c-47-3-79-59-74-117 17-205 86-416 86-624 0-70 2-136-70-134-130 42-229 138-293 252-71 126-89 326-102 510 0 17 1 33 2 47-44 22-100 43-143 66L86 10c68-407 139-834 188-1260 4-42 7-75 7-96-1-38-5-69-41-67-40 3-78 17-115 27l-12-39c84-36 173-77 270-95 74 4 61 83 53 162-26 224-64 465-98 680 90-110 186-200 330-244 33-10 64-14 94-14 100 0 117 63 117 176 0 217-73 413-86 625" id="X"/><path fill="#333" d="M579-646c37-99-17-228-128-174-115 56-180 180-224 308-12 36-18 73-21 108 139-55 237-96 323-171 27-24 42-49 50-71zm-61-283c157-36 268 72 226 228-42 154-187 215-329 287-57 29-127 57-208 87 12 102 51 186 115 233 18 12 37 18 55 18 144 0 224-74 319-145 13 5 26 29 31 41C613-85 528-4 380 33 225 72 123-22 88-142c-97-333 92-609 306-738 36-22 78-39 124-49" id="Y"/><g id="j"><use transform="matrix(0.010850694444444444,0,0,0.010850694444444444,0,0)" xlink:href="#W"/><use transform="matrix(0.010850694444444444,0,0,0.010850694444444444,6.825086805555555,0)" xlink:href="#X"/><use transform="matrix(0.010850694444444444,0,0,0.010850694444444444,17.805989583333332,0)" xlink:href="#Y"/></g><path fill="#333" d="M668-722c-47-47-91-109-179-109-154 0-210 145-262 265-62 143-43 381 62 450 83 55 145-25 185-74 54-66 104-151 147-234 14-93 31-199 47-298zM795-78c47-1 77-9 116-26l13 36C838-14 788 27 696 41c-67-13-69-91-81-168-6-41-7-93-7-154C545-167 470-54 364 14c-91 58-187 3-234-58-69-89-97-274-60-424 60-241 222-390 457-460 75-22 127 9 168 45 23-151 53-304 59-463 2-40-7-70-45-67s-72 18-107 27l-12-39c84-35 172-77 268-95 45 2 55 29 55 82 0 397-163 746-163 1139 0 77 4 134 11 169s19 52 34 52" id="Z"/><path fill="#333" d="M526-770c-19-49-90-43-159-45l-72 622C254 110 134 350-74 485l-26-63C53 318 115 88 141-139l78-676H68l-15-31 101-59h75c24-228 81-415 230-522 71-51 177-125 295-77 59 24 99 73 149 101-51 33-100 82-166 98-54-24-64-112-141-112-130 0-153 152-183 269-20 77-25 163-36 243h256l20 28c-32 41-82 79-127 107" id="aa"/><path fill="#333" d="M833-76c48 0 81-16 125-33l15 37C881-21 816 41 717 41c-54 0-78-56-74-117 15-206 90-414 90-624 0-86-3-131-76-136-128 42-223 142-286 256-74 134-103 351-103 555-44 22-100 43-143 66L92 10c46-243 113-505 113-772 0-37 0-70-37-67-38 3-72 17-107 26l-14-39c84-34 173-76 268-94 58 2 38 81 38 143 0 37-6 81-9 115 87-107 182-199 320-244 33-11 64-14 94-14 102-1 129 71 129 174 0 219-90 412-90 627 0 38 5 59 36 59" id="ab"/><path fill="#333" d="M661-760c-53-49-159-101-247-48-113 67-182 195-214 341-30 137-2 291 76 351 83 63 145-40 186-90 52-62 103-149 141-225 17-109 40-224 58-329zM774-76c46 0 73-10 115-28l12 36C815-15 765 25 678 41c-67-11-72-79-84-155-6-40-8-93-8-158C527-170 447-59 354 10c-84 62-182 13-228-48-67-88-94-277-54-422 66-239 224-400 465-468 89-26 161 15 213 52 30-23 66-43 102-60l20 35c-81 49-83 182-104 289-30 154-64 328-30 492 5 25 13 44 36 44" id="ac"/><g id="k"><use transform="matrix(0.010850694444444444,0,0,0.010850694444444444,0,0)" xlink:href="#Z"/><use transform="matrix(0.010850694444444444,0,0,0.010850694444444444,10.514322916666666,0)" xlink:href="#Y"/><use transform="matrix(0.010850694444444444,0,0,0.010850694444444444,19.249131944444443,0)" xlink:href="#aa"/><use transform="matrix(0.010850694444444444,0,0,0.010850694444444444,25.31467013888889,0)" xlink:href="#Y"/><use transform="matrix(0.010850694444444444,0,0,0.010850694444444444,34.049479166666664,0)" xlink:href="#ab"/><use transform="matrix(0.010850694444444444,0,0,0.010850694444444444,45.03038194444444,0)" xlink:href="#Z"/><use transform="matrix(0.010850694444444444,0,0,0.010850694444444444,55.54470486111111,0)" xlink:href="#ac"/><use transform="matrix(0.010850694444444444,0,0,0.010850694444444444,65.54904513888889,0)" xlink:href="#ab"/><use transform="matrix(0.010850694444444444,0,0,0.010850694444444444,76.52994791666666,0)" xlink:href="#W"/></g><path fill="#333" d="M311-76c55 0 81-15 129-33l15 37C371-28 309 41 199 41c-53 0-78-56-74-117 14-232 100-454 100-684 0-38-3-70-41-67-36 2-67 15-100 24l-14-37c83-35 168-78 264-96 45 2 51 31 51 84 0 243-104 474-104 717 0 34 2 59 30 59zm106-1257c42-3 67 28 65 71-4 84-41 151-123 156-42 3-68-26-65-70 5-82 42-152 123-157" id="ad"/><path fill="#333" d="M256-68c152 49 300-73 232-226-66-147-309-140-356-298-50-169 83-276 212-324 89-33 204-20 266 20 30 20 54 42 88 52-38 39-73 84-127 103-57-27-76-110-161-111-113-1-199 125-118 217 59 66 206 105 270 177 37 42 76 93 73 169-7 163-126 253-250 305C251 72 86 26 18-52-7-81-13-97 8-130c21-34 50-79 90-93 48 53 78 129 158 155" id="ae"/><g id="l"><use transform="matrix(0.010850694444444444,0,0,0.010850694444444444,0,0)" xlink:href="#ad"/><use transform="matrix(0.010850694444444444,0,0,0.010850694444444444,5.46875,0)" xlink:href="#ae"/></g><path fill="#333" d="M674-748c-47-35-92-83-172-83-157 0-216 146-272 265-64 135-51 381 51 450 45 31 72 28 114-14 96-95 179-235 237-374 10-83 14-176 42-244zM538-928c95-27 164 21 218 59 29-28 63-48 100-67l23 35c-51 44-69 93-82 182-45 313-7 671-127 913-56 113-141 206-246 266-130 75-313 23-402-42-18-14-27-27-27-39C6 323 51 279 95 256c41 25 63 74 110 98 37 19 83 36 142 35 65 0 116-29 154-87 89-134 113-411 119-638C554-210 466-78 359 6c-85 67-183 19-233-44-69-87-94-276-57-422 57-221 202-364 401-447 23-9 46-15 68-21" id="af"/><path fill="#333" d="M808-120c19 78 102 32 153 16l14 36C892-16 837 29 743 41c-69-16-80-95-89-179-5-43-3-96 2-159C583-170 503-46 374 16c-50 24-105 41-152 10-63-42-101-123-101-231 0-192 74-366 74-555 0-38-3-69-41-67-37 2-69 15-103 24l-12-37c84-35 170-78 266-96 47 2 49 31 49 84 0 202-80 388-80 590 0 64 6 110 20 139 25 50 64 55 111 23 117-80 193-207 269-347 15-103 45-201 45-313 0-37-1-69-37-67-34 2-64 14-94 24l-15-37c82-35 164-78 258-96 45 3 46 32 46 84 0 206-82 390-82 598 0 61 6 105 13 134" id="ag"/><path fill="#333" d="M295-76c50 0 81-16 129-33l12 37C351-24 291 41 174 41c-49 0-78-56-72-119 38-425 141-836 172-1268 3-41-11-70-51-67-37 3-69 18-104 27l-15-39c84-35 172-77 269-95 45 2 64 29 61 82-29 447-174 858-174 1303 0 37 6 59 35 59" id="ah"/><path fill="#333" d="M811-936c96-8 94 88 63 164-94 239-205 440-333 690-110 215-221 423-416 540-83 51-219 61-295 8-32-22 9-71 22-96 13-26 38-56 61-69 41 27 76 43 143 43 54 0 106-26 158-78S320 139 376 44c-51-272-106-558-200-789-21-51-28-72-72-82-36 3-66 15-98 24l-12-37c79-33 150-77 237-96 60 11 66 74 86 127 71 194 127 423 172 644 92-183 187-372 258-573 19-53 17-103-42-106-21-2-52 6-91 23l-18-37c73-42 131-71 215-78" id="ai"/><g id="m"><use transform="matrix(0.010850694444444444,0,0,0.010850694444444444,0,0)" xlink:href="#af"/><use transform="matrix(0.010850694444444444,0,0,0.010850694444444444,9.88498263888889,0)" xlink:href="#ag"/><use transform="matrix(0.010850694444444444,0,0,0.010850694444444444,20.97439236111111,0)" xlink:href="#ad"/><use transform="matrix(0.010850694444444444,0,0,0.010850694444444444,26.44314236111111,0)" xlink:href="#ah"/><use transform="matrix(0.010850694444444444,0,0,0.010850694444444444,31.66232638888889,0)" xlink:href="#W"/><use transform="matrix(0.010850694444444444,0,0,0.010850694444444444,38.48741319444444,0)" xlink:href="#ai"/></g><path fill="#333" d="M767-723c156 29 257 137 257 313 0 227-148 347-325 408C487 71 231 0-8 0l6-73c43-9 75-20 98-31s35-21 36-30l144-1034c-52 6-96 15-142 25v-84c267-72 884-155 884 187 0 166-112 268-251 317zm11 348c6-201-139-298-346-246l-68 487c4 29 57 39 88 45 213 35 320-90 326-286zm-6-612c0-148-105-208-262-196l-62 443c188 2 324-65 324-247" id="aj"/><use transform="matrix(0.010850694444444444,0,0,0.010850694444444444,0,0)" xlink:href="#aj" id="n"/><g id="o"><use transform="matrix(0.010850694444444444,0,0,0.010850694444444444,0,0)" xlink:href="#ae"/><use transform="matrix(0.010850694444444444,0,0,0.010850694444444444,7.71484375,0)" xlink:href="#ad"/><use transform="matrix(0.010850694444444444,0,0,0.010850694444444444,13.18359375,0)" xlink:href="#af"/><use transform="matrix(0.010850694444444444,0,0,0.010850694444444444,23.06857638888889,0)" xlink:href="#ab"/><use transform="matrix(0.010850694444444444,0,0,0.010850694444444444,34.049479166666664,0)" xlink:href="#Y"/><use transform="matrix(0.010850694444444444,0,0,0.010850694444444444,42.78428819444444,0)" xlink:href="#Z"/></g><use transform="matrix(0.010850694444444444,0,0,0.010850694444444444,0,0)" xlink:href="#ac" id="p"/><path fill="#333" d="M686-221c9 13 23 29 31 41C607-84 522-3 374 33 214 72 121-24 78-147c-48-136-20-342 34-453 79-162 215-279 412-328 118-29 197 32 254 88 14 13 25 22 35 25-50 33-97 80-164 94-57-29-87-110-172-110-153 0-206 143-247 267-61 185-47 488 165 488 129 0 203-79 291-145" id="ak"/><path fill="#333" d="M610-226c90-190 100-606-157-593-200 10-256 215-256 420 0 137 49 245 131 301 48 34 117 34 168 6 51-29 88-78 114-134zm-88-710c316 0 338 408 230 646C684-140 577-6 407 33 126 98 12-191 65-482c37-207 165-342 334-426 40-20 82-28 123-28" id="al"/><g id="q"><use transform="matrix(0.010850694444444444,0,0,0.010850694444444444,0,0)" xlink:href="#ak"/><use transform="matrix(0.010850694444444444,0,0,0.010850694444444444,8.626302083333332,0)" xlink:href="#al"/><use transform="matrix(0.010850694444444444,0,0,0.010850694444444444,18.001302083333332,0)" xlink:href="#ab"/><use transform="matrix(0.010850694444444444,0,0,0.010850694444444444,28.982204861111104,0)" xlink:href="#aa"/><use transform="matrix(0.010850694444444444,0,0,0.010850694444444444,35.04774305555555,0)" xlink:href="#Y"/><use transform="matrix(0.010850694444444444,0,0,0.010850694444444444,43.78255208333333,0)" xlink:href="#ae"/><use transform="matrix(0.010850694444444444,0,0,0.010850694444444444,51.49739583333333,0)" xlink:href="#ae"/><use transform="matrix(0.010850694444444444,0,0,0.010850694444444444,59.21223958333333,0)" xlink:href="#ad"/><use transform="matrix(0.010850694444444444,0,0,0.010850694444444444,64.68098958333333,0)" xlink:href="#al"/><use transform="matrix(0.010850694444444444,0,0,0.010850694444444444,74.05598958333333,0)" xlink:href="#ab"/></g><path fill="#333" d="M957-211C830-91 701 27 480 27 202 27 61-172 61-459c0-329 146-547 329-708 148-130 524-173 686-23-20 71-67 134-104 190-9 12-17 20-23 25l-60-15c-40-104-145-208-291-152-213 81-296 340-296 626 0 220 87 382 286 382 148 0 230-77 333-145 17 14 25 48 36 68" id="am"/><use transform="matrix(0.010850694444444444,0,0,0.010850694444444444,0,0)" xlink:href="#am" id="r"/><path fill="#333" d="M309-936c52 1 39 62 39 115 0 66-17 142-26 203 53-109 101-190 172-258 41-39 78-60 141-60 62 0 79 68 133 86-27 36-54 87-83 120-9 10-16 15-23 15-54-2-59-62-107-69-59 13-96 73-129 128-99 165-168 368-164 631-44 22-100 43-143 66L86 10c48-243 113-499 113-770 0-38-5-69-41-67-38 2-70 15-103 24l-14-37c84-36 172-78 268-96" id="an"/><g id="s"><use transform="matrix(0.010850694444444444,0,0,0.010850694444444444,0,0)" xlink:href="#an"/><use transform="matrix(0.010850694444444444,0,0,0.010850694444444444,7.888454861111111,0)" xlink:href="#Y"/><use transform="matrix(0.010850694444444444,0,0,0.010850694444444444,16.623263888888886,0)" xlink:href="#W"/><use transform="matrix(0.010850694444444444,0,0,0.010850694444444444,23.448350694444443,0)" xlink:href="#an"/><use transform="matrix(0.010850694444444444,0,0,0.010850694444444444,31.336805555555554,0)" xlink:href="#ac"/><use transform="matrix(0.010850694444444444,0,0,0.010850694444444444,41.34114583333333,0)" xlink:href="#ak"/><use transform="matrix(0.010850694444444444,0,0,0.010850694444444444,49.96744791666666,0)" xlink:href="#W"/><use transform="matrix(0.010850694444444444,0,0,0.010850694444444444,56.79253472222221,0)" xlink:href="#Y"/><use transform="matrix(0.010850694444444444,0,0,0.010850694444444444,65.52734374999999,0)" xlink:href="#Z"/></g><g id="t"><use transform="matrix(0.010850694444444444,0,0,0.010850694444444444,0,0)" xlink:href="#X"/><use transform="matrix(0.010850694444444444,0,0,0.010850694444444444,10.980902777777777,0)" xlink:href="#Y"/><use transform="matrix(0.010850694444444444,0,0,0.010850694444444444,19.715711805555554,0)" xlink:href="#an"/></g><path fill="#333" d="M1119-547c-83 22-108 56-115 151-5 72-18 158-27 227C865-81 764-5 612 22 350 69 177-80 99-272c-73-181-28-439 45-580 126-240 298-438 657-438 127 0 242 41 314 102-13 74-68 135-105 188-9 12-18 20-24 25l-58-13c-47-95-110-176-251-176-238 0-321 256-363 484-52 279 28 552 289 552 58 0 111-13 148-43l42-294c-3-46-46-47-92-60-28-8-68-14-118-22l6-73h536" id="ao"/><use transform="matrix(0.010850694444444444,0,0,0.010850694444444444,0,0)" xlink:href="#ao" id="u"/><g id="v"><use transform="matrix(0.010850694444444444,0,0,0.010850694444444444,0,0)" xlink:href="#ae"/><use transform="matrix(0.010850694444444444,0,0,0.010850694444444444,7.71484375,0)" xlink:href="#ad"/><use transform="matrix(0.010850694444444444,0,0,0.010850694444444444,13.18359375,0)" xlink:href="#af"/><use transform="matrix(0.010850694444444444,0,0,0.010850694444444444,23.06857638888889,0)" xlink:href="#ab"/><use transform="matrix(0.010850694444444444,0,0,0.010850694444444444,34.049479166666664,0)" xlink:href="#ac"/><use transform="matrix(0.010850694444444444,0,0,0.010850694444444444,44.05381944444444,0)" xlink:href="#W"/><use transform="matrix(0.010850694444444444,0,0,0.010850694444444444,50.87890625,0)" xlink:href="#ag"/><use transform="matrix(0.010850694444444444,0,0,0.010850694444444444,61.96831597222222,0)" xlink:href="#an"/><use transform="matrix(0.010850694444444444,0,0,0.010850694444444444,69.85677083333333,0)" xlink:href="#Y"/></g><path fill="#333" d="M1194-936c119-13 85 137 60 222-78 260-198 476-322 712-28 15-63 29-92 43l-33-31c-31-236-60-485-111-700-43 204-132 385-214 556-21 45-45 86-68 124-31 16-66 37-99 51l-32-31c-33-247-45-525-95-755-10-44-22-82-71-82-36 0-66 15-99 24L4-840c80-33 151-78 240-96 19 0 34 10 42 32 69 202 83 495 111 738 100-206 213-430 246-698 36-29 74-62 127-72 71 197 92 450 132 677 7 40 10 77 13 112 101-191 187-343 233-559 14-65 28-138-46-138-26 1-53 8-76 15l-18-37c56-32 114-62 186-70" id="ap"/><g id="w"><use transform="matrix(0.010850694444444444,0,0,0.010850694444444444,0,0)" xlink:href="#ap"/><use transform="matrix(0.010850694444444444,0,0,0.010850694444444444,13.997395833333332,0)" xlink:href="#ac"/><use transform="matrix(0.010850694444444444,0,0,0.010850694444444444,24.001736111111104,0)" xlink:href="#ae"/></g><g id="x"><use transform="matrix(0.010850694444444444,0,0,0.010850694444444444,0,0)" xlink:href="#aa"/><use transform="matrix(0.010850694444444444,0,0,0.010850694444444444,6.065538194444445,0)" xlink:href="#al"/><use transform="matrix(0.010850694444444444,0,0,0.010850694444444444,15.440538194444445,0)" xlink:href="#an"/><use transform="matrix(0.010850694444444444,0,0,0.010850694444444444,23.328993055555554,0)" xlink:href="#af"/><use transform="matrix(0.010850694444444444,0,0,0.010850694444444444,33.21397569444444,0)" xlink:href="#Y"/><use transform="matrix(0.010850694444444444,0,0,0.010850694444444444,41.94878472222222,0)" xlink:href="#Z"/></g><use transform="matrix(0.010850694444444444,0,0,0.010850694444444444,0,0)" xlink:href="#aj" id="y"/><use transform="matrix(0.010850694444444444,0,0,0.010850694444444444,0,0)" xlink:href="#am" id="z"/><use transform="matrix(0.010850694444444444,0,0,0.010850694444444444,0,0)" xlink:href="#ao" id="A"/><path fill="#333" d="M100-194c62-1 85 37 85 99 1 63-27 99-86 99S16-35 15-95c0-66 28-99 85-99zM99-20c44 1 53-31 53-75 0-43-8-75-51-75s-53 32-53 75 10 74 51 75" id="aq"/><g id="B"><use transform="matrix(0.055555555555555546,0,0,0.055555555555555546,0,0)" xlink:href="#aq"/><use transform="matrix(0.055555555555555546,0,0,0.055555555555555546,11.111111111111109,0)" xlink:href="#H"/><use transform="matrix(0.055555555555555546,0,0,0.055555555555555546,22.222222222222218,0)" xlink:href="#H"/><use transform="matrix(0.055555555555555546,0,0,0.055555555555555546,33.33333333333333,0)" xlink:href="#aq"/><use transform="matrix(0.055555555555555546,0,0,0.055555555555555546,44.444444444444436,0)" xlink:href="#P"/><use transform="matrix(0.055555555555555546,0,0,0.055555555555555546,54.444444444444436,0)" xlink:href="#J"/><use transform="matrix(0.055555555555555546,0,0,0.055555555555555546,65.55555555555554,0)" xlink:href="#P"/></g><g id="C"><use transform="matrix(0.055555555555555546,0,0,0.055555555555555546,0,0)" xlink:href="#P"/><use transform="matrix(0.055555555555555546,0,0,0.055555555555555546,9.999999999999998,0)" xlink:href="#M"/><use transform="matrix(0.055555555555555546,0,0,0.055555555555555546,21.111111111111107,0)" xlink:href="#H"/><use transform="matrix(0.055555555555555546,0,0,0.055555555555555546,32.222222222222214,0)" xlink:href="#H"/><use transform="matrix(0.055555555555555546,0,0,0.055555555555555546,43.33333333333332,0)" xlink:href="#aq"/><use transform="matrix(0.055555555555555546,0,0,0.055555555555555546,54.44444444444443,0)" xlink:href="#K"/><use transform="matrix(0.055555555555555546,0,0,0.055555555555555546,61.05555555555553,0)" xlink:href="#O"/><use transform="matrix(0.055555555555555546,0,0,0.055555555555555546,66.61111111111109,0)" xlink:href="#P"/></g><g id="D"><use transform="matrix(0.055555555555555546,0,0,0.055555555555555546,0,0)" xlink:href="#T"/><use transform="matrix(0.055555555555555546,0,0,0.055555555555555546,9.999999999999998,0)" xlink:href="#I"/><use transform="matrix(0.055555555555555546,0,0,0.055555555555555546,14.388888888888886,0)" xlink:href="#F"/><use transform="matrix(0.055555555555555546,0,0,0.055555555555555546,25.499999999999993,0)" xlink:href="#R"/><use transform="matrix(0.055555555555555546,0,0,0.055555555555555546,29.888888888888882,0)" xlink:href="#G"/></g></defs></g></svg>