<svg xmlns="http://www.w3.org/2000/svg" xmlns:xlink="http://www.w3.org/1999/xlink" xmlns:lucid="lucid" width="548.81" height="525.67"><g transform="translate(19.99999999999997 20)" lucid:page-tab-id="0_0"><path d="M98 6a6 6 0 0 1 6-6h228a6 6 0 0 1 6 6v108a6 6 0 0 1-6 6H104a6 6 0 0 1-6-6z" stroke="#3aa6dd" stroke-width="3" fill="#c1e4f7" fill-opacity=".39"/><use xlink:href="#a" transform="matrix(1,0,0,1,109.99999999999994,12) translate(100.2265625 23.307291666666664)"/><use xlink:href="#b" transform="matrix(1,0,0,1,109.99999999999994,12) translate(13.222222222222243 52.19270833333333)"/><use xlink:href="#c" transform="matrix(1,0,0,1,109.99999999999994,12) translate(57.666666666666686 52.19270833333333)"/><use xlink:href="#d" transform="matrix(1,0,0,1,109.99999999999994,12) translate(183.59259259259255 52.19270833333333)"/><use xlink:href="#e" transform="matrix(1,0,0,1,109.99999999999994,12) translate(76.96296296296296 84.19270833333333)"/><use xlink:href="#f" transform="matrix(1,0,0,1,109.99999999999994,12) translate(108 116.19270833333333)"/><path d="M217.73 140l-1.3 90.38" stroke="#3aa6dd" stroke-width="2" fill="none"/><path d="M217.95 124.74l4.43 14.33-9.27-.14z" stroke="#3aa6dd" stroke-width="2" fill="#3aa6dd"/><path d="M216.87 230.37l-.1.18-.43 1.02-.26 1.06-.08 1.06v.68h-.63l.06-4.03z" stroke="#3aa6dd" stroke-width=".05" fill="#3aa6dd"/><path d="M217 233.73a6 6 0 0 1 6-6h148a6 6 0 0 1 6 6V372.6a6 6 0 0 1-6 6H223a6 6 0 0 1-6-6z" fill="#c1e4f7" fill-opacity=".39"/><path d="M218 233.73c0 .55-.45 1-1 1s-1-.45-1-1 .45-1 1-1 1 .45 1 1zm1.76-4.24c0 .54-.45 1-1 1s-1-.46-1-1c0-.56.45-1 1-1s1 .44 1 1zm4.24-1.77c0 .55-.45 1-1 1s-1-.45-1-1 .45-1 1-1 1 .45 1 1zm4 0c0 .55-.45 1-1 1s-1-.45-1-1 .45-1 1-1 1 .45 1 1zm4 0c0 .55-.45 1-1 1s-1-.45-1-1 .45-1 1-1 1 .45 1 1zm4 0c0 .55-.45 1-1 1s-1-.45-1-1 .45-1 1-1 1 .45 1 1zm4 0c0 .55-.45 1-1 1s-1-.45-1-1 .45-1 1-1 1 .45 1 1zm4 0c0 .55-.45 1-1 1s-1-.45-1-1 .45-1 1-1 1 .45 1 1zm4 0c0 .55-.45 1-1 1s-1-.45-1-1 .45-1 1-1 1 .45 1 1zm4 0c0 .55-.45 1-1 1s-1-.45-1-1 .45-1 1-1 1 .45 1 1zm4 0c0 .55-.45 1-1 1s-1-.45-1-1 .45-1 1-1 1 .45 1 1zm4 0c0 .55-.45 1-1 1s-1-.45-1-1 .45-1 1-1 1 .45 1 1zm4 0c0 .55-.45 1-1 1s-1-.45-1-1 .45-1 1-1 1 .45 1 1zm4 0c0 .55-.45 1-1 1s-1-.45-1-1 .45-1 1-1 1 .45 1 1zm4 0c0 .55-.45 1-1 1s-1-.45-1-1 .45-1 1-1 1 .45 1 1zm4 0c0 .55-.45 1-1 1s-1-.45-1-1 .45-1 1-1 1 .45 1 1zm4 0c0 .55-.45 1-1 1s-1-.45-1-1 .45-1 1-1 1 .45 1 1zm4 0c0 .55-.45 1-1 1s-1-.45-1-1 .45-1 1-1 1 .45 1 1zm4 0c0 .55-.45 1-1 1s-1-.45-1-1 .45-1 1-1 1 .45 1 1zm4 0c0 .55-.45 1-1 1s-1-.45-1-1 .45-1 1-1 1 .45 1 1zm4 0c0 .55-.45 1-1 1s-1-.45-1-1 .45-1 1-1 1 .45 1 1zm4 0c0 .55-.45 1-1 1s-1-.45-1-1 .45-1 1-1 1 .45 1 1zm4 0c0 .55-.45 1-1 1s-1-.45-1-1 .45-1 1-1 1 .45 1 1zm4 0c0 .55-.45 1-1 1s-1-.45-1-1 .45-1 1-1 1 .45 1 1zm4 0c0 .55-.45 1-1 1s-1-.45-1-1 .45-1 1-1 1 .45 1 1zm4 0c0 .55-.45 1-1 1s-1-.45-1-1 .45-1 1-1 1 .45 1 1zm4 0c0 .55-.45 1-1 1s-1-.45-1-1 .45-1 1-1 1 .45 1 1zm4 0c0 .55-.45 1-1 1s-1-.45-1-1 .45-1 1-1 1 .45 1 1zm4 0c0 .55-.45 1-1 1s-1-.45-1-1 .45-1 1-1 1 .45 1 1zm4 0c0 .55-.45 1-1 1s-1-.45-1-1 .45-1 1-1 1 .45 1 1zm4 0c0 .55-.45 1-1 1s-1-.45-1-1 .45-1 1-1 1 .45 1 1zm4 0c0 .55-.45 1-1 1s-1-.45-1-1 .45-1 1-1 1 .45 1 1zm4 0c0 .55-.45 1-1 1s-1-.45-1-1 .45-1 1-1 1 .45 1 1zm4 0c0 .55-.45 1-1 1s-1-.45-1-1 .45-1 1-1 1 .45 1 1zm4 0c0 .55-.45 1-1 1s-1-.45-1-1 .45-1 1-1 1 .45 1 1zm4 0c0 .55-.45 1-1 1s-1-.45-1-1 .45-1 1-1 1 .45 1 1zm4 0c0 .55-.45 1-1 1s-1-.45-1-1 .45-1 1-1 1 .45 1 1zm4 0c0 .55-.45 1-1 1s-1-.45-1-1 .45-1 1-1 1 .45 1 1zm4 0c0 .55-.45 1-1 1s-1-.45-1-1 .45-1 1-1 1 .45 1 1zm4 0c0 .55-.45 1-1 1s-1-.45-1-1 .45-1 1-1 1 .45 1 1zm4.24 1.76c0 .54-.44 1-1 1-.55 0-1-.46-1-1 0-.56.45-1 1-1 .56 0 1 .44 1 1zm1.76 4.23c0 .55-.45 1-1 1s-1-.45-1-1 .45-1 1-1 1 .45 1 1zm0 3.97c0 .55-.45 1-1 1s-1-.45-1-1 .45-1 1-1 1 .45 1 1zm0 3.97c0 .55-.45 1-1 1s-1-.45-1-1c0-.56.45-1 1-1s1 .44 1 1zm0 3.96c0 .56-.45 1-1 1s-1-.44-1-1c0-.55.45-1 1-1s1 .45 1 1zm0 3.97c0 .55-.45 1-1 1s-1-.45-1-1 .45-1 1-1 1 .45 1 1zm0 3.97c0 .55-.45 1-1 1s-1-.45-1-1c0-.56.45-1 1-1s1 .44 1 1zm0 3.97c0 .55-.45 1-1 1s-1-.45-1-1c0-.56.45-1 1-1s1 .44 1 1zm0 3.96c0 .56-.45 1-1 1s-1-.44-1-1c0-.55.45-1 1-1s1 .45 1 1zm0 3.97c0 .55-.45 1-1 1s-1-.45-1-1 .45-1 1-1 1 .45 1 1zm0 3.97c0 .55-.45 1-1 1s-1-.45-1-1c0-.56.45-1 1-1s1 .44 1 1zm0 3.96c0 .56-.45 1-1 1s-1-.44-1-1c0-.55.45-1 1-1s1 .45 1 1zm0 3.97c0 .55-.45 1-1 1s-1-.45-1-1 .45-1 1-1 1 .45 1 1zm0 3.97c0 .55-.45 1-1 1s-1-.45-1-1 .45-1 1-1 1 .45 1 1zm0 3.97c0 .56-.45 1-1 1s-1-.44-1-1c0-.55.45-1 1-1s1 .45 1 1zm0 3.97c0 .56-.45 1-1 1s-1-.44-1-1c0-.55.45-1 1-1s1 .45 1 1zm0 3.97c0 .55-.45 1-1 1s-1-.45-1-1 .45-1 1-1 1 .45 1 1zm0 3.97c0 .56-.45 1-1 1s-1-.44-1-1c0-.54.45-1 1-1s1 .46 1 1zm0 3.98c0 .55-.45 1-1 1s-1-.45-1-1c0-.56.45-1 1-1s1 .44 1 1zm0 3.96c0 .56-.45 1-1 1s-1-.44-1-1c0-.55.45-1 1-1s1 .45 1 1zm0 3.97c0 .56-.45 1-1 1s-1-.44-1-1c0-.54.45-1 1-1s1 .46 1 1zm0 3.98c0 .55-.45 1-1 1s-1-.45-1-1 .45-1 1-1 1 .45 1 1zm0 3.97c0 .55-.45 1-1 1s-1-.45-1-1c0-.56.45-1 1-1s1 .44 1 1zm0 3.96c0 .57-.45 1-1 1s-1-.43-1-1c0-.54.45-1 1-1s1 .46 1 1zm0 3.98c0 .55-.45 1-1 1s-1-.45-1-1 .45-1 1-1 1 .45 1 1zm0 3.97c0 .55-.45 1-1 1s-1-.45-1-1 .45-1 1-1 1 .45 1 1zm0 3.97c0 .55-.45 1-1 1s-1-.45-1-1c0-.56.45-1 1-1s1 .44 1 1zm0 3.96c0 .56-.45 1-1 1s-1-.44-1-1c0-.55.45-1 1-1s1 .45 1 1zm0 3.97c0 .55-.45 1-1 1s-1-.45-1-1 .45-1 1-1 1 .45 1 1zm0 3.97c0 .55-.45 1-1 1s-1-.45-1-1 .45-1 1-1 1 .45 1 1zm0 3.97c0 .54-.45 1-1 1s-1-.46-1-1c0-.57.45-1 1-1s1 .43 1 1zm0 3.95c0 .56-.45 1-1 1s-1-.44-1-1c0-.55.45-1 1-1s1 .45 1 1zm0 3.97c0 .55-.45 1-1 1s-1-.45-1-1 .45-1 1-1 1 .45 1 1zm0 3.97c0 .54-.45 1-1 1s-1-.46-1-1c0-.56.45-1 1-1s1 .44 1 1zm0 3.95c0 .56-.45 1-1 1s-1-.44-1-1c0-.55.45-1 1-1s1 .45 1 1zm0 3.97c0 .56-.45 1-1 1s-1-.44-1-1c0-.55.45-1 1-1s1 .45 1 1zm0 3.97c0 .54-.45 1-1 1s-1-.46-1-1c0-.56.45-1 1-1s1 .44 1 1zm-1.76 4.23c0 .56-.44 1-1 1-.55 0-1-.44-1-1 0-.55.45-1 1-1 .56 0 1 .45 1 1zM372 378.6c0 .54-.45 1-1 1s-1-.46-1-1c0-.56.45-1 1-1s1 .44 1 1zm-4 0c0 .54-.45 1-1 1s-1-.46-1-1c0-.56.45-1 1-1s1 .44 1 1zm-4 0c0 .54-.45 1-1 1s-1-.46-1-1c0-.56.45-1 1-1s1 .44 1 1zm-4 0c0 .54-.45 1-1 1s-1-.46-1-1c0-.56.45-1 1-1s1 .44 1 1zm-4 0c0 .54-.45 1-1 1s-1-.46-1-1c0-.56.45-1 1-1s1 .44 1 1zm-4 0c0 .54-.45 1-1 1s-1-.46-1-1c0-.56.45-1 1-1s1 .44 1 1zm-4 0c0 .54-.45 1-1 1s-1-.46-1-1c0-.56.45-1 1-1s1 .44 1 1zm-4 0c0 .54-.45 1-1 1s-1-.46-1-1c0-.56.45-1 1-1s1 .44 1 1zm-4 0c0 .54-.45 1-1 1s-1-.46-1-1c0-.56.45-1 1-1s1 .44 1 1zm-4 0c0 .54-.45 1-1 1s-1-.46-1-1c0-.56.45-1 1-1s1 .44 1 1zm-4 0c0 .54-.45 1-1 1s-1-.46-1-1c0-.56.45-1 1-1s1 .44 1 1zm-4 0c0 .54-.45 1-1 1s-1-.46-1-1c0-.56.45-1 1-1s1 .44 1 1zm-4 0c0 .54-.45 1-1 1s-1-.46-1-1c0-.56.45-1 1-1s1 .44 1 1zm-4 0c0 .54-.45 1-1 1s-1-.46-1-1c0-.56.45-1 1-1s1 .44 1 1zm-4 0c0 .54-.45 1-1 1s-1-.46-1-1c0-.56.45-1 1-1s1 .44 1 1zm-4 0c0 .54-.45 1-1 1s-1-.46-1-1c0-.56.45-1 1-1s1 .44 1 1zm-4 0c0 .54-.45 1-1 1s-1-.46-1-1c0-.56.45-1 1-1s1 .44 1 1zm-4 0c0 .54-.45 1-1 1s-1-.46-1-1c0-.56.45-1 1-1s1 .44 1 1zm-4 0c0 .54-.45 1-1 1s-1-.46-1-1c0-.56.45-1 1-1s1 .44 1 1zm-4 0c0 .54-.45 1-1 1s-1-.46-1-1c0-.56.45-1 1-1s1 .44 1 1zm-4 0c0 .54-.45 1-1 1s-1-.46-1-1c0-.56.45-1 1-1s1 .44 1 1zm-4 0c0 .54-.45 1-1 1s-1-.46-1-1c0-.56.45-1 1-1s1 .44 1 1zm-4 0c0 .54-.45 1-1 1s-1-.46-1-1c0-.56.45-1 1-1s1 .44 1 1zm-4 0c0 .54-.45 1-1 1s-1-.46-1-1c0-.56.45-1 1-1s1 .44 1 1zm-4 0c0 .54-.45 1-1 1s-1-.46-1-1c0-.56.45-1 1-1s1 .44 1 1zm-4 0c0 .54-.45 1-1 1s-1-.46-1-1c0-.56.45-1 1-1s1 .44 1 1zm-4 0c0 .54-.45 1-1 1s-1-.46-1-1c0-.56.45-1 1-1s1 .44 1 1zm-4 0c0 .54-.45 1-1 1s-1-.46-1-1c0-.56.45-1 1-1s1 .44 1 1zm-4 0c0 .54-.45 1-1 1s-1-.46-1-1c0-.56.45-1 1-1s1 .44 1 1zm-4 0c0 .54-.45 1-1 1s-1-.46-1-1c0-.56.45-1 1-1s1 .44 1 1zm-4 0c0 .54-.45 1-1 1s-1-.46-1-1c0-.56.45-1 1-1s1 .44 1 1zm-4 0c0 .54-.45 1-1 1s-1-.46-1-1c0-.56.45-1 1-1s1 .44 1 1zm-4 0c0 .54-.45 1-1 1s-1-.46-1-1c0-.56.45-1 1-1s1 .44 1 1zm-4 0c0 .54-.45 1-1 1s-1-.46-1-1c0-.56.45-1 1-1s1 .44 1 1zm-4 0c0 .54-.45 1-1 1s-1-.46-1-1c0-.56.45-1 1-1s1 .44 1 1zm-4 0c0 .54-.45 1-1 1s-1-.46-1-1c0-.56.45-1 1-1s1 .44 1 1zm-4 0c0 .54-.45 1-1 1s-1-.46-1-1c0-.56.45-1 1-1s1 .44 1 1zm-4 0c0 .54-.45 1-1 1s-1-.46-1-1c0-.56.45-1 1-1s1 .44 1 1zm-4.24-1.77c0 .56-.45 1-1 1s-1-.44-1-1c0-.55.45-1 1-1s1 .45 1 1zM218 372.6c0 .54-.45 1-1 1s-1-.46-1-1c0-.56.45-1 1-1s1 .44 1 1zm0-3.98c0 .56-.45 1-1 1s-1-.44-1-1c0-.55.45-1 1-1s1 .45 1 1zm0-3.97c0 .56-.45 1-1 1s-1-.44-1-1c0-.55.45-1 1-1s1 .45 1 1zm0-3.96c0 .54-.45 1-1 1s-1-.46-1-1c0-.56.45-1 1-1s1 .44 1 1zm0-3.98c0 .55-.45 1-1 1s-1-.45-1-1 .45-1 1-1 1 .45 1 1zm0-3.97c0 .56-.45 1-1 1s-1-.44-1-1c0-.55.45-1 1-1s1 .45 1 1zm0-3.96c0 .54-.45 1-1 1s-1-.46-1-1c0-.57.45-1 1-1s1 .43 1 1zm0-3.98c0 .55-.45 1-1 1s-1-.45-1-1 .45-1 1-1 1 .45 1 1zm0-3.97c0 .55-.45 1-1 1s-1-.45-1-1 .45-1 1-1 1 .45 1 1zm0-3.97c0 .56-.45 1-1 1s-1-.44-1-1c0-.55.45-1 1-1s1 .45 1 1zm0-3.96c0 .55-.45 1-1 1s-1-.45-1-1c0-.56.45-1 1-1s1 .44 1 1zm0-3.97c0 .55-.45 1-1 1s-1-.45-1-1 .45-1 1-1 1 .45 1 1zm0-3.97c0 .55-.45 1-1 1s-1-.45-1-1 .45-1 1-1 1 .45 1 1zm0-3.97c0 .57-.45 1-1 1s-1-.43-1-1c0-.54.45-1 1-1s1 .46 1 1zm0-3.95c0 .55-.45 1-1 1s-1-.45-1-1c0-.56.45-1 1-1s1 .44 1 1zm0-3.97c0 .55-.45 1-1 1s-1-.45-1-1 .45-1 1-1 1 .45 1 1zm0-3.97c0 .56-.45 1-1 1s-1-.44-1-1c0-.54.45-1 1-1s1 .46 1 1zm0-3.96c0 .56-.45 1-1 1s-1-.44-1-1c0-.55.45-1 1-1s1 .45 1 1zm0-3.96c0 .55-.45 1-1 1s-1-.45-1-1c0-.56.45-1 1-1s1 .44 1 1zm0-3.97c0 .56-.45 1-1 1s-1-.44-1-1c0-.54.45-1 1-1s1 .46 1 1zm0-3.96c0 .55-.45 1-1 1s-1-.45-1-1 .45-1 1-1 1 .45 1 1zm0-3.97c0 .56-.45 1-1 1s-1-.44-1-1c0-.55.45-1 1-1s1 .45 1 1zm0-3.96c0 .56-.45 1-1 1s-1-.44-1-1c0-.55.45-1 1-1s1 .45 1 1zm0-3.96c0 .55-.45 1-1 1s-1-.45-1-1 .45-1 1-1 1 .45 1 1zm0-3.97c0 .55-.45 1-1 1s-1-.45-1-1 .45-1 1-1 1 .45 1 1zm0-3.97c0 .56-.45 1-1 1s-1-.44-1-1c0-.55.45-1 1-1s1 .45 1 1zm0-3.96c0 .55-.45 1-1 1s-1-.45-1-1c0-.56.45-1 1-1s1 .44 1 1zm0-3.97c0 .55-.45 1-1 1s-1-.45-1-1 .45-1 1-1 1 .45 1 1zm0-3.97c0 .56-.45 1-1 1s-1-.44-1-1c0-.55.45-1 1-1s1 .45 1 1zm0-3.96c0 .55-.45 1-1 1s-1-.45-1-1c0-.56.45-1 1-1s1 .44 1 1zm0-3.97c0 .55-.45 1-1 1s-1-.45-1-1c0-.56.45-1 1-1s1 .44 1 1zm0-3.97c0 .55-.45 1-1 1s-1-.45-1-1 .45-1 1-1 1 .45 1 1zm0-3.97c0 .56-.45 1-1 1s-1-.44-1-1c0-.55.45-1 1-1s1 .45 1 1zm0-3.96c0 .55-.45 1-1 1s-1-.45-1-1c0-.56.45-1 1-1s1 .44 1 1zm0-3.97c0 .55-.45 1-1 1s-1-.45-1-1 .45-1 1-1 1 .45 1 1z" fill="#3aa6dd"/><use xlink:href="#g" transform="matrix(1,0,0,1,228.9999999999999,239.73068944209047) translate(10.259259259259267 21.333333333333332)"/><use xlink:href="#h" transform="matrix(1,0,0,1,228.9999999999999,239.73068944209047) translate(84.33333333333333 21.333333333333332)"/><use xlink:href="#i" transform="matrix(1,0,0,1,228.9999999999999,239.73068944209047) translate(13.962962962962969 53.33333333333333)"/><use xlink:href="#j" transform="matrix(1,0,0,1,228.9999999999999,239.73068944209047) translate(40.55555555555556 53.33333333333333)"/><use xlink:href="#k" transform="matrix(1,0,0,1,228.9999999999999,239.73068944209047) translate(62.77777777777778 53.33333333333333)"/><use xlink:href="#l" transform="matrix(1,0,0,1,228.9999999999999,239.73068944209047) translate(12.481481481481495 85.33333333333333)"/><use xlink:href="#m" transform="matrix(1,0,0,1,228.9999999999999,239.73068944209047) translate(101.29629629629629 85.33333333333333)"/><use xlink:href="#n" transform="matrix(1,0,0,1,228.9999999999999,239.73068944209047) translate(16.148148148148152 117.33333333333333)"/><use xlink:href="#o" transform="matrix(1,0,0,1,228.9999999999999,239.73068944209047) translate(102.07407407407406 117.33333333333333)"/><use xlink:href="#p" transform="matrix(1,0,0,1,228.9999999999999,239.73068944209047) translate(68 149.33333333333334)"/><path d="M223 120a6 6 0 0 1 6-6h108a6 6 0 0 1 6 6v28.86a6 6 0 0 1-6 6H229a6 6 0 0 1-6-6z" stroke="#000" stroke-opacity="0" stroke-width="3" fill="#fff" fill-opacity="0"/><g><use xlink:href="#q" transform="matrix(1,0,0,1,228,119) translate(0.7161458333333357 23.30251736111111)"/></g><path d="M77 189a6 6 0 0 1 6-6h108a6 6 0 0 1 6 6v48a6 6 0 0 1-6 6H83a6 6 0 0 1-6-6z" stroke="#000" stroke-opacity="0" stroke-width="3" fill="#fff" fill-opacity="0"/><g><use xlink:href="#r" transform="matrix(1,0,0,1,81.99999999999994,188.00000000000006) translate(14.543728298611114 30.74001736111111)"/></g><path d="M237 188a6 6 0 0 1 6-6h108a6 6 0 0 1 6 6v48a6 6 0 0 1-6 6H243a6 6 0 0 1-6-6z" stroke="#000" stroke-opacity="0" stroke-width="3" fill="#fff" fill-opacity="0"/><g><use xlink:href="#s" transform="matrix(1,0,0,1,241.9999999999999,187.00000000000006) translate(14.519856770833336 30.74001736111111)"/></g><path d="M57 233.73a6 6 0 0 1 6-6h148a6 6 0 0 1 6 6V372.6a6 6 0 0 1-6 6H63a6 6 0 0 1-6-6z" stroke="#3aa6dd" stroke-width="3" fill="#c1e4f7" fill-opacity=".39"/><g><use xlink:href="#t" transform="matrix(1,0,0,1,68.99999999999999,239.73068944209047) translate(60.91015625 27.276041666666664)"/><use xlink:href="#u" transform="matrix(1,0,0,1,68.99999999999999,239.73068944209047) translate(49.48148148148148 56.16145833333333)"/><use xlink:href="#v" transform="matrix(1,0,0,1,68.99999999999999,239.73068944209047) translate(8.740740740740755 88.16145833333333)"/><use xlink:href="#w" transform="matrix(1,0,0,1,68.99999999999999,239.73068944209047) translate(7.259259259259274 120.16145833333333)"/></g><path d="M0 402a6 6 0 0 1 6-6h496.8a6 6 0 0 1 6 6v68a6 6 0 0 1-6 6H6a6 6 0 0 1-6-6z" stroke="#000" stroke-opacity="0" stroke-width="3" fill="#fff" fill-opacity="0"/><g><use xlink:href="#x" transform="matrix(1,0,0,1,5.000000000000028,401) translate(0 19.555555555555554)"/><use xlink:href="#y" transform="matrix(1,0,0,1,5.000000000000028,401) translate(21.72839506172839 19.555555555555554)"/><use xlink:href="#z" transform="matrix(1,0,0,1,5.000000000000028,401) translate(116.5864197530864 19.555555555555554)"/><use xlink:href="#A" transform="matrix(1,0,0,1,5.000000000000028,401) translate(143.74691358024688 19.555555555555554)"/><use xlink:href="#B" transform="matrix(1,0,0,1,5.000000000000028,401) translate(164.11728395061726 19.555555555555554)"/><use xlink:href="#C" transform="matrix(1,0,0,1,5.000000000000028,401) translate(249.537037037037 19.555555555555554)"/><use xlink:href="#D" transform="matrix(1,0,0,1,5.000000000000028,401) translate(366.19135802469134 19.555555555555554)"/><use xlink:href="#E" transform="matrix(1,0,0,1,5.000000000000028,401) translate(0 48.888888888888886)"/><use xlink:href="#F" transform="matrix(1,0,0,1,5.000000000000028,401) translate(109.86419753086417 48.888888888888886)"/><use xlink:href="#G" transform="matrix(1,0,0,1,5.000000000000028,401) translate(204.79012345679007 48.888888888888886)"/><use xlink:href="#H" transform="matrix(1,0,0,1,5.000000000000028,401) translate(267.1913580246913 48.888888888888886)"/><use xlink:href="#A" transform="matrix(1,0,0,1,5.000000000000028,401) translate(349.8271604938271 48.888888888888886)"/><use xlink:href="#I" transform="matrix(1,0,0,1,5.000000000000028,401) translate(370.19753086419746 48.888888888888886)"/><use xlink:href="#A" transform="matrix(1,0,0,1,5.000000000000028,401) translate(0 78.22222222222221)"/><use xlink:href="#J" transform="matrix(1,0,0,1,5.000000000000028,401) translate(20.370370370370367 78.22222222222221)"/><use xlink:href="#K" transform="matrix(1,0,0,1,5.000000000000028,401) translate(120.66049382716048 78.22222222222221)"/><use xlink:href="#A" transform="matrix(1,0,0,1,5.000000000000028,401) translate(168.19135802469134 78.22222222222221)"/><use xlink:href="#L" transform="matrix(1,0,0,1,5.000000000000028,401) translate(188.56172839506172 78.22222222222221)"/></g><defs><path fill="#333" d="M371-429L244-141c-9 21-3 36 16 45s54 16 104 23l-9 73H-50l10-73c71-17 125-16 148-68l468-1064c61-50 141-86 225-112l227 1176c8 50 51 60 105 68l-9 73H663l10-73c48-3 82-10 101-20s26-26 22-48l-54-288H371zm348-121l-90-472-205 472h295" id="M"/><use transform="matrix(0.013020833333333332,0,0,0.013020833333333332,0,0)" xlink:href="#M" id="a"/><path fill="#333" d="M51-54c-9 22 5 41 31 30L79-1C43 14 10-4 19-52l22-115H19l5-23h22l19-43h21l-9 43h35l-4 23H73" id="N"/><path fill="#333" d="M67-158c15-20 31-36 64-36 94 0 33 127 27 194h-32l25-140c3-38-53-32-70-12C52-117 51-51 37 0H6l51-261h31" id="O"/><path fill="#333" d="M111-194c62-3 86 47 72 106H45c-7 38 6 69 45 68 27-1 43-14 53-32l24 11C152-15 129 4 87 4 38 3 12-23 12-71c0-70 32-119 99-123zm44 81c14-66-71-72-95-28-4 8-8 17-11 28h106" id="P"/><g id="b"><use transform="matrix(0.07407407407407407,0,0,0.07407407407407407,0,0)" xlink:href="#N"/><use transform="matrix(0.07407407407407407,0,0,0.07407407407407407,7.4074074074074066,0)" xlink:href="#O"/><use transform="matrix(0.07407407407407407,0,0,0.07407407407407407,22.22222222222222,0)" xlink:href="#P"/></g><path fill="#333" d="M133-28C103 26-5 8 13-77c13-62 24-115 90-117 29-1 46 15 56 35l19-102h32L160 0h-30zM45-64c-2 27 10 43 35 43 54-1 69-50 69-103 0-29-15-46-42-46-53-1-58 58-62 106" id="Q"/><path fill="#333" d="M76-167L44 0H12l33-167H18l4-23h27c3-47 25-81 82-69l-4 24c-35-8-44 15-46 45h37l-5 23H76" id="R"/><path fill="#333" d="M67-158c22-48 132-52 116 29L158 0h-32l25-140c3-38-53-32-70-12C52-117 51-52 38 0H6l36-190h30" id="S"/><path fill="#333" d="M165-48c-4 18 1 34 23 27l-3 20c-29 8-62 0-52-35h-2C116-14 99 4 63 4 30 4 8-16 8-49c0-68 71-67 138-67 10-26 0-56-31-54-26 1-42 9-47 31l-32-5c8-67 160-71 144 15-5 28-9 54-15 81zM42-50c3 52 80 24 89-6 7-12 7-24 11-38-47 1-103-4-100 44" id="T"/><g id="c"><use transform="matrix(0.07407407407407407,0,0,0.07407407407407407,0,0)" xlink:href="#Q"/><use transform="matrix(0.07407407407407407,0,0,0.07407407407407407,14.814814814814813,0)" xlink:href="#P"/><use transform="matrix(0.07407407407407407,0,0,0.07407407407407407,29.629629629629626,0)" xlink:href="#R"/><use transform="matrix(0.07407407407407407,0,0,0.07407407407407407,37.03703703703703,0)" xlink:href="#P"/><use transform="matrix(0.07407407407407407,0,0,0.07407407407407407,51.85185185185185,0)" xlink:href="#S"/><use transform="matrix(0.07407407407407407,0,0,0.07407407407407407,66.66666666666666,0)" xlink:href="#Q"/><use transform="matrix(0.07407407407407407,0,0,0.07407407407407407,81.48148148148147,0)" xlink:href="#T"/><use transform="matrix(0.07407407407407407,0,0,0.07407407407407407,96.29629629629628,0)" xlink:href="#S"/><use transform="matrix(0.07407407407407407,0,0,0.07407407407407407,111.11111111111109,0)" xlink:href="#N"/></g><path fill="#333" d="M50-231l6-30h32l-6 30H50zM6 0l37-190h31L37 0H6" id="U"/><path fill="#333" d="M55-144c13 50 104 24 104 88C159 21 15 23 1-39l26-10c6 40 102 42 102-4-13-50-104-23-104-87 0-71 143-71 148-8l-29 4c-5-35-85-37-89 0" id="V"/><g id="d"><use transform="matrix(0.07407407407407407,0,0,0.07407407407407407,0,0)" xlink:href="#U"/><use transform="matrix(0.07407407407407407,0,0,0.07407407407407407,5.851851851851851,0)" xlink:href="#V"/></g><path fill="#333" d="M103-194c29 0 47 14 56 36 2-11 5-23 8-32h30L160-5C157 61 82 97 21 62 9 55 4 45 1 30l28-7c7 42 83 31 92-3 4-16 9-38 13-55-13 20-29 36-62 36-40 0-60-25-60-64 0-71 23-131 91-131zm4 24c-53 0-58 54-61 104-2 27 10 44 36 44 49 0 65-50 67-102 1-29-15-46-42-46" id="W"/><path fill="#333" d="M67 3c-93-2-31-127-26-193h32L48-50c-3 39 53 32 70 12 30-34 30-101 43-152h32L157 0h-30c1-10 6-24 4-33-14 20-29 37-64 36" id="X"/><path fill="#333" d="M6 0l50-261h32L37 0H6" id="Y"/><path fill="#333" d="M198-190L69 30C53 58 25 83-20 72c4-11-1-27 19-22 33-1 43-29 59-52L20-190h32L79-34l84-156h35" id="Z"/><g id="e"><use transform="matrix(0.07407407407407407,0,0,0.07407407407407407,0,0)" xlink:href="#W"/><use transform="matrix(0.07407407407407407,0,0,0.07407407407407407,14.814814814814813,0)" xlink:href="#X"/><use transform="matrix(0.07407407407407407,0,0,0.07407407407407407,29.629629629629626,0)" xlink:href="#U"/><use transform="matrix(0.07407407407407407,0,0,0.07407407407407407,35.48148148148148,0)" xlink:href="#Y"/><use transform="matrix(0.07407407407407407,0,0,0.07407407407407407,41.33333333333333,0)" xlink:href="#N"/><use transform="matrix(0.07407407407407407,0,0,0.07407407407407407,48.740740740740726,0)" xlink:href="#Z"/></g><path fill="#333" d="M14 0l8-38h34L48 0H14" id="aa"/><g id="g"><use transform="matrix(0.07407407407407407,0,0,0.07407407407407407,0,0)" xlink:href="#aa"/><use transform="matrix(0.07407407407407407,0,0,0.07407407407407407,7.4074074074074066,0)" xlink:href="#aa"/><use transform="matrix(0.07407407407407407,0,0,0.07407407407407407,14.814814814814813,0)" xlink:href="#aa"/><use transform="matrix(0.07407407407407407,0,0,0.07407407407407407,22.22222222222222,0)" xlink:href="#T"/><use transform="matrix(0.07407407407407407,0,0,0.07407407407407407,37.03703703703704,0)" xlink:href="#S"/><use transform="matrix(0.07407407407407407,0,0,0.07407407407407407,51.85185185185185,0)" xlink:href="#Q"/></g><g id="h"><use transform="matrix(0.07407407407407407,0,0,0.07407407407407407,0,0)" xlink:href="#N"/><use transform="matrix(0.07407407407407407,0,0,0.07407407407407407,7.4074074074074066,0)" xlink:href="#O"/><use transform="matrix(0.07407407407407407,0,0,0.07407407407407407,22.22222222222222,0)" xlink:href="#U"/><use transform="matrix(0.07407407407407407,0,0,0.07407407407407407,28.074074074074073,0)" xlink:href="#V"/></g><g id="i"><use transform="matrix(0.07407407407407407,0,0,0.07407407407407407,0,0)" xlink:href="#U"/><use transform="matrix(0.07407407407407407,0,0,0.07407407407407407,5.851851851851851,0)" xlink:href="#V"/></g><use transform="matrix(0.07407407407407407,0,0,0.07407407407407407,0,0)" xlink:href="#T" id="j"/><path fill="#333" d="M30-147c31-64 166-65 159 27C183-49 158 1 86 4 9 8 1-88 30-147zM88-20c53 0 68-48 68-100 0-31-11-51-44-50-52 1-68 46-68 97 0 32 13 53 44 53" id="ab"/><g id="k"><use transform="matrix(0.07407407407407407,0,0,0.07407407407407407,0,0)" xlink:href="#W"/><use transform="matrix(0.07407407407407407,0,0,0.07407407407407407,14.814814814814813,0)" xlink:href="#ab"/><use transform="matrix(0.07407407407407407,0,0,0.07407407407407407,29.629629629629626,0)" xlink:href="#ab"/><use transform="matrix(0.07407407407407407,0,0,0.07407407407407407,44.44444444444444,0)" xlink:href="#Q"/></g><path fill="#333" d="M66-151c12-25 30-51 66-40l-6 26C45-176 58-65 38 0H6l36-190h30" id="ac"/><g id="l"><use transform="matrix(0.07407407407407407,0,0,0.07407407407407407,0,0)" xlink:href="#ac"/><use transform="matrix(0.07407407407407407,0,0,0.07407407407407407,8.814814814814815,0)" xlink:href="#P"/><use transform="matrix(0.07407407407407407,0,0,0.07407407407407407,23.629629629629623,0)" xlink:href="#T"/><use transform="matrix(0.07407407407407407,0,0,0.07407407407407407,38.44444444444444,0)" xlink:href="#V"/><use transform="matrix(0.07407407407407407,0,0,0.07407407407407407,51.77777777777777,0)" xlink:href="#ab"/><use transform="matrix(0.07407407407407407,0,0,0.07407407407407407,66.59259259259258,0)" xlink:href="#S"/></g><g id="m"><use transform="matrix(0.07407407407407407,0,0,0.07407407407407407,0,0)" xlink:href="#N"/><use transform="matrix(0.07407407407407407,0,0,0.07407407407407407,7.4074074074074066,0)" xlink:href="#ab"/></g><path fill="#333" d="M44-68c0 29 11 47 38 47 30 0 42-19 51-41l28 9C148-21 126 4 82 4 31 4 10-29 12-85c3-77 74-140 146-93 12 8 15 23 18 40l-31 5c-1-22-13-36-36-36-52 0-65 49-65 101" id="ad"/><path fill="#333" d="M67-162c32-53 139-36 121 50C175-51 163 2 97 4 68 4 52-11 42-31 38 6 28 39 22 75H-9l50-265h29c-1 10 0 20-3 28zm89 36c0-26-10-43-35-43-54 0-67 50-69 103-1 29 14 45 42 46 53 0 62-58 62-106" id="ae"/><g id="n"><use transform="matrix(0.07407407407407407,0,0,0.07407407407407407,0,0)" xlink:href="#T"/><use transform="matrix(0.07407407407407407,0,0,0.07407407407407407,14.814814814814813,0)" xlink:href="#ad"/><use transform="matrix(0.07407407407407407,0,0,0.07407407407407407,28.148148148148145,0)" xlink:href="#ad"/><use transform="matrix(0.07407407407407407,0,0,0.07407407407407407,41.48148148148148,0)" xlink:href="#P"/><use transform="matrix(0.07407407407407407,0,0,0.07407407407407407,56.29629629629629,0)" xlink:href="#ae"/><use transform="matrix(0.07407407407407407,0,0,0.07407407407407407,71.1111111111111,0)" xlink:href="#N"/></g><path fill="#333" d="M187 0l-14-72H61L19 0h-37l149-248h38L221 0h-34zm-19-99l-22-123L76-99h92" id="af"/><use transform="matrix(0.07407407407407407,0,0,0.07407407407407407,0,0)" xlink:href="#af" id="o"/><path fill="#333" d="M537-100c135-1 177-67 264-131l39 41C769-107 717-50 634-4c-84 47-221 46-312 2C175-75 80-225 80-444c0-244 136-395 309-476 134-63 354-48 436 39-1 63-33 121-57 164l-37-10c-42-97-207-161-333-99-111 55-168 180-168 351 0 172 77 291 192 349 37 18 75 26 115 26" id="ag"/><path fill="#333" d="M524-80c208-5 271-163 271-375 0-169-81-295-186-363-34-22-69-32-103-32-210 4-271 165-271 377 0 169 87 292 192 361 33 22 66 32 97 32zm182-844c181 81 290 312 227 570C890-178 778-47 614 10 446 69 274-10 194-105 108-206 49-397 96-574c47-176 153-307 318-366 94-34 208-22 292 16" id="ah"/><path fill="#333" d="M650-940c160-62 310 29 310 199v637c0 9 10 19 30 28s57 20 110 33V0H670v-43c48-13 83-24 106-33s34-19 34-28v-529c0-115-12-206-128-197-113 9-175 79-242 150-33 35-63 79-95 131v445c0 10 12 20 37 31s60 21 103 30V0H55v-43c44-11 78-22 103-31s37-19 37-30c-2-222 10-452-3-669-4-63-69-56-137-67v-40c94-15 166-44 240-80l35 35 11 249c76-114 178-213 309-264" id="ai"/><path fill="#333" d="M70-1470c101-21 173-37 254-80l36 34v1412c0 10 11 20 34 31s61 21 116 30V0H60v-43c58-11 108-17 142-45 6-5 8-11 8-16v-1192c1-74-10-115-71-124-18-3-41-7-69-10v-40" id="aj"/><path fill="#333" d="M625-894c93-10 183-41 260-66l30 39c3 254-10 522 5 768 3 45 10 60 59 53 19-3 46-12 80-27l10 45C999-41 935 10 850 30c-23 0-42-15-57-46s-24-81-28-150C662-71 581 30 408 30 229 30 171-92 170-279c-1-167 6-345-3-507-4-64-60-59-126-68v-40c97-10 173-35 251-66l28 39v587c2 135 23 244 153 244 143 0 210-92 292-172-2-172 9-357-5-521-6-63-63-67-135-71v-40" id="ak"/><path fill="#333" d="M476-842c-113-77-312 26-223 150 100 139 343 151 425 312 15 28 22 60 22 97C696-70 560 30 356 30c-91 0-181-34-250-73-23-59-6-180 7-240l43 11C172-142 267-70 406-70c100 0 164-57 164-157 0-138-150-165-248-222-99-58-218-104-218-251 0-171 126-260 297-260 104 0 202 29 263 77 8 53-30 112-50 150l-39-8c-32-48-67-79-99-101" id="al"/><path fill="#333" d="M70-880c91-18 181-45 256-80h34v856c0 8 12 18 34 30s57 22 106 31V0H70v-43c45-9 80-20 104-31s36-21 36-30c-1-215 4-437-2-648-2-76-60-79-138-88v-40zm120-340c0-77 41-136 115-136 57 0 85 32 85 95 0 77-41 133-116 137-61 3-84-36-84-96" id="am"/><g id="q"><use transform="matrix(0.011935763888888888,0,0,0.011935763888888888,0,0)" xlink:href="#ag"/><use transform="matrix(0.011935763888888888,0,0,0.011935763888888888,10.682508680555555,0)" xlink:href="#ah"/><use transform="matrix(0.011935763888888888,0,0,0.011935763888888888,22.97634548611111,0)" xlink:href="#ai"/><use transform="matrix(0.011935763888888888,0,0,0.011935763888888888,36.46375868055556,0)" xlink:href="#ag"/><use transform="matrix(0.011935763888888888,0,0,0.011935763888888888,47.146267361111114,0)" xlink:href="#aj"/><use transform="matrix(0.011935763888888888,0,0,0.011935763888888888,53.77061631944445,0)" xlink:href="#ak"/><use transform="matrix(0.011935763888888888,0,0,0.011935763888888888,66.72092013888889,0)" xlink:href="#al"/><use transform="matrix(0.011935763888888888,0,0,0.011935763888888888,76.162109375,0)" xlink:href="#am"/><use transform="matrix(0.011935763888888888,0,0,0.011935763888888888,82.78645833333333,0)" xlink:href="#ah"/><use transform="matrix(0.011935763888888888,0,0,0.011935763888888888,95.08029513888889,0)" xlink:href="#ai"/></g><path fill="#333" d="M621-100c178 0 249-140 249-326 0-169-55-307-154-378-113-81-221 20-285 86-28 29-57 65-86 108v397c80 57 151 113 276 113zM55-880c89-19 167-45 240-80l35 35 9 198c79-93 166-176 283-219 127-47 238 29 294 110 71 103 116 296 74 463C948-205 861-59 719 8 577 76 437-21 345-98v473c0 11 12 21 37 32s69 21 132 30v43H55v-43c44-11 78-21 103-31s37-20 37-31V-711c2-68-10-110-65-121-18-4-43-7-75-8v-40" id="an"/><path fill="#333" d="M55-880c84-23 173-41 240-80l35 35 13 227c49-98 107-192 201-242 70-37 169-17 226 17 24 78-21 183-43 247h-43c-6-91-72-186-162-126-91 61-140 179-177 306v392c0 10 12 20 37 31s69 21 132 30V0H55v-43c44-10 78-19 103-29s37-21 37-32c-1-212-2-429-2-638 0-85-55-98-138-98v-40" id="ao"/><path fill="#333" d="M702-616c0-134-64-239-206-239-165 0-232 127-260 275h428c31-1 38-6 38-36zm158 421C745-83 676 34 465 30 275 26 169-94 112-242c-53-136-32-337 26-447 68-129 169-238 330-265 260-43 390 140 398 397-25 28-71 51-110 67H230c4 167 66 294 174 358 36 21 77 32 122 32 145-2 206-68 297-136 15 7 29 29 37 41" id="ap"/><path fill="#333" d="M1253-960c142 3 222 76 222 219v637c0 9 10 19 31 28s57 20 110 33V0h-430v-43c48-13 84-24 106-33s33-19 33-28v-529c-3-110-5-214-113-207s-164 86-224 156c-27 32-53 70-78 111v469c0 9 10 19 31 28s57 20 110 33V0H621v-43c48-13 83-24 105-33s34-19 34-28v-529c-2-111-4-208-113-207-45 0-93 23-143 70S402-658 345-573v469c0 10 12 20 37 31s60 21 103 30V0H55v-43c44-11 78-22 103-31s37-19 37-30c-2-223 12-454-3-670-4-60-71-54-137-66v-40c94-15 168-44 240-80l35 35 11 229c73-105 152-197 269-248 28-12 54-16 78-16 159-1 228 90 222 256 70-102 150-191 264-240 28-12 54-16 79-16" id="aq"/><g id="r"><use transform="matrix(0.011935763888888888,0,0,0.011935763888888888,0,0)" xlink:href="#an"/><use transform="matrix(0.011935763888888888,0,0,0.011935763888888888,12.950303819444443,0)" xlink:href="#ao"/><use transform="matrix(0.011935763888888888,0,0,0.011935763888888888,22.63020833333333,0)" xlink:href="#ap"/><use transform="matrix(0.011935763888888888,0,0,0.011935763888888888,33.921440972222214,0)" xlink:href="#aq"/><use transform="matrix(0.011935763888888888,0,0,0.011935763888888888,53.55577256944444,0)" xlink:href="#am"/><use transform="matrix(0.011935763888888888,0,0,0.011935763888888888,60.18012152777777,0)" xlink:href="#al"/><use transform="matrix(0.011935763888888888,0,0,0.011935763888888888,69.62131076388889,0)" xlink:href="#ap"/></g><path fill="#333" d="M1425-887c-48 13-87 16-100 62L1104-59c-18 55-80 74-137 89L729-648 524-59c-19 53-75 76-133 89L129-825c-6-26-42-47-109-62v-43h386v43c-51 6-86 10-115 27-14 9-15 18-10 35l188 635 246-740h69l260 740 173-635c4-15-3-28-21-37s-50-18-96-25v-43h325v43" id="ar"/><path fill="#333" d="M244-229c1 78 37 129 108 129 118 0 190-59 271-127v-259c-164 29-303 49-363 176-11 23-16 50-16 81zm569 129c39-3 57-10 98-27l15 45C843-27 790 30 702 30c-22 0-40-15-55-46s-23-73-24-127C535-60 444 30 293 30 162 30 80-49 80-186c0-134 64-205 144-260 102-70 238-90 399-115v-141c0-108-55-164-168-158-89 5-163 44-163 136-28 38-109 56-170 57l-14-39c57-113 176-191 306-233 45-14 88-21 130-21 142-2 229 79 229 218v564c0 44 7 73 40 78" id="as"/><path fill="#333" d="M428-100c87 0 139-28 219-68l29 51C580-51 484 30 344 30 211 30 170-79 170-221v-614H41l-21-28 78-67h72v-246l119-104 31 25v325h327l29 29c-27 38-61 78-101 101-58-29-154-39-255-35v528c2 109 2 207 108 207" id="at"/><g id="s"><use transform="matrix(0.011935763888888888,0,0,0.011935763888888888,0,0)" xlink:href="#ar"/><use transform="matrix(0.011935763888888888,0,0,0.011935763888888888,17.259114583333332,0)" xlink:href="#as"/><use transform="matrix(0.011935763888888888,0,0,0.011935763888888888,28.478732638888886,0)" xlink:href="#ao"/><use transform="matrix(0.011935763888888888,0,0,0.011935763888888888,38.15863715277777,0)" xlink:href="#ao"/><use transform="matrix(0.011935763888888888,0,0,0.011935763888888888,47.83854166666666,0)" xlink:href="#as"/><use transform="matrix(0.011935763888888888,0,0,0.011935763888888888,59.05815972222222,0)" xlink:href="#ai"/><use transform="matrix(0.011935763888888888,0,0,0.011935763888888888,72.54557291666666,0)" xlink:href="#at"/></g><path fill="#333" d="M767-723c156 29 257 137 257 313 0 227-148 347-325 408C487 71 231 0-8 0l6-73c43-9 75-20 98-31s35-21 36-30l144-1034c-52 6-96 15-142 25v-84c267-72 884-155 884 187 0 166-112 268-251 317zm11 348c6-201-139-298-346-246l-68 487c4 29 57 39 88 45 213 35 320-90 326-286zm-6-612c0-148-105-208-262-196l-62 443c188 2 324-65 324-247" id="au"/><use transform="matrix(0.013020833333333332,0,0,0.013020833333333332,0,0)" xlink:href="#au" id="t"/><g id="u"><use transform="matrix(0.07407407407407407,0,0,0.07407407407407407,0,0)" xlink:href="#N"/><use transform="matrix(0.07407407407407407,0,0,0.07407407407407407,7.4074074074074066,0)" xlink:href="#O"/><use transform="matrix(0.07407407407407407,0,0,0.07407407407407407,22.22222222222222,0)" xlink:href="#P"/></g><g id="v"><use transform="matrix(0.07407407407407407,0,0,0.07407407407407407,0,0)" xlink:href="#Q"/><use transform="matrix(0.07407407407407407,0,0,0.07407407407407407,14.814814814814813,0)" xlink:href="#P"/><use transform="matrix(0.07407407407407407,0,0,0.07407407407407407,29.629629629629626,0)" xlink:href="#R"/><use transform="matrix(0.07407407407407407,0,0,0.07407407407407407,37.03703703703703,0)" xlink:href="#P"/><use transform="matrix(0.07407407407407407,0,0,0.07407407407407407,51.85185185185185,0)" xlink:href="#S"/><use transform="matrix(0.07407407407407407,0,0,0.07407407407407407,66.66666666666666,0)" xlink:href="#Q"/><use transform="matrix(0.07407407407407407,0,0,0.07407407407407407,81.48148148148147,0)" xlink:href="#T"/><use transform="matrix(0.07407407407407407,0,0,0.07407407407407407,96.29629629629628,0)" xlink:href="#S"/><use transform="matrix(0.07407407407407407,0,0,0.07407407407407407,111.11111111111109,0)" xlink:href="#N"/></g><g id="w"><use transform="matrix(0.07407407407407407,0,0,0.07407407407407407,0,0)" xlink:href="#ad"/><use transform="matrix(0.07407407407407407,0,0,0.07407407407407407,13.333333333333332,0)" xlink:href="#ab"/><use transform="matrix(0.07407407407407407,0,0,0.07407407407407407,28.148148148148145,0)" xlink:href="#S"/><use transform="matrix(0.07407407407407407,0,0,0.07407407407407407,42.96296296296296,0)" xlink:href="#R"/><use transform="matrix(0.07407407407407407,0,0,0.07407407407407407,50.37037037037037,0)" xlink:href="#P"/><use transform="matrix(0.07407407407407407,0,0,0.07407407407407407,65.18518518518518,0)" xlink:href="#V"/><use transform="matrix(0.07407407407407407,0,0,0.07407407407407407,78.51851851851849,0)" xlink:href="#V"/><use transform="matrix(0.07407407407407407,0,0,0.07407407407407407,91.85185185185183,0)" xlink:href="#P"/><use transform="matrix(0.07407407407407407,0,0,0.07407407407407407,106.66666666666664,0)" xlink:href="#Q"/></g><path fill="#333" d="M205 0l-28-72H64L36 0H1l101-248h38L239 0h-34zm-38-99l-47-123c-12 45-31 82-46 123h93" id="av"/><use transform="matrix(0.06790123456790122,0,0,0.06790123456790122,0,0)" xlink:href="#av" id="x"/><path fill="#333" d="M85-194c31 0 48 13 60 33l-1-100h32l1 261h-30c-2-10 0-23-3-31C134-8 116 4 85 4 32 4 16-35 15-94c0-66 23-100 70-100zm9 24c-40 0-46 34-46 75 0 40 6 74 45 74 42 0 51-32 51-76 0-42-9-74-50-73" id="aw"/><path fill="#333" d="M24-231v-30h32v30H24zM24 0v-190h32V0H24" id="ax"/><path fill="#333" d="M141-36C126-15 110 5 73 4 37 3 15-17 15-53c-1-64 63-63 125-63 3-35-9-54-41-54-24 1-41 7-42 31l-33-3c5-37 33-52 76-52 45 0 72 20 72 64v82c-1 20 7 32 28 27v20c-31 9-61-2-59-35zM48-53c0 20 12 33 32 33 41-3 63-29 60-74-43 2-92-5-92 41" id="ay"/><path fill="#333" d="M177-190C167-65 218 103 67 71c-23-6-38-20-44-43l32-5c15 47 100 32 89-28v-30C133-14 115 1 83 1 29 1 15-40 15-95c0-56 16-97 71-98 29-1 48 16 59 35 1-10 0-23 2-32h30zM94-22c36 0 50-32 50-73 0-42-14-75-50-75-39 0-46 34-46 75s6 73 46 73" id="az"/><path fill="#333" d="M114-163C36-179 61-72 57 0H25l-1-190h30c1 12-1 29 2 39 6-27 23-49 58-41v29" id="aA"/><path fill="#333" d="M210-169c-67 3-38 105-44 169h-31v-121c0-29-5-50-35-48C34-165 62-65 56 0H25l-1-190h30c1 10-1 24 2 32 10-44 99-50 107 0 11-21 27-35 58-36 85-2 47 119 55 194h-31v-121c0-29-5-49-35-48" id="aB"/><g id="y"><use transform="matrix(0.06790123456790122,0,0,0.06790123456790122,0,0)" xlink:href="#aw"/><use transform="matrix(0.06790123456790122,0,0,0.06790123456790122,13.580246913580243,0)" xlink:href="#ax"/><use transform="matrix(0.06790123456790122,0,0,0.06790123456790122,18.94444444444444,0)" xlink:href="#ay"/><use transform="matrix(0.06790123456790122,0,0,0.06790123456790122,32.52469135802468,0)" xlink:href="#az"/><use transform="matrix(0.06790123456790122,0,0,0.06790123456790122,46.104938271604915,0)" xlink:href="#aA"/><use transform="matrix(0.06790123456790122,0,0,0.06790123456790122,54.18518518518517,0)" xlink:href="#ay"/><use transform="matrix(0.06790123456790122,0,0,0.06790123456790122,67.76543209876542,0)" xlink:href="#aB"/></g><path fill="#333" d="M100-194c62-1 85 37 85 99 1 63-27 99-86 99S16-35 15-95c0-66 28-99 85-99zM99-20c44 1 53-31 53-75 0-43-8-75-51-75s-53 32-53 75 10 74 51 75" id="aC"/><path fill="#333" d="M101-234c-31-9-42 10-38 44h38v23H63V0H32v-167H5v-23h27c-7-52 17-82 69-68v24" id="aD"/><g id="z"><use transform="matrix(0.06790123456790122,0,0,0.06790123456790122,0,0)" xlink:href="#aC"/><use transform="matrix(0.06790123456790122,0,0,0.06790123456790122,13.580246913580243,0)" xlink:href="#aD"/></g><use transform="matrix(0.06790123456790122,0,0,0.06790123456790122,0,0)" xlink:href="#ay" id="A"/><path fill="#333" d="M135-143c-3-34-86-38-87 0 15 53 115 12 119 90S17 21 10-45l28-5c4 36 97 45 98 0-10-56-113-15-118-90-4-57 82-63 122-42 12 7 21 19 24 35" id="aE"/><path fill="#333" d="M115-194c55 1 70 41 70 98S169 2 115 4C84 4 66-9 55-30l1 105H24l-1-265h31l2 30c10-21 28-34 59-34zm-8 174c40 0 45-34 45-75s-6-73-45-74c-42 0-51 32-51 76 0 43 10 73 51 73" id="aF"/><path fill="#333" d="M24 0v-261h32V0H24" id="aG"/><path fill="#333" d="M100-194c63 0 86 42 84 106H49c0 40 14 67 53 68 26 1 43-12 49-29l28 8c-11 28-37 45-77 45C44 4 14-33 15-96c1-61 26-98 85-98zm52 81c6-60-76-77-97-28-3 7-6 17-6 28h103" id="aH"/><g id="B"><use transform="matrix(0.06790123456790122,0,0,0.06790123456790122,0,0)" xlink:href="#aE"/><use transform="matrix(0.06790123456790122,0,0,0.06790123456790122,12.22222222222222,0)" xlink:href="#ay"/><use transform="matrix(0.06790123456790122,0,0,0.06790123456790122,25.80246913580246,0)" xlink:href="#aB"/><use transform="matrix(0.06790123456790122,0,0,0.06790123456790122,46.104938271604915,0)" xlink:href="#aF"/><use transform="matrix(0.06790123456790122,0,0,0.06790123456790122,59.68518518518516,0)" xlink:href="#aG"/><use transform="matrix(0.06790123456790122,0,0,0.06790123456790122,65.04938271604937,0)" xlink:href="#aH"/></g><path fill="#333" d="M84 4C-5 8 30-112 23-190h32v120c0 31 7 50 39 49 72-2 45-101 50-169h31l1 190h-30c-1-10 1-25-2-33-11 22-28 36-60 37" id="aI"/><path fill="#333" d="M117-194c89-4 53 116 60 194h-32v-121c0-31-8-49-39-48C34-167 62-67 57 0H25l-1-190h30c1 10-1 24 2 32 11-22 29-35 61-36" id="aJ"/><path fill="#333" d="M59-47c-2 24 18 29 38 22v24C64 9 27 4 27-40v-127H5v-23h24l9-43h21v43h35v23H59v120" id="aK"/><path fill="#333" d="M33 0v-38h34V0H33" id="aL"/><g id="C"><use transform="matrix(0.06790123456790122,0,0,0.06790123456790122,0,0)" xlink:href="#ay"/><use transform="matrix(0.06790123456790122,0,0,0.06790123456790122,13.580246913580243,0)" xlink:href="#aA"/><use transform="matrix(0.06790123456790122,0,0,0.06790123456790122,21.660493827160487,0)" xlink:href="#az"/><use transform="matrix(0.06790123456790122,0,0,0.06790123456790122,35.24074074074073,0)" xlink:href="#aI"/><use transform="matrix(0.06790123456790122,0,0,0.06790123456790122,48.82098765432097,0)" xlink:href="#aB"/><use transform="matrix(0.06790123456790122,0,0,0.06790123456790122,69.12345679012344,0)" xlink:href="#aH"/><use transform="matrix(0.06790123456790122,0,0,0.06790123456790122,82.70370370370368,0)" xlink:href="#aJ"/><use transform="matrix(0.06790123456790122,0,0,0.06790123456790122,96.28395061728392,0)" xlink:href="#aK"/><use transform="matrix(0.06790123456790122,0,0,0.06790123456790122,103.07407407407405,0)" xlink:href="#aL"/></g><path fill="#333" d="M30 0v-248h187v28H63v79h144v27H63v87h162V0H30" id="aM"/><path fill="#333" d="M96-169c-40 0-48 33-48 73s9 75 48 75c24 0 41-14 43-38l32 2c-6 37-31 61-74 61-59 0-76-41-82-99-10-93 101-131 147-64 4 7 5 14 7 22l-32 3c-4-21-16-35-41-35" id="aN"/><path fill="#333" d="M106-169C34-169 62-67 57 0H25v-261h32l-1 103c12-21 28-36 61-36 89 0 53 116 60 194h-32v-121c2-32-8-49-39-48" id="aO"/><g id="D"><use transform="matrix(0.06790123456790122,0,0,0.06790123456790122,0,0)" xlink:href="#aM"/><use transform="matrix(0.06790123456790122,0,0,0.06790123456790122,16.29629629629629,0)" xlink:href="#ay"/><use transform="matrix(0.06790123456790122,0,0,0.06790123456790122,29.876543209876534,0)" xlink:href="#aN"/><use transform="matrix(0.06790123456790122,0,0,0.06790123456790122,42.09876543209875,0)" xlink:href="#aO"/></g><g id="E"><use transform="matrix(0.06790123456790122,0,0,0.06790123456790122,0,0)" xlink:href="#ay"/><use transform="matrix(0.06790123456790122,0,0,0.06790123456790122,13.580246913580243,0)" xlink:href="#aA"/><use transform="matrix(0.06790123456790122,0,0,0.06790123456790122,21.660493827160487,0)" xlink:href="#az"/><use transform="matrix(0.06790123456790122,0,0,0.06790123456790122,35.24074074074073,0)" xlink:href="#aI"/><use transform="matrix(0.06790123456790122,0,0,0.06790123456790122,48.82098765432097,0)" xlink:href="#aB"/><use transform="matrix(0.06790123456790122,0,0,0.06790123456790122,69.12345679012344,0)" xlink:href="#aH"/><use transform="matrix(0.06790123456790122,0,0,0.06790123456790122,82.70370370370368,0)" xlink:href="#aJ"/><use transform="matrix(0.06790123456790122,0,0,0.06790123456790122,96.28395061728392,0)" xlink:href="#aK"/></g><path fill="#333" d="M108 0H70L1-190h34L89-25l56-165h34" id="aP"/><g id="F"><use transform="matrix(0.06790123456790122,0,0,0.06790123456790122,0,0)" xlink:href="#ax"/><use transform="matrix(0.06790123456790122,0,0,0.06790123456790122,5.364197530864196,0)" xlink:href="#aJ"/><use transform="matrix(0.06790123456790122,0,0,0.06790123456790122,18.94444444444444,0)" xlink:href="#aP"/><use transform="matrix(0.06790123456790122,0,0,0.06790123456790122,31.166666666666657,0)" xlink:href="#aC"/><use transform="matrix(0.06790123456790122,0,0,0.06790123456790122,44.7469135802469,0)" xlink:href="#aG"/><use transform="matrix(0.06790123456790122,0,0,0.06790123456790122,50.11111111111109,0)" xlink:href="#aP"/><use transform="matrix(0.06790123456790122,0,0,0.06790123456790122,62.333333333333314,0)" xlink:href="#aH"/><use transform="matrix(0.06790123456790122,0,0,0.06790123456790122,75.91358024691355,0)" xlink:href="#aE"/></g><g id="G"><use transform="matrix(0.06790123456790122,0,0,0.06790123456790122,0,0)" xlink:href="#aK"/><use transform="matrix(0.06790123456790122,0,0,0.06790123456790122,6.790123456790122,0)" xlink:href="#aO"/><use transform="matrix(0.06790123456790122,0,0,0.06790123456790122,20.370370370370367,0)" xlink:href="#aA"/><use transform="matrix(0.06790123456790122,0,0,0.06790123456790122,28.450617283950614,0)" xlink:href="#aH"/><use transform="matrix(0.06790123456790122,0,0,0.06790123456790122,42.03086419753086,0)" xlink:href="#aH"/></g><path fill="#333" d="M33-154v-36h34v36H33zM33 0v-36h34V0H33" id="aQ"/><g id="H"><use transform="matrix(0.06790123456790122,0,0,0.06790123456790122,0,0)" xlink:href="#aN"/><use transform="matrix(0.06790123456790122,0,0,0.06790123456790122,12.22222222222222,0)" xlink:href="#aG"/><use transform="matrix(0.06790123456790122,0,0,0.06790123456790122,17.586419753086417,0)" xlink:href="#ay"/><use transform="matrix(0.06790123456790122,0,0,0.06790123456790122,31.16666666666666,0)" xlink:href="#ax"/><use transform="matrix(0.06790123456790122,0,0,0.06790123456790122,36.53086419753086,0)" xlink:href="#aB"/><use transform="matrix(0.06790123456790122,0,0,0.06790123456790122,56.83333333333333,0)" xlink:href="#aE"/><use transform="matrix(0.06790123456790122,0,0,0.06790123456790122,69.05555555555554,0)" xlink:href="#aQ"/></g><path fill="#333" d="M68-38c1 34 0 65-14 84H32c9-13 17-26 17-46H33v-38h35" id="aR"/><g id="I"><use transform="matrix(0.06790123456790122,0,0,0.06790123456790122,0,0)" xlink:href="#aN"/><use transform="matrix(0.06790123456790122,0,0,0.06790123456790122,12.22222222222222,0)" xlink:href="#aC"/><use transform="matrix(0.06790123456790122,0,0,0.06790123456790122,25.80246913580246,0)" xlink:href="#aJ"/><use transform="matrix(0.06790123456790122,0,0,0.06790123456790122,39.38271604938271,0)" xlink:href="#aN"/><use transform="matrix(0.06790123456790122,0,0,0.06790123456790122,51.60493827160493,0)" xlink:href="#aG"/><use transform="matrix(0.06790123456790122,0,0,0.06790123456790122,56.969135802469125,0)" xlink:href="#aI"/><use transform="matrix(0.06790123456790122,0,0,0.06790123456790122,70.54938271604937,0)" xlink:href="#aE"/><use transform="matrix(0.06790123456790122,0,0,0.06790123456790122,82.77160493827158,0)" xlink:href="#ax"/><use transform="matrix(0.06790123456790122,0,0,0.06790123456790122,88.13580246913577,0)" xlink:href="#aC"/><use transform="matrix(0.06790123456790122,0,0,0.06790123456790122,101.71604938271601,0)" xlink:href="#aJ"/><use transform="matrix(0.06790123456790122,0,0,0.06790123456790122,115.29629629629625,0)" xlink:href="#aR"/></g><g id="J"><use transform="matrix(0.06790123456790122,0,0,0.06790123456790122,0,0)" xlink:href="#aF"/><use transform="matrix(0.06790123456790122,0,0,0.06790123456790122,13.580246913580243,0)" xlink:href="#aA"/><use transform="matrix(0.06790123456790122,0,0,0.06790123456790122,21.660493827160487,0)" xlink:href="#aH"/><use transform="matrix(0.06790123456790122,0,0,0.06790123456790122,35.24074074074073,0)" xlink:href="#aB"/><use transform="matrix(0.06790123456790122,0,0,0.06790123456790122,55.5432098765432,0)" xlink:href="#ax"/><use transform="matrix(0.06790123456790122,0,0,0.06790123456790122,60.9074074074074,0)" xlink:href="#aE"/><use transform="matrix(0.06790123456790122,0,0,0.06790123456790122,73.12962962962962,0)" xlink:href="#aH"/><use transform="matrix(0.06790123456790122,0,0,0.06790123456790122,86.70987654320986,0)" xlink:href="#aR"/></g><g id="K"><use transform="matrix(0.06790123456790122,0,0,0.06790123456790122,0,0)" xlink:href="#ay"/><use transform="matrix(0.06790123456790122,0,0,0.06790123456790122,13.580246913580243,0)" xlink:href="#aJ"/><use transform="matrix(0.06790123456790122,0,0,0.06790123456790122,27.160493827160487,0)" xlink:href="#aw"/></g><path fill="#333" d="M206 0h-36l-40-164L89 0H53L-1-190h32L70-26l43-164h34l41 164 42-164h31" id="aS"/><g id="L"><use transform="matrix(0.06790123456790122,0,0,0.06790123456790122,0,0)" xlink:href="#aS"/><use transform="matrix(0.06790123456790122,0,0,0.06790123456790122,17.586419753086414,0)" xlink:href="#ay"/><use transform="matrix(0.06790123456790122,0,0,0.06790123456790122,31.166666666666657,0)" xlink:href="#aA"/><use transform="matrix(0.06790123456790122,0,0,0.06790123456790122,39.246913580246904,0)" xlink:href="#aA"/><use transform="matrix(0.06790123456790122,0,0,0.06790123456790122,47.32716049382715,0)" xlink:href="#ay"/><use transform="matrix(0.06790123456790122,0,0,0.06790123456790122,60.90740740740739,0)" xlink:href="#aJ"/><use transform="matrix(0.06790123456790122,0,0,0.06790123456790122,74.48765432098763,0)" xlink:href="#aK"/><use transform="matrix(0.06790123456790122,0,0,0.06790123456790122,81.27777777777776,0)" xlink:href="#aL"/></g></defs></g></svg>