<svg xmlns="http://www.w3.org/2000/svg" xmlns:xlink="http://www.w3.org/1999/xlink" xmlns:lucid="lucid" width="579" height="799.85"><g transform="translate(19.000000000000114 12)" lucid:page-tab-id="0_0"><path d="M6 529c0-3.3 2.7-6 6-6h522c3.3 0 6 2.7 6 6v185c0 3.3-2.7 6-6 6H12c-3.3 0-6-2.7-6-6z" stroke="#000" stroke-opacity="0" stroke-width="3" fill="#fff" fill-opacity="0"/><use xlink:href="#a" transform="matrix(1,0,0,1,11,528) translate(0 15.999999999999998)"/><use xlink:href="#b" transform="matrix(1,0,0,1,11,528) translate(17.777777777777775 15.999999999999998)"/><use xlink:href="#c" transform="matrix(1,0,0,1,11,528) translate(97.66666666666664 15.999999999999998)"/><use xlink:href="#d" transform="matrix(1,0,0,1,11,528) translate(187.55555555555554 15.999999999999998)"/><use xlink:href="#e" transform="matrix(1,0,0,1,11,528) translate(249.7222222222222 15.999999999999998)"/><use xlink:href="#f" transform="matrix(1,0,0,1,11,528) translate(271.9444444444444 15.999999999999998)"/><use xlink:href="#g" transform="matrix(1,0,0,1,11,528) translate(308.5555555555555 15.999999999999998)"/><use xlink:href="#h" transform="matrix(1,0,0,1,11,528) translate(365.1666666666666 15.999999999999998)"/><use xlink:href="#i" transform="matrix(1,0,0,1,11,528) translate(396.2222222222221 15.999999999999998)"/><use xlink:href="#j" transform="matrix(1,0,0,1,11,528) translate(0 39.99999999999999)"/><use xlink:href="#k" transform="matrix(1,0,0,1,11,528) translate(83.27777777777776 39.99999999999999)"/><use xlink:href="#l" transform="matrix(1,0,0,1,11,528) translate(143.27777777777774 39.99999999999999)"/><use xlink:href="#m" transform="matrix(1,0,0,1,11,528) translate(172.1111111111111 39.99999999999999)"/><use xlink:href="#n" transform="matrix(1,0,0,1,11,528) translate(205.4444444444444 39.99999999999999)"/><use xlink:href="#o" transform="matrix(1,0,0,1,11,528) translate(245.38888888888886 39.99999999999999)"/><use xlink:href="#p" transform="matrix(1,0,0,1,11,528) translate(307.4444444444444 39.99999999999999)"/><use xlink:href="#q" transform="matrix(1,0,0,1,11,528) translate(329.66666666666663 39.99999999999999)"/><use xlink:href="#r" transform="matrix(1,0,0,1,11,528) translate(378.5555555555555 39.99999999999999)"/><use xlink:href="#s" transform="matrix(1,0,0,1,11,528) translate(0 63.99999999999999)"/><use xlink:href="#t" transform="matrix(1,0,0,1,11,528) translate(67.72222222222221 63.99999999999999)"/><use xlink:href="#m" transform="matrix(1,0,0,1,11,528) translate(108.7222222222222 63.99999999999999)"/><use xlink:href="#u" transform="matrix(1,0,0,1,11,528) translate(142.05555555555554 63.99999999999999)"/><use xlink:href="#v" transform="matrix(1,0,0,1,11,528) translate(241.94444444444443 63.99999999999999)"/><use xlink:href="#w" transform="matrix(1,0,0,1,11,528) translate(263 63.99999999999999)"/><use xlink:href="#x" transform="matrix(1,0,0,1,11,528) translate(296.3333333333333 63.99999999999999)"/><use xlink:href="#y" transform="matrix(1,0,0,1,11,528) translate(358.5 63.99999999999999)"/><use xlink:href="#v" transform="matrix(1,0,0,1,11,528) translate(421.77777777777777 63.99999999999999)"/><use xlink:href="#z" transform="matrix(1,0,0,1,11,528) translate(442.8333333333333 63.99999999999999)"/><use xlink:href="#A" transform="matrix(1,0,0,1,11,528) translate(0 87.99999999999999)"/><use xlink:href="#B" transform="matrix(1,0,0,1,11,528) translate(54.38888888888888 87.99999999999999)"/><use xlink:href="#C" transform="matrix(1,0,0,1,11,528) translate(103.16666666666666 87.99999999999999)"/><use xlink:href="#w" transform="matrix(1,0,0,1,11,528) translate(129.83333333333331 87.99999999999999)"/><use xlink:href="#D" transform="matrix(1,0,0,1,11,528) translate(163.16666666666663 87.99999999999999)"/><use xlink:href="#E" transform="matrix(1,0,0,1,11,528) translate(203.1111111111111 87.99999999999999)"/><use xlink:href="#F" transform="matrix(1,0,0,1,11,528) translate(0 111.99999999999999)"/><use xlink:href="#G" transform="matrix(1,0,0,1,11,528) translate(0 139.42274305555554)"/><use xlink:href="#H" transform="matrix(1,0,0,1,11,528) translate(29.999999999999993 139.42274305555554)"/><use xlink:href="#I" transform="matrix(1,0,0,1,11,528) translate(78.30729166666666 139.42274305555554)"/><use xlink:href="#m" transform="matrix(1,0,0,1,11,528) translate(160.47395833333331 139.42274305555554)"/><use xlink:href="#n" transform="matrix(1,0,0,1,11,528) translate(193.80729166666663 139.42274305555554)"/><use xlink:href="#J" transform="matrix(1,0,0,1,11,528) translate(233.7517361111111 139.42274305555554)"/><use xlink:href="#K" transform="matrix(1,0,0,1,11,528) translate(285.80729166666663 139.42274305555554)"/><use xlink:href="#L" transform="matrix(1,0,0,1,11,528) translate(308.7348090277777 139.42274305555554)"/><use xlink:href="#M" transform="matrix(1,0,0,1,11,528) translate(349.8459201388888 139.42274305555554)"/><use xlink:href="#N" transform="matrix(1,0,0,1,11,528) translate(402.01258680555543 139.42274305555554)"/><use xlink:href="#O" transform="matrix(1,0,0,1,11,528) translate(419.15668402777766 139.42274305555554)"/><use xlink:href="#P" transform="matrix(1,0,0,1,11,528) translate(439.1011284722221 139.42274305555554)"/><use xlink:href="#Q" transform="matrix(1,0,0,1,11,528) translate(0 166.8454861111111)"/><use xlink:href="#p" transform="matrix(1,0,0,1,11,528) translate(76.49999999999999 166.8454861111111)"/><use xlink:href="#R" transform="matrix(1,0,0,1,11,528) translate(98.7222222222222 166.8454861111111)"/><use xlink:href="#S" transform="matrix(1,0,0,1,11,528) translate(135.33333333333331 166.8454861111111)"/><use xlink:href="#T" transform="matrix(1,0,0,1,11,528) translate(212.6111111111111 166.8454861111111)"/><use xlink:href="#H" transform="matrix(1,0,0,1,11,528) translate(318.05555555555554 166.8454861111111)"/><use xlink:href="#U" transform="matrix(1,0,0,1,11,528) translate(366.36284722222223 166.8454861111111)"/><use xlink:href="#V" transform="matrix(1,0,0,1,11,528) translate(408.5295138888889 166.8454861111111)"/><use xlink:href="#W" transform="matrix(1,0,0,1,11,528) translate(489.640625 166.8454861111111)"/><use xlink:href="#S" transform="matrix(1,0,0,1,11,528) translate(0 190.8454861111111)"/><use xlink:href="#X" transform="matrix(1,0,0,1,11,528) translate(77.27777777777776 190.8454861111111)"/><use xlink:href="#F" transform="matrix(1,0,0,1,11,528) translate(0 214.8454861111111)"/><use xlink:href="#Y" transform="matrix(1,0,0,1,11,528) translate(0 238.8454861111111)"/><path d="M74 207.18c0-3.3 2.7-6 6-6h79.95c3.3 0 6 2.7 6 6v33.5c0 3.32-2.7 6-6 6H80c-3.3 0-6-2.68-6-6z" fill="#c1e4f7" fill-opacity=".38"/><path d="M75 207.18c0 .55-.45 1-1 1s-1-.45-1-1 .45-1 1-1 1 .45 1 1zm1.9-4.1c0 .55-.45 1-1 1-.56 0-1-.45-1-1s.44-1 1-1c.55 0 1 .45 1 1zm4.1-1.9c0 .55-.45 1-1 1s-1-.45-1-1 .45-1 1-1 1 .45 1 1zm4 0c0 .55-.45 1-1 1s-1-.45-1-1 .45-1 1-1 1 .45 1 1zm4 0c0 .55-.45 1-1 1-.56 0-1-.45-1-1s.44-1 1-1c.55 0 1 .45 1 1zm4 0c0 .55-.46 1-1 1-.56 0-1-.45-1-1s.44-1 1-1c.54 0 1 .45 1 1zm4 0c0 .55-.46 1-1 1-.56 0-1-.45-1-1s.44-1 1-1c.54 0 1 .45 1 1zm4 0c0 .55-.46 1-1 1-.57 0-1-.45-1-1s.43-1 1-1c.54 0 1 .45 1 1zm3.98 0c0 .55-.44 1-1 1-.55 0-1-.45-1-1s.45-1 1-1c.56 0 1 .45 1 1zm4 0c0 .55-.45 1-1 1s-1-.45-1-1 .45-1 1-1 1 .45 1 1zm4 0c0 .55-.45 1-1 1s-1-.45-1-1 .45-1 1-1 1 .45 1 1zm4 0c0 .55-.45 1-1 1-.56 0-1-.45-1-1s.44-1 1-1c.55 0 1 .45 1 1zm4 0c0 .55-.45 1-1 1-.56 0-1-.45-1-1s.44-1 1-1c.55 0 1 .45 1 1zm4 0c0 .55-.46 1-1 1-.56 0-1-.45-1-1s.44-1 1-1c.54 0 1 .45 1 1zm4 0c0 .55-.46 1-1 1-.56 0-1-.45-1-1s.44-1 1-1c.54 0 1 .45 1 1zm4 0c0 .55-.46 1-1 1-.57 0-1-.45-1-1s.43-1 1-1c.54 0 1 .45 1 1zm3.98 0c0 .55-.44 1-1 1-.55 0-1-.45-1-1s.45-1 1-1c.56 0 1 .45 1 1zm4 0c0 .55-.45 1-1 1s-1-.45-1-1 .45-1 1-1 1 .45 1 1zm4 0c0 .55-.45 1-1 1s-1-.45-1-1 .45-1 1-1 1 .45 1 1zm4 0c0 .55-.45 1-1 1-.56 0-1-.45-1-1s.44-1 1-1c.55 0 1 .45 1 1zm4 0c0 .55-.45 1-1 1-.56 0-1-.45-1-1s.44-1 1-1c.55 0 1 .45 1 1zm4 0c0 .55-.46 1-1 1-.56 0-1-.45-1-1s.44-1 1-1c.54 0 1 .45 1 1zm4 0c0 .55-.46 1-1 1-.56 0-1-.45-1-1s.44-1 1-1c.54 0 1 .45 1 1zm4.1 1.9c0 .55-.46 1-1 1-.56 0-1-.45-1-1s.44-1 1-1c.54 0 1 .45 1 1zm1.9 4.1c0 .55-.46 1-1 1-.56 0-1-.45-1-1s.44-1 1-1c.54 0 1 .45 1 1zm0 4.2c0 .54-.46 1-1 1-.56 0-1-.46-1-1 0-.56.44-1 1-1 .54 0 1 .44 1 1zm0 4.18c0 .55-.46 1-1 1-.56 0-1-.45-1-1 0-.56.44-1 1-1 .54 0 1 .44 1 1zm0 4.18c0 .56-.46 1-1 1-.56 0-1-.44-1-1 0-.55.44-1 1-1 .54 0 1 .45 1 1zm0 4.2c0 .54-.46 1-1 1-.56 0-1-.46-1-1 0-.56.44-1 1-1 .54 0 1 .44 1 1zm0 4.18c0 .55-.46 1-1 1-.56 0-1-.45-1-1s.44-1 1-1c.54 0 1 .45 1 1zm0 4.2c0 .54-.46 1-1 1-.56 0-1-.46-1-1 0-.57.44-1 1-1 .54 0 1 .43 1 1zm0 4.17c0 .55-.46 1-1 1-.56 0-1-.45-1-1 0-.56.44-1 1-1 .54 0 1 .44 1 1zm0 4.18c0 .55-.46 1-1 1-.56 0-1-.45-1-1s.44-1 1-1c.54 0 1 .45 1 1zm-1.9 4.1c0 .56-.46 1-1 1-.56 0-1-.44-1-1 0-.55.44-1 1-1 .54 0 1 .45 1 1zm-4.1 1.9c0 .55-.46 1-1 1-.56 0-1-.45-1-1s.44-1 1-1c.54 0 1 .45 1 1zm-4 0c0 .55-.46 1-1 1-.56 0-1-.45-1-1s.44-1 1-1c.54 0 1 .45 1 1zm-4 0c0 .55-.45 1-1 1-.56 0-1-.45-1-1s.44-1 1-1c.55 0 1 .45 1 1zm-4 0c0 .55-.45 1-1 1-.56 0-1-.45-1-1s.44-1 1-1c.55 0 1 .45 1 1zm-4 0c0 .55-.45 1-1 1s-1-.45-1-1 .45-1 1-1 1 .45 1 1zm-4 0c0 .55-.45 1-1 1s-1-.45-1-1 .45-1 1-1 1 .45 1 1zm-4 0c0 .55-.44 1-1 1-.55 0-1-.45-1-1s.45-1 1-1c.56 0 1 .45 1 1zm-4 0c0 .55-.44 1-1 1-.55 0-1-.45-1-1s.45-1 1-1c.56 0 1 .45 1 1zm-4 0c0 .55-.44 1-1 1-.54 0-1-.45-1-1s.46-1 1-1c.56 0 1 .45 1 1zm-4 0c0 .55-.44 1-1 1-.54 0-1-.45-1-1s.46-1 1-1c.56 0 1 .45 1 1zm-4 0c0 .55-.43 1-1 1-.54 0-1-.45-1-1s.46-1 1-1c.57 0 1 .45 1 1zm-3.98 0c0 .55-.45 1-1 1-.56 0-1-.45-1-1s.44-1 1-1c.55 0 1 .45 1 1zm-4 0c0 .55-.45 1-1 1s-1-.45-1-1 .45-1 1-1 1 .45 1 1zm-4 0c0 .55-.45 1-1 1s-1-.45-1-1 .45-1 1-1 1 .45 1 1zm-4 0c0 .55-.44 1-1 1-.55 0-1-.45-1-1s.45-1 1-1c.56 0 1 .45 1 1zm-4 0c0 .55-.44 1-1 1-.55 0-1-.45-1-1s.45-1 1-1c.56 0 1 .45 1 1zm-4 0c0 .55-.44 1-1 1-.54 0-1-.45-1-1s.46-1 1-1c.56 0 1 .45 1 1zm-4 0c0 .55-.44 1-1 1-.54 0-1-.45-1-1s.46-1 1-1c.56 0 1 .45 1 1zm-4 0c0 .55-.43 1-1 1-.54 0-1-.45-1-1s.46-1 1-1c.57 0 1 .45 1 1zm-3.98 0c0 .55-.45 1-1 1s-1-.45-1-1 .45-1 1-1 1 .45 1 1zm-4 0c0 .55-.45 1-1 1s-1-.45-1-1 .45-1 1-1 1 .45 1 1zm-4.1-1.9c0 .56-.45 1-1 1-.56 0-1-.44-1-1 0-.55.44-1 1-1 .55 0 1 .45 1 1zm-1.9-4.1c0 .55-.45 1-1 1s-1-.45-1-1 .45-1 1-1 1 .45 1 1zm0-4.2c0 .57-.45 1-1 1s-1-.43-1-1c0-.54.45-1 1-1s1 .46 1 1zm0-4.17c0 .56-.45 1-1 1s-1-.44-1-1c0-.55.45-1 1-1s1 .45 1 1zm0-4.18c0 .55-.45 1-1 1s-1-.45-1-1 .45-1 1-1 1 .45 1 1zm0-4.2c0 .56-.45 1-1 1s-1-.44-1-1c0-.54.45-1 1-1s1 .46 1 1zm0-4.18c0 .56-.45 1-1 1s-1-.44-1-1c0-.55.45-1 1-1s1 .45 1 1zm0-4.18c0 .55-.45 1-1 1s-1-.45-1-1c0-.56.45-1 1-1s1 .44 1 1zm0-4.2c0 .56-.45 1-1 1s-1-.44-1-1c0-.54.45-1 1-1s1 .46 1 1zm0-4.18c0 .55-.45 1-1 1s-1-.45-1-1 .45-1 1-1 1 .45 1 1z"/><use xlink:href="#Z" transform="matrix(1,0,0,1,85.99999999999999,213.1822806320619) translate(0.9108072916666714 19.422743055555554)"/><path d="M116 69v3.05c0 .12-.1.22-.22.22-.13 0-.23.1-.23.22v20.54" stroke="#0c7cba" stroke-width="2" fill="none"/><path d="M116 53.74L120.64 68h-9.28z" stroke="#0c7cba" stroke-width="2" fill="#0c7cba"/><path d="M116.55 94.08l-1.8-.07-.2.05V93h2" fill="#0c7cba"/><path d="M119.97 171.1v28.08" stroke="#0c7cba" stroke-width="2" fill="none"/><path d="M119.97 155.84l4.64 14.26h-9.26z" stroke="#0c7cba" stroke-width="2" fill="#0c7cba"/><path d="M120.97 200.18h-2v-1.02h2" fill="#0c7cba"/><path d="M225 206.4c0-3.32 2.7-6 6-6h68c3.3 0 6 2.68 6 6v33.5c0 3.3-2.7 6-6 6h-68c-3.3 0-6-2.7-6-6z" fill="#c1e4f7" fill-opacity=".38"/><path d="M226 206.4c0 .54-.45 1-1 1s-1-.46-1-1c0-.56.45-1 1-1s1 .44 1 1zm1.9-4.12c0 .56-.45 1-1 1-.56 0-1-.44-1-1 0-.55.44-1 1-1 .55 0 1 .45 1 1zm4.1-1.9c0 .56-.45 1-1 1s-1-.44-1-1c0-.54.45-1 1-1s1 .46 1 1zm4 0c0 .56-.45 1-1 1s-1-.44-1-1c0-.54.45-1 1-1s1 .46 1 1zm4 0c0 .56-.45 1-1 1s-1-.44-1-1c0-.54.45-1 1-1s1 .46 1 1zm4 0c0 .56-.45 1-1 1s-1-.44-1-1c0-.54.45-1 1-1s1 .46 1 1zm4 0c0 .56-.45 1-1 1s-1-.44-1-1c0-.54.45-1 1-1s1 .46 1 1zm4 0c0 .56-.45 1-1 1s-1-.44-1-1c0-.54.45-1 1-1s1 .46 1 1zm4 0c0 .56-.45 1-1 1s-1-.44-1-1c0-.54.45-1 1-1s1 .46 1 1zm4 0c0 .56-.45 1-1 1s-1-.44-1-1c0-.54.45-1 1-1s1 .46 1 1zm4 0c0 .56-.45 1-1 1s-1-.44-1-1c0-.54.45-1 1-1s1 .46 1 1zm4 0c0 .56-.45 1-1 1s-1-.44-1-1c0-.54.45-1 1-1s1 .46 1 1zm4 0c0 .56-.45 1-1 1s-1-.44-1-1c0-.54.45-1 1-1s1 .46 1 1zm4 0c0 .56-.45 1-1 1s-1-.44-1-1c0-.54.45-1 1-1s1 .46 1 1zm4 0c0 .56-.45 1-1 1s-1-.44-1-1c0-.54.45-1 1-1s1 .46 1 1zm4 0c0 .56-.45 1-1 1s-1-.44-1-1c0-.54.45-1 1-1s1 .46 1 1zm4 0c0 .56-.45 1-1 1s-1-.44-1-1c0-.54.45-1 1-1s1 .46 1 1zm4 0c0 .56-.45 1-1 1s-1-.44-1-1c0-.54.45-1 1-1s1 .46 1 1zm4 0c0 .56-.45 1-1 1s-1-.44-1-1c0-.54.45-1 1-1s1 .46 1 1zm4 0c0 .56-.45 1-1 1s-1-.44-1-1c0-.54.45-1 1-1s1 .46 1 1zm4.1 1.9c0 .56-.44 1-1 1-.55 0-1-.44-1-1 0-.55.45-1 1-1 .56 0 1 .45 1 1zm1.9 4.1c0 .56-.45 1-1 1s-1-.44-1-1c0-.54.45-1 1-1s1 .46 1 1zm0 4.2c0 .55-.45 1-1 1s-1-.45-1-1c0-.56.45-1 1-1s1 .44 1 1zm0 4.18c0 .56-.45 1-1 1s-1-.44-1-1c0-.55.45-1 1-1s1 .45 1 1zm0 4.2c0 .54-.45 1-1 1s-1-.46-1-1c0-.56.45-1 1-1s1 .44 1 1zm0 4.18c0 .55-.45 1-1 1s-1-.45-1-1 .45-1 1-1 1 .45 1 1zm0 4.2c0 .54-.45 1-1 1s-1-.46-1-1c0-.57.45-1 1-1s1 .43 1 1zm0 4.17c0 .57-.45 1-1 1s-1-.43-1-1c0-.54.45-1 1-1s1 .46 1 1zm0 4.2c0 .55-.45 1-1 1s-1-.45-1-1 .45-1 1-1 1 .45 1 1zm0 4.2c0 .54-.45 1-1 1s-1-.46-1-1c0-.56.45-1 1-1s1 .44 1 1zm-1.9 4.1c0 .55-.44 1-1 1-.55 0-1-.45-1-1 0-.56.45-1 1-1 .56 0 1 .44 1 1zm-4.1 1.9c0 .54-.45 1-1 1s-1-.46-1-1c0-.56.45-1 1-1s1 .44 1 1zm-4 0c0 .54-.45 1-1 1s-1-.46-1-1c0-.56.45-1 1-1s1 .44 1 1zm-4 0c0 .54-.45 1-1 1s-1-.46-1-1c0-.56.45-1 1-1s1 .44 1 1zm-4 0c0 .54-.45 1-1 1s-1-.46-1-1c0-.56.45-1 1-1s1 .44 1 1zm-4 0c0 .54-.45 1-1 1s-1-.46-1-1c0-.56.45-1 1-1s1 .44 1 1zm-4 0c0 .54-.45 1-1 1s-1-.46-1-1c0-.56.45-1 1-1s1 .44 1 1zm-4 0c0 .54-.45 1-1 1s-1-.46-1-1c0-.56.45-1 1-1s1 .44 1 1zm-4 0c0 .54-.45 1-1 1s-1-.46-1-1c0-.56.45-1 1-1s1 .44 1 1zm-4 0c0 .54-.45 1-1 1s-1-.46-1-1c0-.56.45-1 1-1s1 .44 1 1zm-4 0c0 .54-.45 1-1 1s-1-.46-1-1c0-.56.45-1 1-1s1 .44 1 1zm-4 0c0 .54-.45 1-1 1s-1-.46-1-1c0-.56.45-1 1-1s1 .44 1 1zm-4 0c0 .54-.45 1-1 1s-1-.46-1-1c0-.56.45-1 1-1s1 .44 1 1zm-4 0c0 .54-.45 1-1 1s-1-.46-1-1c0-.56.45-1 1-1s1 .44 1 1zm-4 0c0 .54-.45 1-1 1s-1-.46-1-1c0-.56.45-1 1-1s1 .44 1 1zm-4 0c0 .54-.45 1-1 1s-1-.46-1-1c0-.56.45-1 1-1s1 .44 1 1zm-4 0c0 .54-.45 1-1 1s-1-.46-1-1c0-.56.45-1 1-1s1 .44 1 1zm-4 0c0 .54-.45 1-1 1s-1-.46-1-1c0-.56.45-1 1-1s1 .44 1 1zm-4 0c0 .54-.45 1-1 1s-1-.46-1-1c0-.56.45-1 1-1s1 .44 1 1zm-4.1-1.9c0 .55-.45 1-1 1-.56 0-1-.45-1-1 0-.56.44-1 1-1 .55 0 1 .44 1 1zm-1.9-4.1c0 .54-.45 1-1 1s-1-.46-1-1c0-.56.45-1 1-1s1 .44 1 1zm0-4.2c0 .55-.45 1-1 1s-1-.45-1-1 .45-1 1-1 1 .45 1 1zm0-4.2c0 .57-.45 1-1 1s-1-.43-1-1c0-.54.45-1 1-1s1 .46 1 1zm0-4.17c0 .55-.45 1-1 1s-1-.45-1-1c0-.56.45-1 1-1s1 .44 1 1zm0-4.2c0 .56-.45 1-1 1s-1-.44-1-1c0-.54.45-1 1-1s1 .46 1 1zm0-4.18c0 .55-.45 1-1 1s-1-.45-1-1 .45-1 1-1 1 .45 1 1zm0-4.2c0 .57-.45 1-1 1s-1-.43-1-1c0-.54.45-1 1-1s1 .46 1 1zm0-4.17c0 .55-.45 1-1 1s-1-.45-1-1c0-.56.45-1 1-1s1 .44 1 1z"/><use xlink:href="#aa" transform="matrix(1,0,0,1,237,212.389300847457) translate(-6.532335069444443 19.422743055555554)"/><path d="M155.52 147.08l76.98 51.75" stroke="#0c7cba" stroke-width="2" fill="none"/><path d="M142.85 138.56l14.43 4.1-5.18 7.7z" stroke="#0c7cba" stroke-width="2" fill="#0c7cba"/><path d="M235.13 199.4h-3.03l.94-1.4" fill="#0c7cba"/><path d="M60 301.64c0-3.32 2.7-6 6-6h108c3.3 0 6 2.68 6 6v33.5c0 3.3-2.7 6-6 6H66c-3.3 0-6-2.7-6-6z" fill="#c1e4f7" fill-opacity=".38"/><path d="M61 301.64c0 .55-.45 1-1 1s-1-.45-1-1c0-.56.45-1 1-1s1 .44 1 1zm1.9-4.1c0 .54-.45 1-1 1-.56 0-1-.46-1-1 0-.56.44-1 1-1 .55 0 1 .44 1 1zm4.1-1.9c0 .55-.45 1-1 1s-1-.45-1-1c0-.56.45-1 1-1s1 .44 1 1zm4 0c0 .55-.45 1-1 1s-1-.45-1-1c0-.56.45-1 1-1s1 .44 1 1zm4 0c0 .55-.45 1-1 1s-1-.45-1-1c0-.56.45-1 1-1s1 .44 1 1zm4 0c0 .55-.45 1-1 1s-1-.45-1-1c0-.56.45-1 1-1s1 .44 1 1zm4 0c0 .55-.45 1-1 1s-1-.45-1-1c0-.56.45-1 1-1s1 .44 1 1zm4 0c0 .55-.45 1-1 1s-1-.45-1-1c0-.56.45-1 1-1s1 .44 1 1zm4 0c0 .55-.45 1-1 1s-1-.45-1-1c0-.56.45-1 1-1s1 .44 1 1zm4 0c0 .55-.45 1-1 1s-1-.45-1-1c0-.56.45-1 1-1s1 .44 1 1zm4 0c0 .55-.45 1-1 1s-1-.45-1-1c0-.56.45-1 1-1s1 .44 1 1zm4 0c0 .55-.45 1-1 1s-1-.45-1-1c0-.56.45-1 1-1s1 .44 1 1zm4 0c0 .55-.45 1-1 1s-1-.45-1-1c0-.56.45-1 1-1s1 .44 1 1zm4 0c0 .55-.45 1-1 1s-1-.45-1-1c0-.56.45-1 1-1s1 .44 1 1zm4 0c0 .55-.45 1-1 1s-1-.45-1-1c0-.56.45-1 1-1s1 .44 1 1zm4 0c0 .55-.45 1-1 1s-1-.45-1-1c0-.56.45-1 1-1s1 .44 1 1zm4 0c0 .55-.45 1-1 1s-1-.45-1-1c0-.56.45-1 1-1s1 .44 1 1zm4 0c0 .55-.45 1-1 1s-1-.45-1-1c0-.56.45-1 1-1s1 .44 1 1zm4 0c0 .55-.45 1-1 1s-1-.45-1-1c0-.56.45-1 1-1s1 .44 1 1zm4 0c0 .55-.45 1-1 1s-1-.45-1-1c0-.56.45-1 1-1s1 .44 1 1zm4 0c0 .55-.45 1-1 1s-1-.45-1-1c0-.56.45-1 1-1s1 .44 1 1zm4 0c0 .55-.45 1-1 1s-1-.45-1-1c0-.56.45-1 1-1s1 .44 1 1zm4 0c0 .55-.45 1-1 1s-1-.45-1-1c0-.56.45-1 1-1s1 .44 1 1zm4 0c0 .55-.45 1-1 1s-1-.45-1-1c0-.56.45-1 1-1s1 .44 1 1zm4 0c0 .55-.45 1-1 1s-1-.45-1-1c0-.56.45-1 1-1s1 .44 1 1zm4 0c0 .55-.45 1-1 1s-1-.45-1-1c0-.56.45-1 1-1s1 .44 1 1zm4 0c0 .55-.45 1-1 1s-1-.45-1-1c0-.56.45-1 1-1s1 .44 1 1zm4 0c0 .55-.45 1-1 1s-1-.45-1-1c0-.56.45-1 1-1s1 .44 1 1zm4 0c0 .55-.45 1-1 1s-1-.45-1-1c0-.56.45-1 1-1s1 .44 1 1zm4 0c0 .55-.45 1-1 1s-1-.45-1-1c0-.56.45-1 1-1s1 .44 1 1zm4.1 1.9c0 .54-.44 1-1 1-.55 0-1-.46-1-1 0-.56.45-1 1-1 .56 0 1 .44 1 1zm1.9 4.1c0 .55-.45 1-1 1s-1-.45-1-1c0-.56.45-1 1-1s1 .44 1 1zm0 4.18c0 .56-.45 1-1 1s-1-.44-1-1c0-.55.45-1 1-1s1 .45 1 1zm0 4.2c0 .54-.45 1-1 1s-1-.46-1-1c0-.56.45-1 1-1s1 .44 1 1zm0 4.18c0 .55-.45 1-1 1s-1-.45-1-1 .45-1 1-1 1 .45 1 1zm0 4.2c0 .54-.45 1-1 1s-1-.46-1-1c0-.57.45-1 1-1s1 .43 1 1zm0 4.17c0 .56-.45 1-1 1s-1-.44-1-1c0-.55.45-1 1-1s1 .45 1 1zm0 4.2c0 .54-.45 1-1 1s-1-.46-1-1c0-.56.45-1 1-1s1 .44 1 1zm0 4.18c0 .55-.45 1-1 1s-1-.45-1-1 .45-1 1-1 1 .45 1 1zm0 4.2c0 .54-.45 1-1 1s-1-.46-1-1c0-.57.45-1 1-1s1 .43 1 1zm-1.9 4.1c0 .54-.44 1-1 1-.55 0-1-.46-1-1 0-.56.45-1 1-1 .56 0 1 .44 1 1zm-4.1 1.9c0 .54-.45 1-1 1s-1-.46-1-1c0-.57.45-1 1-1s1 .43 1 1zm-4 0c0 .54-.45 1-1 1s-1-.46-1-1c0-.57.45-1 1-1s1 .43 1 1zm-4 0c0 .54-.45 1-1 1s-1-.46-1-1c0-.57.45-1 1-1s1 .43 1 1zm-4 0c0 .54-.45 1-1 1s-1-.46-1-1c0-.57.45-1 1-1s1 .43 1 1zm-4 0c0 .54-.45 1-1 1s-1-.46-1-1c0-.57.45-1 1-1s1 .43 1 1zm-4 0c0 .54-.45 1-1 1s-1-.46-1-1c0-.57.45-1 1-1s1 .43 1 1zm-4 0c0 .54-.45 1-1 1s-1-.46-1-1c0-.57.45-1 1-1s1 .43 1 1zm-4 0c0 .54-.45 1-1 1s-1-.46-1-1c0-.57.45-1 1-1s1 .43 1 1zm-4 0c0 .54-.45 1-1 1s-1-.46-1-1c0-.57.45-1 1-1s1 .43 1 1zm-4 0c0 .54-.45 1-1 1s-1-.46-1-1c0-.57.45-1 1-1s1 .43 1 1zm-4 0c0 .54-.45 1-1 1s-1-.46-1-1c0-.57.45-1 1-1s1 .43 1 1zm-4 0c0 .54-.45 1-1 1s-1-.46-1-1c0-.57.45-1 1-1s1 .43 1 1zm-4 0c0 .54-.45 1-1 1s-1-.46-1-1c0-.57.45-1 1-1s1 .43 1 1zm-4 0c0 .54-.45 1-1 1s-1-.46-1-1c0-.57.45-1 1-1s1 .43 1 1zm-4 0c0 .54-.45 1-1 1s-1-.46-1-1c0-.57.45-1 1-1s1 .43 1 1zm-4 0c0 .54-.45 1-1 1s-1-.46-1-1c0-.57.45-1 1-1s1 .43 1 1zm-4 0c0 .54-.45 1-1 1s-1-.46-1-1c0-.57.45-1 1-1s1 .43 1 1zm-4 0c0 .54-.45 1-1 1s-1-.46-1-1c0-.57.45-1 1-1s1 .43 1 1zm-4 0c0 .54-.45 1-1 1s-1-.46-1-1c0-.57.45-1 1-1s1 .43 1 1zm-4 0c0 .54-.45 1-1 1s-1-.46-1-1c0-.57.45-1 1-1s1 .43 1 1zm-4 0c0 .54-.45 1-1 1s-1-.46-1-1c0-.57.45-1 1-1s1 .43 1 1zm-4 0c0 .54-.45 1-1 1s-1-.46-1-1c0-.57.45-1 1-1s1 .43 1 1zm-4 0c0 .54-.45 1-1 1s-1-.46-1-1c0-.57.45-1 1-1s1 .43 1 1zm-4 0c0 .54-.45 1-1 1s-1-.46-1-1c0-.57.45-1 1-1s1 .43 1 1zm-4 0c0 .54-.45 1-1 1s-1-.46-1-1c0-.57.45-1 1-1s1 .43 1 1zm-4 0c0 .54-.45 1-1 1s-1-.46-1-1c0-.57.45-1 1-1s1 .43 1 1zm-4 0c0 .54-.45 1-1 1s-1-.46-1-1c0-.57.45-1 1-1s1 .43 1 1zm-4 0c0 .54-.45 1-1 1s-1-.46-1-1c0-.57.45-1 1-1s1 .43 1 1zm-4.1-1.9c0 .54-.45 1-1 1-.56 0-1-.46-1-1 0-.56.44-1 1-1 .55 0 1 .44 1 1zm-1.9-4.1c0 .54-.45 1-1 1s-1-.46-1-1c0-.57.45-1 1-1s1 .43 1 1zm0-4.2c0 .55-.45 1-1 1s-1-.45-1-1 .45-1 1-1 1 .45 1 1zm0-4.2c0 .56-.45 1-1 1s-1-.44-1-1c0-.54.45-1 1-1s1 .46 1 1zm0-4.18c0 .56-.45 1-1 1s-1-.44-1-1c0-.55.45-1 1-1s1 .45 1 1zm0-4.18c0 .54-.45 1-1 1s-1-.46-1-1c0-.57.45-1 1-1s1 .43 1 1zm0-4.2c0 .55-.45 1-1 1s-1-.45-1-1 .45-1 1-1 1 .45 1 1zm0-4.2c0 .56-.45 1-1 1s-1-.44-1-1c0-.54.45-1 1-1s1 .46 1 1zm0-4.18c0 .56-.45 1-1 1s-1-.44-1-1c0-.55.45-1 1-1s1 .45 1 1z"/><g><use xlink:href="#ab" transform="matrix(1,0,0,1,72,307.6356373587571) translate(2.8014322916666714 19.422743055555554)"/></g><path d="M120.7 266.18v4.63c0 .2-.16.36-.35.36-.2 0-.35.15-.35.35v22.14" stroke="#0c7cba" stroke-width="2" fill="none"/><path d="M120.7 250.92l4.63 14.26h-9.27z" stroke="#0c7cba" stroke-width="2" fill="#0c7cba"/><path d="M121 294.64h-2v-1.03h2" fill="#0c7cba"/><path d="M262.2 68v25.57" stroke="#de5f85" stroke-width="2" fill="none"/><path d="M262.2 52.74L266.83 67h-9.27z" stroke="#de5f85" stroke-width="2" fill="#fff"/><path d="M263.2 94.6l-1.92-.06-.08.02v-1.02h2" fill="#de5f85"/><path d="M257.4 96.5c2.65-2 6.95-2 9.6 0l32.6 24.44c2.65 2 2.65 5.2 0 7.2L267 152.6c-2.65 1.98-6.95 1.98-9.6 0l-32.6-24.46c-2.65-2-2.65-5.2 0-7.2z" fill="#f5b5c8" fill-opacity=".39"/><path d="M261.35 95.05l1.7.04m3.2.97l.75.42.77.58m3.1 2.33l1.56 1.17m3.1 2.33l1.56 1.16m3.1 2.33l1.54 1.15m3.1 2.33l1.56 1.17m3.1 2.33l1.56 1.16m3.1 2.33l1.55 1.16m3.12 2.33l.78.58.9 1.08m.1 5.14l-1 .98-.78.58m-3.1 2.33l-1.56 1.17m-3.1 2.33l-1.55 1.16m-3.1 2.34l-1.55 1.16m-3.1 2.33l-1.56 1.17m-3.1 2.32l-1.56 1.17m-3.1 2.32l-1.56 1.16m-3.1 2.33l-.78.6-.75.4m-3.2 1.04l-1.7-.04m-3.2-1l-.75-.4-.78-.6m-3.1-2.32l-1.56-1.16m-3.1-2.33L247.3 145m-3.1-2.32l-1.55-1.17m-3.1-2.33l-1.56-1.16m-3.1-2.33l-1.56-1.15m-3.1-2.33l-1.56-1.17m-3.1-2.33l-.78-.58-.9-1.07m-.1-5.14l1-1 .78-.57m3.1-2.33l1.55-1.16m3.1-2.33l1.56-1.16m3.1-2.33l1.55-1.17m3.1-2.33l1.55-1.16m3.1-2.34l1.56-1.16m3.1-2.33l1.56-1.16m3.1-2.32l.78-.6.75-.4" stroke="#de5f85" fill="none"/><g><use xlink:href="#ac" transform="matrix(1,0,0,1,225,97.89455331920962) translate(15.51519965277778 32.92274305555556)"/></g><path d="M110.85 96.02c2.6-2.06 6.8-2.06 9.4 0l30.6 24.2c2.6 2.06 2.6 5.4 0 7.45l-30.6 24.2c-2.6 2.06-6.8 2.06-9.4 0l-30.6-24.2c-2.6-2.06-2.6-5.4 0-7.45z" fill="#c1e4f7" fill-opacity=".39"/><path d="M114.72 94.53l.07-.02 1.6.07m3.15 1l.7.45.74.58m2.9 2.3l1.46 1.15m2.9 2.3l1.47 1.16m2.9 2.32l1.47 1.15m2.9 2.3l1.47 1.16m2.9 2.3l1.47 1.15m2.9 2.3l1.47 1.16m2.92 2.3l.73.58.9 1.12m.07 5.27l-.97 1.07-.73.57m-2.9 2.3l-1.47 1.16m-2.9 2.3l-1.47 1.16m-2.9 2.3l-1.47 1.16m-2.9 2.3l-1.46 1.15m-2.9 2.3l-1.47 1.16m-2.9 2.3L123.9 149m-2.9 2.3l-.74.57-.73.4m-3.14 1.1h-.08l-1.6-.05m-3.16-1l-.7-.45-.74-.58m-2.9-2.3l-1.47-1.16m-2.9-2.3l-1.47-1.16m-2.9-2.3L97 140.9m-2.9-2.3l-1.46-1.16m-2.9-2.3L88.26 134m-2.9-2.3l-1.47-1.15m-2.9-2.3l-.74-.58-.9-1.12m-.08-5.27l.98-1.06.73-.57m2.9-2.3l1.46-1.16m2.9-2.32l1.47-1.15m2.9-2.3l1.47-1.16m2.9-2.3l1.47-1.15m2.9-2.3l1.47-1.16m2.9-2.3l1.47-1.16m2.92-2.3l.73-.58.73-.4" stroke="#5e5e5e" fill="none"/><g><use xlink:href="#ad" transform="matrix(1,0,0,1,80.55242024555652,97.29622395833324) translate(13.113723958333333 32.92274305555556)"/></g><path d="M171.74 124.1l49.66.43" stroke="#de5f85" stroke-width="2" fill="none"/><path d="M156.47 123.97l14.3-4.5-.07 9.26z" stroke="#de5f85" stroke-width="2" fill="#fff"/><path d="M222.53 123.54l-.2.5.25 1.5h-1.2v-2" fill="#de5f85"/><path d="M411.4 95.9c2.65-2 6.95-2 9.6 0l32.6 24.44c2.65 2 2.65 5.22 0 7.2L421 152c-2.65 1.98-6.95 1.98-9.6 0l-32.6-24.46c-2.65-1.98-2.65-5.2 0-7.2z" fill="#a3d977" fill-opacity=".39"/><path d="M415.35 94.45l1.7.04m3.2.97l.75.43.77.58m3.1 2.33l1.56 1.17m3.1 2.33l1.56 1.16m3.1 2.33l1.54 1.16m3.1 2.32l1.56 1.17m3.1 2.33l1.56 1.16m3.1 2.33l1.55 1.16m3.12 2.33l.78.58.9 1.08m.1 5.14l-1 .98-.78.6m-3.1 2.3l-1.56 1.18m-3.1 2.33l-1.55 1.16m-3.1 2.34l-1.55 1.16m-3.1 2.33l-1.56 1.17m-3.1 2.33l-1.56 1.16m-3.1 2.32l-1.56 1.16m-3.1 2.33l-.78.6-.75.4m-3.2 1.04l-1.7-.04m-3.2-1l-.75-.4-.78-.6m-3.1-2.32l-1.56-1.16m-3.1-2.33l-1.55-1.17m-3.1-2.33l-1.55-1.17m-3.1-2.33l-1.56-1.16m-3.1-2.33l-1.56-1.15m-3.1-2.33l-1.56-1.17m-3.1-2.32l-.78-.6-.9-1.06m-.1-5.14l1-1 .78-.57m3.1-2.33l1.55-1.16m3.1-2.33l1.56-1.16m3.1-2.33l1.55-1.17m3.1-2.32l1.55-1.17m3.1-2.34l1.56-1.16m3.1-2.33l1.56-1.16m3.1-2.32l.78-.58.75-.4" stroke="#5e5e5e" fill="none"/><g><use xlink:href="#ae" transform="matrix(1,0,0,1,379,97.29622395833324) translate(14.506085069444444 32.92274305555556)"/></g><path d="M416.38 68l-.08 24.97" stroke="#7ab648" stroke-width="2" fill="none"/><path d="M416.43 52.74l4.6 14.28-9.28-.03z" stroke="#7ab648" stroke-width="2" fill="#fff"/><path d="M417.3 92.95V94l-2-.05v-1" fill="#7ab648"/><path d="M357.9 123.94h-55" stroke="#de5f85" stroke-width="2" fill="none"/><path d="M373.17 123.94l-14.27 4.64v-9.27z" stroke="#de5f85" stroke-width="2" fill="#fff"/><path d="M302.9 124.94h-.84l-.34-2h1.2" fill="#de5f85"/><path d="M320.7 194.07L395 141.5" stroke="#7ab648" stroke-width="2" fill="none"/><path d="M308.24 202.9l8.96-12.04 5.36 7.57z" stroke="#7ab648" stroke-width="2" fill="#fff"/><path d="M396.65 141.55l-1.1.78-1.16-1.63.57-.4" fill="#7ab648"/><path d="M136 29c0 11.05-8.95 20-20 20s-20-8.95-20-20 8.95-20 20-20 20 8.95 20 20z" stroke="#5e5e5e" stroke-width="3" fill="#c1e4f7" fill-opacity=".39"/><g><use xlink:href="#af" transform="matrix(1,0,0,1,101,14) translate(8.527135416666667 21.297743055555554)"/></g><path d="M280.7 29c0 11.05-8.95 20-20 20-11.04 0-20-8.95-20-20s8.96-20 20-20c11.05 0 20 8.95 20 20z" stroke="#5e5e5e" stroke-width="3" fill="#f5b5c8" fill-opacity=".39"/><g><use xlink:href="#ag" transform="matrix(1,0,0,1,245.70235222089894,14) translate(9.096796875 21.297743055555554)"/></g><path d="M438 28c0 11.05-8.95 20-20 20s-20-8.95-20-20 8.95-20 20-20 20 8.95 20 20z" stroke="#5e5e5e" stroke-width="3" fill="#a3d977" fill-opacity=".39"/><g><use xlink:href="#ah" transform="matrix(1,0,0,1,403,13) translate(7.919496527777778 21.297743055555554)"/></g><path d="M1 382c0-3.3 2.7-6 6-6h509.33c3.32 0 6 2.7 6 6v117c0 3.3-2.68 6-6 6H7c-3.3 0-6-2.7-6-6z" stroke="#5e5e5e" fill-opacity="0"/><path d="M300.33 456.13c0-3.3 2.7-6 6-6h23.94c3.3 0 6 2.7 6 6v26.6c0 3.3-2.7 6-6 6h-23.94c-3.3 0-6-2.7-6-6z" fill="#c1e4f7" fill-opacity=".39"/><path d="M301.33 456.13c0 .55-.44 1-1 1-.55 0-1-.45-1-1s.45-1 1-1c.56 0 1 .45 1 1zm1.9-4.1c0 .55-.45 1-1 1s-1-.45-1-1c0-.56.45-1 1-1s1 .44 1 1zm4.1-1.9c0 .55-.44 1-1 1-.55 0-1-.45-1-1s.45-1 1-1c.56 0 1 .45 1 1zm4 0c0 .55-.46 1-1 1-.56 0-1-.45-1-1s.44-1 1-1c.54 0 1 .45 1 1zm3.98 0c0 .55-.44 1-1 1-.54 0-1-.45-1-1s.46-1 1-1c.56 0 1 .45 1 1zm4 0c0 .55-.45 1-1 1s-1-.45-1-1 .45-1 1-1 1 .45 1 1zm4 0c0 .55-.46 1-1 1-.56 0-1-.45-1-1s.44-1 1-1c.54 0 1 .45 1 1zm3.98 0c0 .55-.45 1-1 1s-1-.45-1-1 .45-1 1-1 1 .45 1 1zm4 0c0 .55-.46 1-1 1-.56 0-1-.45-1-1s.44-1 1-1c.54 0 1 .45 1 1zm4.1 1.9c0 .55-.45 1-1 1-.56 0-1-.45-1-1 0-.56.44-1 1-1 .55 0 1 .44 1 1zm1.9 4.1c0 .55-.46 1-1 1-.56 0-1-.45-1-1s.44-1 1-1c.54 0 1 .45 1 1zm0 3.8c0 .55-.46 1-1 1-.56 0-1-.45-1-1s.44-1 1-1c.54 0 1 .45 1 1zm0 3.8c0 .55-.46 1-1 1-.56 0-1-.45-1-1s.44-1 1-1c.54 0 1 .45 1 1zm0 3.8c0 .55-.46 1-1 1-.56 0-1-.45-1-1s.44-1 1-1c.54 0 1 .45 1 1zm0 3.8c0 .55-.46 1-1 1-.56 0-1-.45-1-1s.44-1 1-1c.54 0 1 .45 1 1zm0 3.8c0 .55-.46 1-1 1-.56 0-1-.45-1-1 0-.56.44-1 1-1 .54 0 1 .44 1 1zm0 3.8c0 .55-.46 1-1 1-.56 0-1-.45-1-1 0-.56.44-1 1-1 .54 0 1 .44 1 1zm0 3.8c0 .55-.46 1-1 1-.56 0-1-.45-1-1 0-.56.44-1 1-1 .54 0 1 .44 1 1zm-1.9 4.1c0 .55-.45 1-1 1-.56 0-1-.45-1-1s.44-1 1-1c.55 0 1 .45 1 1zm-4.1 1.9c0 .55-.46 1-1 1-.56 0-1-.45-1-1 0-.56.44-1 1-1 .54 0 1 .44 1 1zm-4 0c0 .55-.45 1-1 1s-1-.45-1-1c0-.56.45-1 1-1s1 .44 1 1zm-4 0c0 .55-.44 1-1 1-.54 0-1-.45-1-1 0-.56.46-1 1-1 .56 0 1 .44 1 1zm-3.98 0c0 .55-.45 1-1 1s-1-.45-1-1c0-.56.45-1 1-1s1 .44 1 1zm-4 0c0 .55-.44 1-1 1-.54 0-1-.45-1-1 0-.56.46-1 1-1 .56 0 1 .44 1 1zm-3.98 0c0 .55-.45 1-1 1s-1-.45-1-1c0-.56.45-1 1-1s1 .44 1 1zm-4 0c0 .55-.43 1-1 1-.54 0-1-.45-1-1 0-.56.46-1 1-1 .57 0 1 .44 1 1zm-4.1-1.9c0 .55-.44 1-1 1-.54 0-1-.45-1-1s.46-1 1-1c.56 0 1 .45 1 1zm-1.9-4.1c0 .55-.43 1-1 1-.54 0-1-.45-1-1 0-.56.46-1 1-1 .57 0 1 .44 1 1zm0-3.8c0 .55-.43 1-1 1-.54 0-1-.45-1-1 0-.56.46-1 1-1 .57 0 1 .44 1 1zm0-3.8c0 .55-.43 1-1 1-.54 0-1-.45-1-1 0-.56.46-1 1-1 .57 0 1 .44 1 1zm0-3.8c0 .55-.43 1-1 1-.54 0-1-.45-1-1s.46-1 1-1c.57 0 1 .45 1 1zm0-3.8c0 .55-.43 1-1 1-.54 0-1-.45-1-1s.46-1 1-1c.57 0 1 .45 1 1zm0-3.8c0 .55-.43 1-1 1-.54 0-1-.45-1-1s.46-1 1-1c.57 0 1 .45 1 1zm0-3.8c0 .55-.43 1-1 1-.54 0-1-.45-1-1s.46-1 1-1c.57 0 1 .45 1 1z"/><path d="M344.8 453.67h177.53v32.8H344.8z" fill="#fff" fill-opacity="0"/><g><use xlink:href="#ai" transform="matrix(1,0,0,1,349.7865707434074,458.6676210833266) translate(0 15.999999999999998)"/><use xlink:href="#aj" transform="matrix(1,0,0,1,349.7865707434074,458.6676210833266) translate(72.05555555555553 15.999999999999998)"/></g><path d="M425 398h56.5v34H425z" fill="#fff" fill-opacity="0"/><g><use xlink:href="#ak" transform="matrix(1,0,0,1,429.99999999999994,403) translate(0 15.999999999999998)"/></g><path d="M411.5 413H424" stroke="#0c7cba" stroke-width="2" fill="none"/><path d="M396.24 413l14.26-4.64v9.28z" stroke="#0c7cba" stroke-width="2" fill="#fff"/><path d="M423.97 413H425" stroke="#0c7cba" stroke-width="2" fill="none"/><path d="M275 398h56.5v34H275z" fill="#fff" fill-opacity="0"/><g><use xlink:href="#al" transform="matrix(1,0,0,1,279.9999999999999,403) translate(0 15.999999999999998)"/></g><path d="M261.5 413H274" stroke="#0c7cba" stroke-width="2" fill="none"/><path d="M246.24 413l14.26-4.64v9.28z" stroke="#0c7cba" stroke-width="2" fill="#0c7cba"/><path d="M275 414h-1.03v-2H275" fill="#0c7cba"/><path d="M87.5 398.35H221v58H87.5z" fill="#fff" fill-opacity="0"/><g><use xlink:href="#am" transform="matrix(1,0,0,1,92.51352352087338,403.34793579331654) translate(0 15.999999999999998)"/><use xlink:href="#an" transform="matrix(1,0,0,1,92.51352352087338,403.34793579331654) translate(66.49999999999999 15.999999999999998)"/></g><path d="M71.48 413c0 11.05-8.95 20-20 20-11.04 0-20-8.95-20-20s8.96-20 20-20c11.05 0 20 8.95 20 20z" stroke="#5e5e5e" stroke-width="3" fill="#c1e4f7" fill-opacity=".39"/><path d="M46.68 449.6c2.66-2 6.95-2 9.6 0l21.55 16.16c2.66 2 2.66 5.2 0 7.2l-21.55 16.17c-2.65 1.98-6.94 1.98-9.6 0l-21.55-16.17c-2.65-2-2.65-5.2 0-7.2z" fill="#c1e4f7" fill-opacity=".39"/><path d="M47.68 449.6c0 .55-.44 1-1 1-.55 0-1-.45-1-1s.45-1 1-1c.56 0 1 .45 1 1zm3.13-1.27c0 .55-.44 1-1 1-.55 0-1-.45-1-1s.45-1 1-1c.56 0 1 .45 1 1zm3.37-.02c0 .56-.45 1-1 1s-1-.44-1-1c0-.54.45-1 1-1s1 .46 1 1zm3.1 1.3c0 .55-.43 1-1 1-.54 0-1-.45-1-1s.46-1 1-1c.57 0 1 .45 1 1zm3.1 2.3c0 .56-.45 1-1 1-.56 0-1-.44-1-1 0-.54.44-1 1-1 .55 0 1 .46 1 1zm3.07 2.32c0 .55-.45 1-1 1s-1-.45-1-1 .45-1 1-1 1 .45 1 1zm3.08 2.3c0 .56-.45 1-1 1s-1-.44-1-1c0-.55.45-1 1-1s1 .45 1 1zm3.08 2.32c0 .55-.45 1-1 1s-1-.45-1-1c0-.56.45-1 1-1s1 .44 1 1zm3.08 2.3c0 .56-.45 1-1 1s-1-.44-1-1c0-.55.45-1 1-1s1 .45 1 1zm3.08 2.3c0 .57-.45 1-1 1-.56 0-1-.43-1-1 0-.54.44-1 1-1 .55 0 1 .46 1 1zm3.07 2.32c0 .56-.44 1-1 1-.55 0-1-.44-1-1 0-.55.45-1 1-1 .56 0 1 .45 1 1zm1.9 3.62c0 .55-.45 1-1 1-.56 0-1-.45-1-1s.44-1 1-1c.55 0 1 .45 1 1zm-1.9 3.58c0 .56-.44 1-1 1-.55 0-1-.44-1-1 0-.55.45-1 1-1 .56 0 1 .45 1 1zm-3.07 2.3c0 .56-.45 1-1 1-.56 0-1-.44-1-1 0-.54.44-1 1-1 .55 0 1 .46 1 1zm-3.08 2.32c0 .55-.45 1-1 1s-1-.45-1-1 .45-1 1-1 1 .45 1 1zm-3.08 2.3c0 .56-.45 1-1 1s-1-.44-1-1c0-.54.45-1 1-1s1 .46 1 1zm-3.08 2.32c0 .55-.45 1-1 1s-1-.45-1-1 .45-1 1-1 1 .45 1 1zm-3.08 2.3c0 .56-.45 1-1 1s-1-.44-1-1c0-.54.45-1 1-1s1 .46 1 1zm-3.08 2.32c0 .55-.44 1-1 1-.55 0-1-.45-1-1 0-.56.45-1 1-1 .56 0 1 .44 1 1zm-3.08 2.3c0 .56-.44 1-1 1-.55 0-1-.44-1-1 0-.55.45-1 1-1 .56 0 1 .45 1 1zm-3.12 1.27c0 .55-.44 1-1 1-.55 0-1-.45-1-1 0-.56.45-1 1-1 .56 0 1 .44 1 1zm-3.36.02c0 .55-.45 1-1 1s-1-.45-1-1c0-.56.45-1 1-1s1 .44 1 1zm-3.12-1.3c0 .56-.44 1-1 1-.55 0-1-.44-1-1 0-.55.45-1 1-1 .56 0 1 .45 1 1zm-3.07-2.3c0 .55-.44 1-1 1-.55 0-1-.45-1-1 0-.56.45-1 1-1 .56 0 1 .44 1 1zm-3.07-2.3c0 .54-.45 1-1 1-.56 0-1-.46-1-1 0-.56.44-1 1-1 .55 0 1 .44 1 1zm-3.08-2.32c0 .55-.45 1-1 1s-1-.45-1-1 .45-1 1-1 1 .45 1 1zm-3.08-2.3c0 .54-.45 1-1 1s-1-.46-1-1c0-.56.45-1 1-1s1 .44 1 1zm-3.08-2.32c0 .55-.46 1-1 1-.56 0-1-.45-1-1s.44-1 1-1c.54 0 1 .45 1 1zm-3.1-2.3c0 .54-.44 1-1 1-.54 0-1-.46-1-1 0-.56.46-1 1-1 .56 0 1 .44 1 1zm-3.07-2.32c0 .56-.44 1-1 1-.55 0-1-.44-1-1 0-.55.45-1 1-1 .56 0 1 .45 1 1zm-1.9-3.6c0 .54-.44 1-1 1-.54 0-1-.46-1-1 0-.56.46-1 1-1 .56 0 1 .44 1 1zm1.9-3.6c0 .56-.44 1-1 1-.55 0-1-.44-1-1 0-.55.45-1 1-1 .56 0 1 .45 1 1zm3.08-2.3c0 .55-.44 1-1 1-.54 0-1-.45-1-1 0-.56.46-1 1-1 .56 0 1 .44 1 1zm3.1-2.3c0 .54-.46 1-1 1-.56 0-1-.46-1-1 0-.57.44-1 1-1 .54 0 1 .43 1 1zm3.07-2.32c0 .55-.45 1-1 1s-1-.45-1-1c0-.56.45-1 1-1s1 .44 1 1zm3.08-2.3c0 .54-.45 1-1 1s-1-.46-1-1c0-.57.45-1 1-1s1 .43 1 1zm3.08-2.32c0 .55-.45 1-1 1-.56 0-1-.45-1-1s.44-1 1-1c.55 0 1 .45 1 1zm3.08-2.3c0 .54-.44 1-1 1-.55 0-1-.46-1-1 0-.56.45-1 1-1 .56 0 1 .44 1 1z" fill="#5e5e5e"/><path d="M87.5 454.73h222.35v34H87.5z" fill="#fff" fill-opacity="0"/><g><use xlink:href="#ao" transform="matrix(1,0,0,1,92.51352352087336,459.72612479402073) translate(0 15.999999999999998)"/><use xlink:href="#aj" transform="matrix(1,0,0,1,92.51352352087336,459.72612479402073) translate(76.49999999999999 15.999999999999998)"/></g><defs><path fill="#333" d="M205 0l-28-72H64L36 0H1l101-248h38L239 0h-34zm-38-99l-47-123c-12 45-31 82-46 123h93" id="ap"/><use transform="matrix(0.055555555555555546,0,0,0.055555555555555546,0,0)" xlink:href="#ap" id="a"/><path fill="#333" d="M96-169c-40 0-48 33-48 73s9 75 48 75c24 0 41-14 43-38l32 2c-6 37-31 61-74 61-59 0-76-41-82-99-10-93 101-131 147-64 4 7 5 14 7 22l-32 3c-4-21-16-35-41-35" id="aq"/><path fill="#333" d="M100-194c62-1 85 37 85 99 1 63-27 99-86 99S16-35 15-95c0-66 28-99 85-99zM99-20c44 1 53-31 53-75 0-43-8-75-51-75s-53 32-53 75 10 74 51 75" id="ar"/><path fill="#333" d="M210-169c-67 3-38 105-44 169h-31v-121c0-29-5-50-35-48C34-165 62-65 56 0H25l-1-190h30c1 10-1 24 2 32 10-44 99-50 107 0 11-21 27-35 58-36 85-2 47 119 55 194h-31v-121c0-29-5-49-35-48" id="as"/><path fill="#333" d="M115-194c55 1 70 41 70 98S169 2 115 4C84 4 66-9 55-30l1 105H24l-1-265h31l2 30c10-21 28-34 59-34zm-8 174c40 0 45-34 45-75s-6-73-45-74c-42 0-51 32-51 76 0 43 10 73 51 73" id="at"/><path fill="#333" d="M24 0v-261h32V0H24" id="au"/><path fill="#333" d="M100-194c63 0 86 42 84 106H49c0 40 14 67 53 68 26 1 43-12 49-29l28 8c-11 28-37 45-77 45C44 4 14-33 15-96c1-61 26-98 85-98zm52 81c6-60-76-77-97-28-3 7-6 17-6 28h103" id="av"/><path fill="#333" d="M141 0L90-78 38 0H4l68-98-65-92h35l48 74 47-74h35l-64 92 68 98h-35" id="aw"/><g id="b"><use transform="matrix(0.055555555555555546,0,0,0.055555555555555546,0,0)" xlink:href="#aq"/><use transform="matrix(0.055555555555555546,0,0,0.055555555555555546,9.999999999999998,0)" xlink:href="#ar"/><use transform="matrix(0.055555555555555546,0,0,0.055555555555555546,21.111111111111107,0)" xlink:href="#as"/><use transform="matrix(0.055555555555555546,0,0,0.055555555555555546,37.722222222222214,0)" xlink:href="#at"/><use transform="matrix(0.055555555555555546,0,0,0.055555555555555546,48.83333333333332,0)" xlink:href="#au"/><use transform="matrix(0.055555555555555546,0,0,0.055555555555555546,53.22222222222221,0)" xlink:href="#av"/><use transform="matrix(0.055555555555555546,0,0,0.055555555555555546,64.33333333333331,0)" xlink:href="#aw"/></g><path fill="#333" d="M141-36C126-15 110 5 73 4 37 3 15-17 15-53c-1-64 63-63 125-63 3-35-9-54-41-54-24 1-41 7-42 31l-33-3c5-37 33-52 76-52 45 0 72 20 72 64v82c-1 20 7 32 28 27v20c-31 9-61-2-59-35zM48-53c0 20 12 33 32 33 41-3 63-29 60-74-43 2-92-5-92 41" id="ax"/><path fill="#333" d="M114-163C36-179 61-72 57 0H25l-1-190h30c1 12-1 29 2 39 6-27 23-49 58-41v29" id="ay"/><path fill="#333" d="M177-190C167-65 218 103 67 71c-23-6-38-20-44-43l32-5c15 47 100 32 89-28v-30C133-14 115 1 83 1 29 1 15-40 15-95c0-56 16-97 71-98 29-1 48 16 59 35 1-10 0-23 2-32h30zM94-22c36 0 50-32 50-73 0-42-14-75-50-75-39 0-46 34-46 75s6 73 46 73" id="az"/><path fill="#333" d="M84 4C-5 8 30-112 23-190h32v120c0 31 7 50 39 49 72-2 45-101 50-169h31l1 190h-30c-1-10 1-25-2-33-11 22-28 36-60 37" id="aA"/><path fill="#333" d="M117-194c89-4 53 116 60 194h-32v-121c0-31-8-49-39-48C34-167 62-67 57 0H25l-1-190h30c1 10-1 24 2 32 11-22 29-35 61-36" id="aB"/><path fill="#333" d="M59-47c-2 24 18 29 38 22v24C64 9 27 4 27-40v-127H5v-23h24l9-43h21v43h35v23H59v120" id="aC"/><g id="c"><use transform="matrix(0.055555555555555546,0,0,0.055555555555555546,0,0)" xlink:href="#ax"/><use transform="matrix(0.055555555555555546,0,0,0.055555555555555546,11.111111111111109,0)" xlink:href="#ay"/><use transform="matrix(0.055555555555555546,0,0,0.055555555555555546,17.722222222222218,0)" xlink:href="#az"/><use transform="matrix(0.055555555555555546,0,0,0.055555555555555546,28.83333333333333,0)" xlink:href="#aA"/><use transform="matrix(0.055555555555555546,0,0,0.055555555555555546,39.944444444444436,0)" xlink:href="#as"/><use transform="matrix(0.055555555555555546,0,0,0.055555555555555546,56.55555555555554,0)" xlink:href="#av"/><use transform="matrix(0.055555555555555546,0,0,0.055555555555555546,67.66666666666666,0)" xlink:href="#aB"/><use transform="matrix(0.055555555555555546,0,0,0.055555555555555546,78.77777777777777,0)" xlink:href="#aC"/></g><path fill="#333" d="M106-169C34-169 62-67 57 0H25v-261h32l-1 103c12-21 28-36 61-36 89 0 53 116 60 194h-32v-121c2-32-8-49-39-48" id="aD"/><path fill="#333" d="M33 0v-38h34V0H33" id="aE"/><g id="d"><use transform="matrix(0.055555555555555546,0,0,0.055555555555555546,0,0)" xlink:href="#az"/><use transform="matrix(0.055555555555555546,0,0,0.055555555555555546,11.111111111111109,0)" xlink:href="#ay"/><use transform="matrix(0.055555555555555546,0,0,0.055555555555555546,17.722222222222218,0)" xlink:href="#ax"/><use transform="matrix(0.055555555555555546,0,0,0.055555555555555546,28.83333333333333,0)" xlink:href="#at"/><use transform="matrix(0.055555555555555546,0,0,0.055555555555555546,39.944444444444436,0)" xlink:href="#aD"/><use transform="matrix(0.055555555555555546,0,0,0.055555555555555546,51.05555555555554,0)" xlink:href="#aE"/></g><path fill="#333" d="M33 0v-248h34V0H33" id="aF"/><g id="e"><use transform="matrix(0.055555555555555546,0,0,0.055555555555555546,0,0)" xlink:href="#aF"/><use transform="matrix(0.055555555555555546,0,0,0.055555555555555546,5.5555555555555545,0)" xlink:href="#aB"/></g><path fill="#333" d="M24-231v-30h32v30H24zM24 0v-190h32V0H24" id="aG"/><path fill="#333" d="M135-143c-3-34-86-38-87 0 15 53 115 12 119 90S17 21 10-45l28-5c4 36 97 45 98 0-10-56-113-15-118-90-4-57 82-63 122-42 12 7 21 19 24 35" id="aH"/><g id="f"><use transform="matrix(0.055555555555555546,0,0,0.055555555555555546,0,0)" xlink:href="#aC"/><use transform="matrix(0.055555555555555546,0,0,0.055555555555555546,5.5555555555555545,0)" xlink:href="#aD"/><use transform="matrix(0.055555555555555546,0,0,0.055555555555555546,16.666666666666664,0)" xlink:href="#aG"/><use transform="matrix(0.055555555555555546,0,0,0.055555555555555546,21.055555555555554,0)" xlink:href="#aH"/></g><g id="g"><use transform="matrix(0.055555555555555546,0,0,0.055555555555555546,0,0)" xlink:href="#az"/><use transform="matrix(0.055555555555555546,0,0,0.055555555555555546,11.111111111111109,0)" xlink:href="#ay"/><use transform="matrix(0.055555555555555546,0,0,0.055555555555555546,17.722222222222218,0)" xlink:href="#ax"/><use transform="matrix(0.055555555555555546,0,0,0.055555555555555546,28.83333333333333,0)" xlink:href="#at"/><use transform="matrix(0.055555555555555546,0,0,0.055555555555555546,39.944444444444436,0)" xlink:href="#aD"/></g><path fill="#333" d="M206 0h-36l-40-164L89 0H53L-1-190h32L70-26l43-164h34l41 164 42-164h31" id="aI"/><g id="h"><use transform="matrix(0.055555555555555546,0,0,0.055555555555555546,0,0)" xlink:href="#aI"/><use transform="matrix(0.055555555555555546,0,0,0.055555555555555546,14.388888888888886,0)" xlink:href="#av"/></g><path fill="#333" d="M85-194c31 0 48 13 60 33l-1-100h32l1 261h-30c-2-10 0-23-3-31C134-8 116 4 85 4 32 4 16-35 15-94c0-66 23-100 70-100zm9 24c-40 0-46 34-46 75 0 40 6 74 45 74 42 0 51-32 51-76 0-42-9-74-50-73" id="aJ"/><g id="i"><use transform="matrix(0.055555555555555546,0,0,0.055555555555555546,0,0)" xlink:href="#aG"/><use transform="matrix(0.055555555555555546,0,0,0.055555555555555546,4.388888888888888,0)" xlink:href="#aB"/><use transform="matrix(0.055555555555555546,0,0,0.055555555555555546,15.499999999999996,0)" xlink:href="#aq"/><use transform="matrix(0.055555555555555546,0,0,0.055555555555555546,25.499999999999993,0)" xlink:href="#au"/><use transform="matrix(0.055555555555555546,0,0,0.055555555555555546,29.888888888888882,0)" xlink:href="#aA"/><use transform="matrix(0.055555555555555546,0,0,0.055555555555555546,40.99999999999999,0)" xlink:href="#aJ"/><use transform="matrix(0.055555555555555546,0,0,0.055555555555555546,52.1111111111111,0)" xlink:href="#av"/></g><g id="j"><use transform="matrix(0.055555555555555546,0,0,0.055555555555555546,0,0)" xlink:href="#aH"/><use transform="matrix(0.055555555555555546,0,0,0.055555555555555546,9.999999999999998,0)" xlink:href="#av"/><use transform="matrix(0.055555555555555546,0,0,0.055555555555555546,21.111111111111107,0)" xlink:href="#at"/><use transform="matrix(0.055555555555555546,0,0,0.055555555555555546,32.222222222222214,0)" xlink:href="#av"/><use transform="matrix(0.055555555555555546,0,0,0.055555555555555546,43.33333333333332,0)" xlink:href="#ay"/><use transform="matrix(0.055555555555555546,0,0,0.055555555555555546,49.94444444444443,0)" xlink:href="#ax"/><use transform="matrix(0.055555555555555546,0,0,0.055555555555555546,61.05555555555553,0)" xlink:href="#aC"/><use transform="matrix(0.055555555555555546,0,0,0.055555555555555546,66.61111111111109,0)" xlink:href="#av"/></g><g id="k"><use transform="matrix(0.055555555555555546,0,0,0.055555555555555546,0,0)" xlink:href="#aB"/><use transform="matrix(0.055555555555555546,0,0,0.055555555555555546,11.111111111111109,0)" xlink:href="#ar"/><use transform="matrix(0.055555555555555546,0,0,0.055555555555555546,22.222222222222218,0)" xlink:href="#aJ"/><use transform="matrix(0.055555555555555546,0,0,0.055555555555555546,33.33333333333333,0)" xlink:href="#av"/><use transform="matrix(0.055555555555555546,0,0,0.055555555555555546,44.444444444444436,0)" xlink:href="#aH"/></g><path fill="#333" d="M101-234c-31-9-42 10-38 44h38v23H63V0H32v-167H5v-23h27c-7-52 17-82 69-68v24" id="aK"/><g id="l"><use transform="matrix(0.055555555555555546,0,0,0.055555555555555546,0,0)" xlink:href="#aK"/><use transform="matrix(0.055555555555555546,0,0,0.055555555555555546,5.5555555555555545,0)" xlink:href="#ar"/><use transform="matrix(0.055555555555555546,0,0,0.055555555555555546,16.666666666666664,0)" xlink:href="#ay"/></g><g id="m"><use transform="matrix(0.055555555555555546,0,0,0.055555555555555546,0,0)" xlink:href="#aC"/><use transform="matrix(0.055555555555555546,0,0,0.055555555555555546,5.5555555555555545,0)" xlink:href="#aD"/><use transform="matrix(0.055555555555555546,0,0,0.055555555555555546,16.666666666666664,0)" xlink:href="#av"/></g><g id="n"><use transform="matrix(0.055555555555555546,0,0,0.055555555555555546,0,0)" xlink:href="#ay"/><use transform="matrix(0.055555555555555546,0,0,0.055555555555555546,6.61111111111111,0)" xlink:href="#ar"/><use transform="matrix(0.055555555555555546,0,0,0.055555555555555546,17.722222222222218,0)" xlink:href="#ar"/><use transform="matrix(0.055555555555555546,0,0,0.055555555555555546,28.83333333333333,0)" xlink:href="#aC"/></g><g id="o"><use transform="matrix(0.055555555555555546,0,0,0.055555555555555546,0,0)" xlink:href="#aq"/><use transform="matrix(0.055555555555555546,0,0,0.055555555555555546,9.999999999999998,0)" xlink:href="#au"/><use transform="matrix(0.055555555555555546,0,0,0.055555555555555546,14.388888888888886,0)" xlink:href="#ax"/><use transform="matrix(0.055555555555555546,0,0,0.055555555555555546,25.499999999999993,0)" xlink:href="#aG"/><use transform="matrix(0.055555555555555546,0,0,0.055555555555555546,29.888888888888882,0)" xlink:href="#as"/><use transform="matrix(0.055555555555555546,0,0,0.055555555555555546,46.499999999999986,0)" xlink:href="#aH"/></g><g id="p"><use transform="matrix(0.055555555555555546,0,0,0.055555555555555546,0,0)" xlink:href="#ar"/><use transform="matrix(0.055555555555555546,0,0,0.055555555555555546,11.111111111111109,0)" xlink:href="#aK"/></g><g id="q"><use transform="matrix(0.055555555555555546,0,0,0.055555555555555546,0,0)" xlink:href="#av"/><use transform="matrix(0.055555555555555546,0,0,0.055555555555555546,11.111111111111109,0)" xlink:href="#ax"/><use transform="matrix(0.055555555555555546,0,0,0.055555555555555546,22.222222222222218,0)" xlink:href="#aq"/><use transform="matrix(0.055555555555555546,0,0,0.055555555555555546,32.222222222222214,0)" xlink:href="#aD"/></g><g id="r"><use transform="matrix(0.055555555555555546,0,0,0.055555555555555546,0,0)" xlink:href="#ax"/><use transform="matrix(0.055555555555555546,0,0,0.055555555555555546,11.111111111111109,0)" xlink:href="#ay"/><use transform="matrix(0.055555555555555546,0,0,0.055555555555555546,17.722222222222218,0)" xlink:href="#az"/><use transform="matrix(0.055555555555555546,0,0,0.055555555555555546,28.83333333333333,0)" xlink:href="#aA"/><use transform="matrix(0.055555555555555546,0,0,0.055555555555555546,39.944444444444436,0)" xlink:href="#as"/><use transform="matrix(0.055555555555555546,0,0,0.055555555555555546,56.55555555555554,0)" xlink:href="#av"/><use transform="matrix(0.055555555555555546,0,0,0.055555555555555546,67.66666666666666,0)" xlink:href="#aB"/><use transform="matrix(0.055555555555555546,0,0,0.055555555555555546,78.77777777777777,0)" xlink:href="#aC"/></g><path fill="#333" d="M68-38c1 34 0 65-14 84H32c9-13 17-26 17-46H33v-38h35" id="aL"/><g id="s"><use transform="matrix(0.055555555555555546,0,0,0.055555555555555546,0,0)" xlink:href="#aC"/><use transform="matrix(0.055555555555555546,0,0,0.055555555555555546,5.5555555555555545,0)" xlink:href="#aD"/><use transform="matrix(0.055555555555555546,0,0,0.055555555555555546,16.666666666666664,0)" xlink:href="#ay"/><use transform="matrix(0.055555555555555546,0,0,0.055555555555555546,23.277777777777775,0)" xlink:href="#av"/><use transform="matrix(0.055555555555555546,0,0,0.055555555555555546,34.388888888888886,0)" xlink:href="#ax"/><use transform="matrix(0.055555555555555546,0,0,0.055555555555555546,45.49999999999999,0)" xlink:href="#aJ"/><use transform="matrix(0.055555555555555546,0,0,0.055555555555555546,56.6111111111111,0)" xlink:href="#aL"/></g><g id="t"><use transform="matrix(0.055555555555555546,0,0,0.055555555555555546,0,0)" xlink:href="#aI"/><use transform="matrix(0.055555555555555546,0,0,0.055555555555555546,14.388888888888886,0)" xlink:href="#aG"/><use transform="matrix(0.055555555555555546,0,0,0.055555555555555546,18.777777777777775,0)" xlink:href="#aC"/><use transform="matrix(0.055555555555555546,0,0,0.055555555555555546,24.33333333333333,0)" xlink:href="#aD"/></g><g id="u"><use transform="matrix(0.055555555555555546,0,0,0.055555555555555546,0,0)" xlink:href="#ax"/><use transform="matrix(0.055555555555555546,0,0,0.055555555555555546,11.111111111111109,0)" xlink:href="#ay"/><use transform="matrix(0.055555555555555546,0,0,0.055555555555555546,17.722222222222218,0)" xlink:href="#az"/><use transform="matrix(0.055555555555555546,0,0,0.055555555555555546,28.83333333333333,0)" xlink:href="#aA"/><use transform="matrix(0.055555555555555546,0,0,0.055555555555555546,39.944444444444436,0)" xlink:href="#as"/><use transform="matrix(0.055555555555555546,0,0,0.055555555555555546,56.55555555555554,0)" xlink:href="#av"/><use transform="matrix(0.055555555555555546,0,0,0.055555555555555546,67.66666666666666,0)" xlink:href="#aB"/><use transform="matrix(0.055555555555555546,0,0,0.055555555555555546,78.77777777777777,0)" xlink:href="#aC"/><use transform="matrix(0.055555555555555546,0,0,0.055555555555555546,84.33333333333333,0)" xlink:href="#aH"/></g><g id="v"><use transform="matrix(0.055555555555555546,0,0,0.055555555555555546,0,0)" xlink:href="#aG"/><use transform="matrix(0.055555555555555546,0,0,0.055555555555555546,4.388888888888888,0)" xlink:href="#aB"/></g><g id="w"><use transform="matrix(0.055555555555555546,0,0,0.055555555555555546,0,0)" xlink:href="#aC"/><use transform="matrix(0.055555555555555546,0,0,0.055555555555555546,5.5555555555555545,0)" xlink:href="#aD"/><use transform="matrix(0.055555555555555546,0,0,0.055555555555555546,16.666666666666664,0)" xlink:href="#av"/></g><g id="x"><use transform="matrix(0.055555555555555546,0,0,0.055555555555555546,0,0)" xlink:href="#aC"/><use transform="matrix(0.055555555555555546,0,0,0.055555555555555546,5.5555555555555545,0)" xlink:href="#aD"/><use transform="matrix(0.055555555555555546,0,0,0.055555555555555546,16.666666666666664,0)" xlink:href="#ay"/><use transform="matrix(0.055555555555555546,0,0,0.055555555555555546,23.277777777777775,0)" xlink:href="#av"/><use transform="matrix(0.055555555555555546,0,0,0.055555555555555546,34.388888888888886,0)" xlink:href="#ax"/><use transform="matrix(0.055555555555555546,0,0,0.055555555555555546,45.49999999999999,0)" xlink:href="#aJ"/></g><g id="y"><use transform="matrix(0.055555555555555546,0,0,0.055555555555555546,0,0)" xlink:href="#aH"/><use transform="matrix(0.055555555555555546,0,0,0.055555555555555546,9.999999999999998,0)" xlink:href="#aD"/><use transform="matrix(0.055555555555555546,0,0,0.055555555555555546,21.111111111111107,0)" xlink:href="#ar"/><use transform="matrix(0.055555555555555546,0,0,0.055555555555555546,32.222222222222214,0)" xlink:href="#aI"/><use transform="matrix(0.055555555555555546,0,0,0.055555555555555546,46.6111111111111,0)" xlink:href="#aB"/></g><g id="z"><use transform="matrix(0.055555555555555546,0,0,0.055555555555555546,0,0)" xlink:href="#aC"/><use transform="matrix(0.055555555555555546,0,0,0.055555555555555546,5.5555555555555545,0)" xlink:href="#aD"/><use transform="matrix(0.055555555555555546,0,0,0.055555555555555546,16.666666666666664,0)" xlink:href="#av"/></g><g id="A"><use transform="matrix(0.055555555555555546,0,0,0.055555555555555546,0,0)" xlink:href="#aH"/><use transform="matrix(0.055555555555555546,0,0,0.055555555555555546,9.999999999999998,0)" xlink:href="#ax"/><use transform="matrix(0.055555555555555546,0,0,0.055555555555555546,21.111111111111107,0)" xlink:href="#as"/><use transform="matrix(0.055555555555555546,0,0,0.055555555555555546,37.722222222222214,0)" xlink:href="#av"/></g><g id="B"><use transform="matrix(0.055555555555555546,0,0,0.055555555555555546,0,0)" xlink:href="#aq"/><use transform="matrix(0.055555555555555546,0,0,0.055555555555555546,9.999999999999998,0)" xlink:href="#ar"/><use transform="matrix(0.055555555555555546,0,0,0.055555555555555546,21.111111111111107,0)" xlink:href="#au"/><use transform="matrix(0.055555555555555546,0,0,0.055555555555555546,25.499999999999996,0)" xlink:href="#ar"/><use transform="matrix(0.055555555555555546,0,0,0.055555555555555546,36.61111111111111,0)" xlink:href="#ay"/></g><g id="C"><use transform="matrix(0.055555555555555546,0,0,0.055555555555555546,0,0)" xlink:href="#ax"/><use transform="matrix(0.055555555555555546,0,0,0.055555555555555546,11.111111111111109,0)" xlink:href="#aH"/></g><g id="D"><use transform="matrix(0.055555555555555546,0,0,0.055555555555555546,0,0)" xlink:href="#ay"/><use transform="matrix(0.055555555555555546,0,0,0.055555555555555546,6.61111111111111,0)" xlink:href="#ar"/><use transform="matrix(0.055555555555555546,0,0,0.055555555555555546,17.722222222222218,0)" xlink:href="#ar"/><use transform="matrix(0.055555555555555546,0,0,0.055555555555555546,28.83333333333333,0)" xlink:href="#aC"/></g><g id="E"><use transform="matrix(0.055555555555555546,0,0,0.055555555555555546,0,0)" xlink:href="#aq"/><use transform="matrix(0.055555555555555546,0,0,0.055555555555555546,9.999999999999998,0)" xlink:href="#au"/><use transform="matrix(0.055555555555555546,0,0,0.055555555555555546,14.388888888888886,0)" xlink:href="#ax"/><use transform="matrix(0.055555555555555546,0,0,0.055555555555555546,25.499999999999993,0)" xlink:href="#aG"/><use transform="matrix(0.055555555555555546,0,0,0.055555555555555546,29.888888888888882,0)" xlink:href="#as"/><use transform="matrix(0.055555555555555546,0,0,0.055555555555555546,46.499999999999986,0)" xlink:href="#aE"/></g><path fill="#333" d="M185-189c-5-48-123-54-124 2 14 75 158 14 163 119 3 78-121 87-175 55-17-10-28-26-33-46l33-7c5 56 141 63 141-1 0-78-155-14-162-118-5-82 145-84 179-34 5 7 8 16 11 25" id="aM"/><g id="G"><use transform="matrix(0.055555555555555546,0,0,0.055555555555555546,0,0)" xlink:href="#aM"/><use transform="matrix(0.055555555555555546,0,0,0.055555555555555546,13.33333333333333,0)" xlink:href="#ar"/></g><path fill="#333" d="M767-723c156 29 257 137 257 313 0 227-148 347-325 408C487 71 231 0-8 0l6-73c43-9 75-20 98-31s35-21 36-30l144-1034c-52 6-96 15-142 25v-84c267-72 884-155 884 187 0 166-112 268-251 317zm11 348c6-201-139-298-346-246l-68 487c4 29 57 39 88 45 213 35 320-90 326-286zm-6-612c0-148-105-208-262-196l-62 443c188 2 324-65 324-247" id="aN"/><path fill="#333" d="M233-535l677 341v-677zM6-535l1018-506V-23" id="aO"/><path fill="#333" d="M53-472c11-39 30-79 46-113h543l33 31c-11 38-31 80-46 114H85" id="aP"/><path fill="#333" d="M1119-547c-83 22-108 56-115 151-5 72-18 158-27 227C865-81 764-5 612 22 350 69 177-80 99-272c-73-181-28-439 45-580 126-240 298-438 657-438 127 0 242 41 314 102-13 74-68 135-105 188-9 12-18 20-24 25l-58-13c-47-95-110-176-251-176-238 0-321 256-363 484-52 279 28 552 289 552 58 0 111-13 148-43l42-294c-3-46-46-47-92-60-28-8-68-14-118-22l6-73h536" id="aQ"/><g id="H"><use transform="matrix(0.010850694444444444,0,0,0.010850694444444444,0,0)" xlink:href="#aN"/><use transform="matrix(0.010850694444444444,0,0,0.010850694444444444,11.81640625,0)" xlink:href="#aO"/><use transform="matrix(0.010850694444444444,0,0,0.010850694444444444,22.92751736111111,0)" xlink:href="#aP"/><use transform="matrix(0.010850694444444444,0,0,0.010850694444444444,30.826822916666664,0)" xlink:href="#aQ"/></g><g id="I"><use transform="matrix(0.055555555555555546,0,0,0.055555555555555546,0,0)" xlink:href="#aH"/><use transform="matrix(0.055555555555555546,0,0,0.055555555555555546,9.999999999999998,0)" xlink:href="#aA"/><use transform="matrix(0.055555555555555546,0,0,0.055555555555555546,21.111111111111107,0)" xlink:href="#at"/><use transform="matrix(0.055555555555555546,0,0,0.055555555555555546,32.222222222222214,0)" xlink:href="#at"/><use transform="matrix(0.055555555555555546,0,0,0.055555555555555546,43.33333333333332,0)" xlink:href="#ar"/><use transform="matrix(0.055555555555555546,0,0,0.055555555555555546,54.44444444444443,0)" xlink:href="#ay"/><use transform="matrix(0.055555555555555546,0,0,0.055555555555555546,61.05555555555553,0)" xlink:href="#aC"/><use transform="matrix(0.055555555555555546,0,0,0.055555555555555546,66.61111111111109,0)" xlink:href="#aH"/></g><g id="J"><use transform="matrix(0.055555555555555546,0,0,0.055555555555555546,0,0)" xlink:href="#aq"/><use transform="matrix(0.055555555555555546,0,0,0.055555555555555546,9.999999999999998,0)" xlink:href="#au"/><use transform="matrix(0.055555555555555546,0,0,0.055555555555555546,14.388888888888886,0)" xlink:href="#ax"/><use transform="matrix(0.055555555555555546,0,0,0.055555555555555546,25.499999999999993,0)" xlink:href="#aG"/><use transform="matrix(0.055555555555555546,0,0,0.055555555555555546,29.888888888888882,0)" xlink:href="#as"/></g><g id="K"><use transform="matrix(0.010850694444444444,0,0,0.010850694444444444,0,0)" xlink:href="#aN"/><use transform="matrix(0.055555555555555546,0,0,0.055555555555555546,11.81640625,0)" xlink:href="#aE"/></g><g id="L"><use transform="matrix(0.055555555555555546,0,0,0.055555555555555546,0,0)" xlink:href="#ap"/><use transform="matrix(0.055555555555555546,0,0,0.055555555555555546,13.33333333333333,0)" xlink:href="#aB"/><use transform="matrix(0.055555555555555546,0,0,0.055555555555555546,24.44444444444444,0)" xlink:href="#aJ"/></g><g id="M"><use transform="matrix(0.055555555555555546,0,0,0.055555555555555546,0,0)" xlink:href="#aH"/><use transform="matrix(0.055555555555555546,0,0,0.055555555555555546,9.999999999999998,0)" xlink:href="#aG"/><use transform="matrix(0.055555555555555546,0,0,0.055555555555555546,14.388888888888886,0)" xlink:href="#aB"/><use transform="matrix(0.055555555555555546,0,0,0.055555555555555546,25.499999999999993,0)" xlink:href="#aq"/><use transform="matrix(0.055555555555555546,0,0,0.055555555555555546,35.49999999999999,0)" xlink:href="#av"/></g><use transform="matrix(0.010850694444444444,0,0,0.010850694444444444,0,0)" xlink:href="#aN" id="N"/><g id="O"><use transform="matrix(0.055555555555555546,0,0,0.055555555555555546,0,0)" xlink:href="#aG"/><use transform="matrix(0.055555555555555546,0,0,0.055555555555555546,4.388888888888888,0)" xlink:href="#aH"/></g><g id="P"><use transform="matrix(0.055555555555555546,0,0,0.055555555555555546,0,0)" xlink:href="#aC"/><use transform="matrix(0.055555555555555546,0,0,0.055555555555555546,5.5555555555555545,0)" xlink:href="#aD"/><use transform="matrix(0.055555555555555546,0,0,0.055555555555555546,16.666666666666664,0)" xlink:href="#av"/></g><g id="Q"><use transform="matrix(0.055555555555555546,0,0,0.055555555555555546,0,0)" xlink:href="#at"/><use transform="matrix(0.055555555555555546,0,0,0.055555555555555546,11.111111111111109,0)" xlink:href="#ay"/><use transform="matrix(0.055555555555555546,0,0,0.055555555555555546,17.722222222222218,0)" xlink:href="#av"/><use transform="matrix(0.055555555555555546,0,0,0.055555555555555546,28.83333333333333,0)" xlink:href="#as"/><use transform="matrix(0.055555555555555546,0,0,0.055555555555555546,45.444444444444436,0)" xlink:href="#aG"/><use transform="matrix(0.055555555555555546,0,0,0.055555555555555546,49.83333333333332,0)" xlink:href="#aH"/><use transform="matrix(0.055555555555555546,0,0,0.055555555555555546,59.83333333333332,0)" xlink:href="#av"/></g><g id="R"><use transform="matrix(0.055555555555555546,0,0,0.055555555555555546,0,0)" xlink:href="#aC"/><use transform="matrix(0.055555555555555546,0,0,0.055555555555555546,5.5555555555555545,0)" xlink:href="#aI"/><use transform="matrix(0.055555555555555546,0,0,0.055555555555555546,19.94444444444444,0)" xlink:href="#ar"/></g><g id="S"><use transform="matrix(0.055555555555555546,0,0,0.055555555555555546,0,0)" xlink:href="#aJ"/><use transform="matrix(0.055555555555555546,0,0,0.055555555555555546,11.111111111111109,0)" xlink:href="#aG"/><use transform="matrix(0.055555555555555546,0,0,0.055555555555555546,15.499999999999996,0)" xlink:href="#aK"/><use transform="matrix(0.055555555555555546,0,0,0.055555555555555546,20.66666666666666,0)" xlink:href="#aK"/><use transform="matrix(0.055555555555555546,0,0,0.055555555555555546,26.222222222222214,0)" xlink:href="#av"/><use transform="matrix(0.055555555555555546,0,0,0.055555555555555546,37.33333333333332,0)" xlink:href="#ay"/><use transform="matrix(0.055555555555555546,0,0,0.055555555555555546,43.94444444444443,0)" xlink:href="#av"/><use transform="matrix(0.055555555555555546,0,0,0.055555555555555546,55.055555555555536,0)" xlink:href="#aB"/><use transform="matrix(0.055555555555555546,0,0,0.055555555555555546,66.16666666666664,0)" xlink:href="#aC"/></g><g id="T"><use transform="matrix(0.055555555555555546,0,0,0.055555555555555546,0,0)" xlink:href="#ax"/><use transform="matrix(0.055555555555555546,0,0,0.055555555555555546,11.111111111111109,0)" xlink:href="#ay"/><use transform="matrix(0.055555555555555546,0,0,0.055555555555555546,17.722222222222218,0)" xlink:href="#az"/><use transform="matrix(0.055555555555555546,0,0,0.055555555555555546,28.83333333333333,0)" xlink:href="#aA"/><use transform="matrix(0.055555555555555546,0,0,0.055555555555555546,39.944444444444436,0)" xlink:href="#as"/><use transform="matrix(0.055555555555555546,0,0,0.055555555555555546,56.55555555555554,0)" xlink:href="#av"/><use transform="matrix(0.055555555555555546,0,0,0.055555555555555546,67.66666666666666,0)" xlink:href="#aB"/><use transform="matrix(0.055555555555555546,0,0,0.055555555555555546,78.77777777777777,0)" xlink:href="#aC"/><use transform="matrix(0.055555555555555546,0,0,0.055555555555555546,84.33333333333333,0)" xlink:href="#aH"/><use transform="matrix(0.055555555555555546,0,0,0.055555555555555546,94.33333333333333,0)" xlink:href="#aL"/></g><g id="U"><use transform="matrix(0.055555555555555546,0,0,0.055555555555555546,0,0)" xlink:href="#ax"/><use transform="matrix(0.055555555555555546,0,0,0.055555555555555546,11.111111111111109,0)" xlink:href="#au"/><use transform="matrix(0.055555555555555546,0,0,0.055555555555555546,15.499999999999996,0)" xlink:href="#aH"/><use transform="matrix(0.055555555555555546,0,0,0.055555555555555546,25.499999999999993,0)" xlink:href="#ar"/></g><g id="V"><use transform="matrix(0.055555555555555546,0,0,0.055555555555555546,0,0)" xlink:href="#ar"/><use transform="matrix(0.055555555555555546,0,0,0.055555555555555546,11.111111111111109,0)" xlink:href="#at"/><use transform="matrix(0.055555555555555546,0,0,0.055555555555555546,22.222222222222218,0)" xlink:href="#at"/><use transform="matrix(0.055555555555555546,0,0,0.055555555555555546,33.33333333333333,0)" xlink:href="#ar"/><use transform="matrix(0.055555555555555546,0,0,0.055555555555555546,44.444444444444436,0)" xlink:href="#aH"/><use transform="matrix(0.055555555555555546,0,0,0.055555555555555546,54.444444444444436,0)" xlink:href="#av"/><use transform="matrix(0.055555555555555546,0,0,0.055555555555555546,65.55555555555554,0)" xlink:href="#aH"/></g><g id="W"><use transform="matrix(0.055555555555555546,0,0,0.055555555555555546,0,0)" xlink:href="#aC"/><use transform="matrix(0.055555555555555546,0,0,0.055555555555555546,5.5555555555555545,0)" xlink:href="#aI"/><use transform="matrix(0.055555555555555546,0,0,0.055555555555555546,19.94444444444444,0)" xlink:href="#ar"/></g><g id="X"><use transform="matrix(0.055555555555555546,0,0,0.055555555555555546,0,0)" xlink:href="#ax"/><use transform="matrix(0.055555555555555546,0,0,0.055555555555555546,11.111111111111109,0)" xlink:href="#ay"/><use transform="matrix(0.055555555555555546,0,0,0.055555555555555546,17.722222222222218,0)" xlink:href="#az"/><use transform="matrix(0.055555555555555546,0,0,0.055555555555555546,28.83333333333333,0)" xlink:href="#aA"/><use transform="matrix(0.055555555555555546,0,0,0.055555555555555546,39.944444444444436,0)" xlink:href="#as"/><use transform="matrix(0.055555555555555546,0,0,0.055555555555555546,56.55555555555554,0)" xlink:href="#av"/><use transform="matrix(0.055555555555555546,0,0,0.055555555555555546,67.66666666666666,0)" xlink:href="#aB"/><use transform="matrix(0.055555555555555546,0,0,0.055555555555555546,78.77777777777777,0)" xlink:href="#aC"/><use transform="matrix(0.055555555555555546,0,0,0.055555555555555546,84.33333333333333,0)" xlink:href="#aH"/><use transform="matrix(0.055555555555555546,0,0,0.055555555555555546,94.33333333333333,0)" xlink:href="#aE"/></g><path fill="#333" d="M371-429L244-141c-9 21-3 36 16 45s54 16 104 23l-9 73H-50l10-73c71-17 125-16 148-68l468-1064c61-50 141-86 225-112l227 1176c8 50 51 60 105 68l-9 73H663l10-73c48-3 82-10 101-20s26-26 22-48l-54-288H371zm348-121l-90-472-205 472h295" id="aR"/><path fill="#333" d="M6-535l1018-506V-23" id="aS"/><path fill="#333" d="M957-211C830-91 701 27 480 27 202 27 61-172 61-459c0-329 146-547 329-708 148-130 524-173 686-23-20 71-67 134-104 190-9 12-17 20-23 25l-60-15c-40-104-145-208-291-152-213 81-296 340-296 626 0 220 87 382 286 382 148 0 230-77 333-145 17 14 25 48 36 68" id="aT"/><g id="Z"><use transform="matrix(0.010850694444444444,0,0,0.010850694444444444,0,0)" xlink:href="#aR"/><use transform="matrix(0.010850694444444444,0,0,0.010850694444444444,12.955729166666666,0)" xlink:href="#aS"/><use transform="matrix(0.010850694444444444,0,0,0.010850694444444444,24.06684027777778,0)" xlink:href="#aN"/><use transform="matrix(0.010850694444444444,0,0,0.010850694444444444,35.88324652777778,0)" xlink:href="#aO"/><use transform="matrix(0.010850694444444444,0,0,0.010850694444444444,46.994357638888886,0)" xlink:href="#aP"/><use transform="matrix(0.010850694444444444,0,0,0.010850694444444444,54.89366319444444,0)" xlink:href="#aT"/></g><path fill="#333" d="M642-1187c-43 9-77 20-100 31s-36 22-37 31l-55 405h480l56-405c1-8-8-18-26-30s-49-23-92-32l9-73h487l-10 73c-43 9-77 20-100 31s-35 22-36 31l-136 991c-1 8 7 18 26 30s50 22 93 31l-9 73H705l10-73c43-9 76-20 99-31s35-21 36-30l64-466H433l-63 466c-1 8 8 18 26 30s49 22 93 31L479 0H-8L2-73c43-9 77-20 100-31s35-21 36-30l136-991c1-8-7-18-26-30s-50-23-93-32l10-73h487" id="aU"/><g id="aa"><use transform="matrix(0.010850694444444444,0,0,0.010850694444444444,0,0)" xlink:href="#aR"/><use transform="matrix(0.010850694444444444,0,0,0.010850694444444444,12.955729166666666,0)" xlink:href="#aS"/><use transform="matrix(0.010850694444444444,0,0,0.010850694444444444,24.06684027777778,0)" xlink:href="#aN"/><use transform="matrix(0.010850694444444444,0,0,0.010850694444444444,35.88324652777778,0)" xlink:href="#aS"/><use transform="matrix(0.010850694444444444,0,0,0.010850694444444444,46.994357638888886,0)" xlink:href="#aP"/><use transform="matrix(0.010850694444444444,0,0,0.010850694444444444,54.89366319444444,0)" xlink:href="#aU"/></g><path fill="#333" d="M930-727c7-291-112-484-418-453L374-162c-3 19 4 35 23 42 53 21 177 15 231-14 194-102 295-311 302-593zm-314-563c365 0 566 177 566 537 0 217-78 382-180 509C894-109 745 0 511 0H-8L2-73c42-9 74-20 97-31s35-21 36-30l142-1025-141 20v-93c143-33 308-58 480-58" id="aV"/><g id="ab"><use transform="matrix(0.010850694444444444,0,0,0.010850694444444444,0,0)" xlink:href="#aR"/><use transform="matrix(0.010850694444444444,0,0,0.010850694444444444,12.955729166666666,0)" xlink:href="#aS"/><use transform="matrix(0.010850694444444444,0,0,0.010850694444444444,24.06684027777778,0)" xlink:href="#aN"/><use transform="matrix(0.010850694444444444,0,0,0.010850694444444444,35.88324652777778,0)" xlink:href="#aO"/><use transform="matrix(0.010850694444444444,0,0,0.010850694444444444,46.994357638888886,0)" xlink:href="#aT"/><use transform="matrix(0.010850694444444444,0,0,0.010850694444444444,58.27907986111111,0)" xlink:href="#aO"/><use transform="matrix(0.010850694444444444,0,0,0.010850694444444444,69.39019097222221,0)" xlink:href="#aP"/><use transform="matrix(0.010850694444444444,0,0,0.010850694444444444,77.28949652777777,0)" xlink:href="#aV"/></g><g id="ac"><use transform="matrix(0.010850694444444444,0,0,0.010850694444444444,0,0)" xlink:href="#aN"/><use transform="matrix(0.010850694444444444,0,0,0.010850694444444444,11.81640625,0)" xlink:href="#aO"/><use transform="matrix(0.010850694444444444,0,0,0.010850694444444444,22.92751736111111,0)" xlink:href="#aP"/><use transform="matrix(0.010850694444444444,0,0,0.010850694444444444,30.826822916666664,0)" xlink:href="#aQ"/></g><g id="ad"><use transform="matrix(0.010850694444444444,0,0,0.010850694444444444,0,0)" xlink:href="#aR"/><use transform="matrix(0.010850694444444444,0,0,0.010850694444444444,12.955729166666666,0)" xlink:href="#aS"/><use transform="matrix(0.010850694444444444,0,0,0.010850694444444444,24.06684027777778,0)" xlink:href="#aP"/><use transform="matrix(0.010850694444444444,0,0,0.010850694444444444,31.966145833333336,0)" xlink:href="#aN"/></g><g id="ae"><use transform="matrix(0.010850694444444444,0,0,0.010850694444444444,0,0)" xlink:href="#aU"/><use transform="matrix(0.010850694444444444,0,0,0.010850694444444444,14.171006944444445,0)" xlink:href="#aO"/><use transform="matrix(0.010850694444444444,0,0,0.010850694444444444,25.28211805555556,0)" xlink:href="#aP"/><use transform="matrix(0.010850694444444444,0,0,0.010850694444444444,33.181423611111114,0)" xlink:href="#aN"/></g><use transform="matrix(0.010850694444444444,0,0,0.010850694444444444,0,0)" xlink:href="#aR" id="af"/><use transform="matrix(0.010850694444444444,0,0,0.010850694444444444,0,0)" xlink:href="#aN" id="ag"/><use transform="matrix(0.010850694444444444,0,0,0.010850694444444444,0,0)" xlink:href="#aU" id="ah"/><g id="ai"><use transform="matrix(0.055555555555555546,0,0,0.055555555555555546,0,0)" xlink:href="#aI"/><use transform="matrix(0.055555555555555546,0,0,0.055555555555555546,14.388888888888886,0)" xlink:href="#ax"/><use transform="matrix(0.055555555555555546,0,0,0.055555555555555546,25.499999999999993,0)" xlink:href="#ay"/><use transform="matrix(0.055555555555555546,0,0,0.055555555555555546,32.1111111111111,0)" xlink:href="#ay"/><use transform="matrix(0.055555555555555546,0,0,0.055555555555555546,38.72222222222221,0)" xlink:href="#ax"/><use transform="matrix(0.055555555555555546,0,0,0.055555555555555546,49.833333333333314,0)" xlink:href="#aB"/><use transform="matrix(0.055555555555555546,0,0,0.055555555555555546,60.94444444444442,0)" xlink:href="#aC"/></g><g id="aj"><use transform="matrix(0.055555555555555546,0,0,0.055555555555555546,0,0)" xlink:href="#ax"/><use transform="matrix(0.055555555555555546,0,0,0.055555555555555546,11.111111111111109,0)" xlink:href="#ay"/><use transform="matrix(0.055555555555555546,0,0,0.055555555555555546,17.722222222222218,0)" xlink:href="#az"/><use transform="matrix(0.055555555555555546,0,0,0.055555555555555546,28.83333333333333,0)" xlink:href="#aA"/><use transform="matrix(0.055555555555555546,0,0,0.055555555555555546,39.944444444444436,0)" xlink:href="#as"/><use transform="matrix(0.055555555555555546,0,0,0.055555555555555546,56.55555555555554,0)" xlink:href="#av"/><use transform="matrix(0.055555555555555546,0,0,0.055555555555555546,67.66666666666666,0)" xlink:href="#aB"/><use transform="matrix(0.055555555555555546,0,0,0.055555555555555546,78.77777777777777,0)" xlink:href="#aC"/></g><g id="ak"><use transform="matrix(0.055555555555555546,0,0,0.055555555555555546,0,0)" xlink:href="#ar"/><use transform="matrix(0.055555555555555546,0,0,0.055555555555555546,11.111111111111109,0)" xlink:href="#at"/><use transform="matrix(0.055555555555555546,0,0,0.055555555555555546,22.222222222222218,0)" xlink:href="#at"/><use transform="matrix(0.055555555555555546,0,0,0.055555555555555546,33.33333333333333,0)" xlink:href="#ar"/><use transform="matrix(0.055555555555555546,0,0,0.055555555555555546,44.444444444444436,0)" xlink:href="#aH"/><use transform="matrix(0.055555555555555546,0,0,0.055555555555555546,54.444444444444436,0)" xlink:href="#av"/><use transform="matrix(0.055555555555555546,0,0,0.055555555555555546,65.55555555555554,0)" xlink:href="#aH"/></g><g id="al"><use transform="matrix(0.055555555555555546,0,0,0.055555555555555546,0,0)" xlink:href="#aH"/><use transform="matrix(0.055555555555555546,0,0,0.055555555555555546,9.999999999999998,0)" xlink:href="#aA"/><use transform="matrix(0.055555555555555546,0,0,0.055555555555555546,21.111111111111107,0)" xlink:href="#at"/><use transform="matrix(0.055555555555555546,0,0,0.055555555555555546,32.222222222222214,0)" xlink:href="#at"/><use transform="matrix(0.055555555555555546,0,0,0.055555555555555546,43.33333333333332,0)" xlink:href="#ar"/><use transform="matrix(0.055555555555555546,0,0,0.055555555555555546,54.44444444444443,0)" xlink:href="#ay"/><use transform="matrix(0.055555555555555546,0,0,0.055555555555555546,61.05555555555553,0)" xlink:href="#aC"/><use transform="matrix(0.055555555555555546,0,0,0.055555555555555546,66.61111111111109,0)" xlink:href="#aH"/></g><g id="am"><use transform="matrix(0.055555555555555546,0,0,0.055555555555555546,0,0)" xlink:href="#av"/><use transform="matrix(0.055555555555555546,0,0,0.055555555555555546,11.111111111111109,0)" xlink:href="#aw"/><use transform="matrix(0.055555555555555546,0,0,0.055555555555555546,21.111111111111107,0)" xlink:href="#at"/><use transform="matrix(0.055555555555555546,0,0,0.055555555555555546,32.222222222222214,0)" xlink:href="#au"/><use transform="matrix(0.055555555555555546,0,0,0.055555555555555546,36.6111111111111,0)" xlink:href="#aG"/><use transform="matrix(0.055555555555555546,0,0,0.055555555555555546,40.999999999999986,0)" xlink:href="#aq"/><use transform="matrix(0.055555555555555546,0,0,0.055555555555555546,50.999999999999986,0)" xlink:href="#aG"/><use transform="matrix(0.055555555555555546,0,0,0.055555555555555546,55.38888888888887,0)" xlink:href="#aC"/></g><g id="an"><use transform="matrix(0.055555555555555546,0,0,0.055555555555555546,0,0)" xlink:href="#aq"/><use transform="matrix(0.055555555555555546,0,0,0.055555555555555546,9.999999999999998,0)" xlink:href="#au"/><use transform="matrix(0.055555555555555546,0,0,0.055555555555555546,14.388888888888886,0)" xlink:href="#ax"/><use transform="matrix(0.055555555555555546,0,0,0.055555555555555546,25.499999999999993,0)" xlink:href="#aG"/><use transform="matrix(0.055555555555555546,0,0,0.055555555555555546,29.888888888888882,0)" xlink:href="#as"/></g><g id="ao"><use transform="matrix(0.055555555555555546,0,0,0.055555555555555546,0,0)" xlink:href="#at"/><use transform="matrix(0.055555555555555546,0,0,0.055555555555555546,11.111111111111109,0)" xlink:href="#ay"/><use transform="matrix(0.055555555555555546,0,0,0.055555555555555546,17.722222222222218,0)" xlink:href="#av"/><use transform="matrix(0.055555555555555546,0,0,0.055555555555555546,28.83333333333333,0)" xlink:href="#as"/><use transform="matrix(0.055555555555555546,0,0,0.055555555555555546,45.444444444444436,0)" xlink:href="#aG"/><use transform="matrix(0.055555555555555546,0,0,0.055555555555555546,49.83333333333332,0)" xlink:href="#aH"/><use transform="matrix(0.055555555555555546,0,0,0.055555555555555546,59.83333333333332,0)" xlink:href="#av"/></g></defs></g></svg>