<svg xmlns="http://www.w3.org/2000/svg" xmlns:xlink="http://www.w3.org/1999/xlink" xmlns:lucid="lucid" width="748.81" height="678"><g transform="translate(20 17.999999999999996)" lucid:page-tab-id="0_0"><path d="M0 362c0-3.3 2.7-6 6-6h669c3.3 0 6 2.7 6 6v192c0 3.3-2.7 6-6 6H6c-3.3 0-6-2.7-6-6z" stroke="#5e5e5e" fill-opacity="0"/><path d="M6 586c0-3.3 2.7-6 6-6h663c3.3 0 6 2.7 6 6v48c0 3.3-2.7 6-6 6H12c-3.3 0-6-2.7-6-6z" stroke="#000" stroke-opacity="0" stroke-width="3" fill="#fff" fill-opacity="0"/><use xlink:href="#a" transform="matrix(1,0,0,1,11,585) translate(0 19.422743055555554)"/><use xlink:href="#b" transform="matrix(1,0,0,1,11,585) translate(17.777777777777775 19.422743055555554)"/><use xlink:href="#c" transform="matrix(1,0,0,1,11,585) translate(74.38888888888887 19.422743055555554)"/><use xlink:href="#d" transform="matrix(1,0,0,1,11,585) translate(96.61111111111109 19.422743055555554)"/><use xlink:href="#e" transform="matrix(1,0,0,1,11,585) translate(130.99999999999997 19.422743055555554)"/><use xlink:href="#f" transform="matrix(1,0,0,1,11,585) translate(200.88888888888886 19.422743055555554)"/><use xlink:href="#g" transform="matrix(1,0,0,1,11,585) translate(290.7777777777777 19.422743055555554)"/><use xlink:href="#f" transform="matrix(1,0,0,1,11,585) translate(344.0555555555555 19.422743055555554)"/><use xlink:href="#h" transform="matrix(1,0,0,1,11,585) translate(433.94444444444434 19.422743055555554)"/><use xlink:href="#i" transform="matrix(1,0,0,1,11,585) translate(524.8333333333333 19.422743055555554)"/><use xlink:href="#j" transform="matrix(1,0,0,1,11,585) translate(545.8888888888888 19.422743055555554)"/><use xlink:href="#k" transform="matrix(1,0,0,1,11,585) translate(0 43.42274305555555)"/><use xlink:href="#l" transform="matrix(1,0,0,1,11,585) translate(82.16666666666666 43.42274305555555)"/><use xlink:href="#m" transform="matrix(1,0,0,1,11,585) translate(123.16666666666666 43.42274305555555)"/><use xlink:href="#n" transform="matrix(1,0,0,1,11,585) translate(206.4444444444444 43.42274305555555)"/><use xlink:href="#o" transform="matrix(1,0,0,1,11,585) translate(266.4444444444444 43.42274305555555)"/><use xlink:href="#p" transform="matrix(1,0,0,1,11,585) translate(295.2777777777777 43.42274305555555)"/><use xlink:href="#q" transform="matrix(1,0,0,1,11,585) translate(357.33333333333326 43.42274305555555)"/><use xlink:href="#r" transform="matrix(1,0,0,1,11,585) translate(396.2222222222222 43.42274305555555)"/><path d="M240 207.18c0-3.3 2.7-6 6-6h108.07c3.3 0 6 2.7 6 6v33.5c0 3.32-2.7 6-6 6H246c-3.3 0-6-2.68-6-6z" fill="#c1e4f7" fill-opacity=".38"/><path d="M241.5 207.18c0 .83-.67 1.5-1.5 1.5s-1.5-.67-1.5-1.5.67-1.5 1.5-1.5 1.5.67 1.5 1.5zm1.9-4.1c0 .83-.68 1.5-1.5 1.5-.83 0-1.5-.67-1.5-1.5s.67-1.5 1.5-1.5c.82 0 1.5.67 1.5 1.5zm4.1-1.9c0 .83-.67 1.5-1.5 1.5s-1.5-.67-1.5-1.5.67-1.5 1.5-1.5 1.5.67 1.5 1.5zm6 0c0 .83-.67 1.5-1.5 1.5-.82 0-1.5-.67-1.5-1.5s.68-1.5 1.5-1.5c.83 0 1.5.67 1.5 1.5zm6 0c0 .83-.66 1.5-1.5 1.5-.82 0-1.5-.67-1.5-1.5s.68-1.5 1.5-1.5c.84 0 1.5.67 1.5 1.5zm6 0c0 .83-.66 1.5-1.5 1.5-.82 0-1.5-.67-1.5-1.5s.68-1.5 1.5-1.5c.84 0 1.5.67 1.5 1.5zm6 0c0 .83-.66 1.5-1.5 1.5-.8 0-1.5-.67-1.5-1.5s.7-1.5 1.5-1.5c.84 0 1.5.67 1.5 1.5zm6.02 0c0 .83-.67 1.5-1.5 1.5s-1.5-.67-1.5-1.5.67-1.5 1.5-1.5 1.5.67 1.5 1.5zm6 0c0 .83-.67 1.5-1.5 1.5s-1.5-.67-1.5-1.5.67-1.5 1.5-1.5 1.5.67 1.5 1.5zm6 0c0 .83-.67 1.5-1.5 1.5-.82 0-1.5-.67-1.5-1.5s.68-1.5 1.5-1.5c.83 0 1.5.67 1.5 1.5zm6 0c0 .83-.66 1.5-1.5 1.5-.82 0-1.5-.67-1.5-1.5s.68-1.5 1.5-1.5c.84 0 1.5.67 1.5 1.5zm6 0c0 .83-.66 1.5-1.5 1.5-.82 0-1.5-.67-1.5-1.5s.68-1.5 1.5-1.5c.84 0 1.5.67 1.5 1.5zm6.02 0c0 .83-.67 1.5-1.5 1.5s-1.5-.67-1.5-1.5.67-1.5 1.5-1.5 1.5.67 1.5 1.5zm6 0c0 .83-.67 1.5-1.5 1.5s-1.5-.67-1.5-1.5.67-1.5 1.5-1.5 1.5.67 1.5 1.5zm6 0c0 .83-.67 1.5-1.5 1.5-.82 0-1.5-.67-1.5-1.5s.68-1.5 1.5-1.5c.83 0 1.5.67 1.5 1.5zm6 0c0 .83-.66 1.5-1.5 1.5-.82 0-1.5-.67-1.5-1.5s.68-1.5 1.5-1.5c.84 0 1.5.67 1.5 1.5zm6 0c0 .83-.66 1.5-1.5 1.5-.82 0-1.5-.67-1.5-1.5s.68-1.5 1.5-1.5c.84 0 1.5.67 1.5 1.5zm6 0c0 .83-.66 1.5-1.5 1.5-.8 0-1.5-.67-1.5-1.5s.7-1.5 1.5-1.5c.84 0 1.5.67 1.5 1.5zm6.02 0c0 .83-.67 1.5-1.5 1.5s-1.5-.67-1.5-1.5.67-1.5 1.5-1.5 1.5.67 1.5 1.5zm6 0c0 .83-.67 1.5-1.5 1.5s-1.5-.67-1.5-1.5.67-1.5 1.5-1.5 1.5.67 1.5 1.5zm6 0c0 .83-.67 1.5-1.5 1.5-.82 0-1.5-.67-1.5-1.5s.68-1.5 1.5-1.5c.83 0 1.5.67 1.5 1.5zm4.1 1.9c0 .83-.66 1.5-1.5 1.5-.82 0-1.5-.67-1.5-1.5s.68-1.5 1.5-1.5c.84 0 1.5.67 1.5 1.5zm1.9 4.1c0 .83-.67 1.5-1.5 1.5-.82 0-1.5-.67-1.5-1.5s.68-1.5 1.5-1.5c.83 0 1.5.67 1.5 1.5zm0 5.6c0 .8-.67 1.5-1.5 1.5-.82 0-1.5-.7-1.5-1.5 0-.84.68-1.5 1.5-1.5.83 0 1.5.66 1.5 1.5zm0 5.57c0 .83-.67 1.5-1.5 1.5-.82 0-1.5-.67-1.5-1.5s.68-1.5 1.5-1.5c.83 0 1.5.67 1.5 1.5zm0 5.58c0 .83-.67 1.5-1.5 1.5-.82 0-1.5-.67-1.5-1.5s.68-1.5 1.5-1.5c.83 0 1.5.67 1.5 1.5zm0 5.6c0 .8-.67 1.5-1.5 1.5-.82 0-1.5-.7-1.5-1.5 0-.84.68-1.5 1.5-1.5.83 0 1.5.66 1.5 1.5zm0 5.57c0 .83-.67 1.5-1.5 1.5-.82 0-1.5-.67-1.5-1.5s.68-1.5 1.5-1.5c.83 0 1.5.67 1.5 1.5zm0 5.58c0 .83-.67 1.5-1.5 1.5-.82 0-1.5-.67-1.5-1.5s.68-1.5 1.5-1.5c.83 0 1.5.67 1.5 1.5zm-1.9 4.1c0 .83-.66 1.5-1.5 1.5-.82 0-1.5-.67-1.5-1.5 0-.82.68-1.5 1.5-1.5.84 0 1.5.68 1.5 1.5zm-4.1 1.9c0 .83-.67 1.5-1.5 1.5-.82 0-1.5-.67-1.5-1.5s.68-1.5 1.5-1.5c.83 0 1.5.67 1.5 1.5zm-6 0c0 .83-.67 1.5-1.5 1.5s-1.5-.67-1.5-1.5.67-1.5 1.5-1.5 1.5.67 1.5 1.5zm-6 0c0 .83-.67 1.5-1.5 1.5s-1.5-.67-1.5-1.5.67-1.5 1.5-1.5 1.5.67 1.5 1.5zm-6 0c0 .83-.68 1.5-1.5 1.5-.83 0-1.5-.67-1.5-1.5s.67-1.5 1.5-1.5c.82 0 1.5.67 1.5 1.5zm-6 0c0 .83-.68 1.5-1.5 1.5-.84 0-1.5-.67-1.5-1.5s.66-1.5 1.5-1.5c.82 0 1.5.67 1.5 1.5zm-6 0c0 .83-.68 1.5-1.5 1.5-.84 0-1.5-.67-1.5-1.5s.66-1.5 1.5-1.5c.82 0 1.5.67 1.5 1.5zm-6.02 0c0 .83-.67 1.5-1.5 1.5-.82 0-1.5-.67-1.5-1.5s.68-1.5 1.5-1.5c.83 0 1.5.67 1.5 1.5zm-6 0c0 .83-.67 1.5-1.5 1.5s-1.5-.67-1.5-1.5.67-1.5 1.5-1.5 1.5.67 1.5 1.5zm-6 0c0 .83-.67 1.5-1.5 1.5s-1.5-.67-1.5-1.5.67-1.5 1.5-1.5 1.5.67 1.5 1.5zm-6 0c0 .83-.68 1.5-1.5 1.5-.84 0-1.5-.67-1.5-1.5s.66-1.5 1.5-1.5c.82 0 1.5.67 1.5 1.5zm-6 0c0 .83-.68 1.5-1.5 1.5-.84 0-1.5-.67-1.5-1.5s.66-1.5 1.5-1.5c.82 0 1.5.67 1.5 1.5zm-6 0c0 .83-.7 1.5-1.5 1.5-.84 0-1.5-.67-1.5-1.5s.66-1.5 1.5-1.5c.8 0 1.5.67 1.5 1.5zm-6.02 0c0 .83-.67 1.5-1.5 1.5s-1.5-.67-1.5-1.5.67-1.5 1.5-1.5 1.5.67 1.5 1.5zm-6 0c0 .83-.67 1.5-1.5 1.5s-1.5-.67-1.5-1.5.67-1.5 1.5-1.5 1.5.67 1.5 1.5zm-6 0c0 .83-.68 1.5-1.5 1.5-.83 0-1.5-.67-1.5-1.5s.67-1.5 1.5-1.5c.82 0 1.5.67 1.5 1.5zm-6 0c0 .83-.68 1.5-1.5 1.5-.84 0-1.5-.67-1.5-1.5s.66-1.5 1.5-1.5c.82 0 1.5.67 1.5 1.5zm-6 0c0 .83-.68 1.5-1.5 1.5-.84 0-1.5-.67-1.5-1.5s.66-1.5 1.5-1.5c.82 0 1.5.67 1.5 1.5zm-6.02 0c0 .83-.67 1.5-1.5 1.5-.82 0-1.5-.67-1.5-1.5s.68-1.5 1.5-1.5c.83 0 1.5.67 1.5 1.5zm-6 0c0 .83-.67 1.5-1.5 1.5s-1.5-.67-1.5-1.5.67-1.5 1.5-1.5 1.5.67 1.5 1.5zm-4.1-1.9c0 .83-.68 1.5-1.5 1.5-.83 0-1.5-.67-1.5-1.5 0-.82.67-1.5 1.5-1.5.82 0 1.5.68 1.5 1.5zm-1.9-4.1c0 .83-.67 1.5-1.5 1.5s-1.5-.67-1.5-1.5.67-1.5 1.5-1.5 1.5.67 1.5 1.5zm0-5.58c0 .83-.67 1.5-1.5 1.5s-1.5-.67-1.5-1.5.67-1.5 1.5-1.5 1.5.67 1.5 1.5zm0-5.58c0 .82-.67 1.5-1.5 1.5s-1.5-.68-1.5-1.5c0-.83.67-1.5 1.5-1.5s1.5.67 1.5 1.5zm0-5.6c0 .84-.67 1.5-1.5 1.5s-1.5-.66-1.5-1.5c0-.82.67-1.5 1.5-1.5s1.5.68 1.5 1.5zm0-5.57c0 .83-.67 1.5-1.5 1.5s-1.5-.67-1.5-1.5.67-1.5 1.5-1.5 1.5.67 1.5 1.5zm0-5.58c0 .82-.67 1.5-1.5 1.5s-1.5-.68-1.5-1.5c0-.83.67-1.5 1.5-1.5s1.5.67 1.5 1.5z"/><use xlink:href="#s" transform="matrix(1,0,0,1,252,213.18228063206192) translate(13.501085069444443 19.422743055555554)"/><path d="M179.25 8c0-3.3 2.68-6 6-6h25c3.32 0 6 2.7 6 6v33.5c0 3.3-2.68 6-6 6h-25c-3.32 0-6-2.7-6-6z" stroke="#000" stroke-width="3" fill="#c1e4f7" fill-opacity=".39"/><use xlink:href="#t" transform="matrix(1,0,0,1,191.24531284574962,14.000000000000004) translate(0.522135416666667 19.422743055555554)"/><path d="M197.75 67.5v22.1" stroke="#0c7cba" stroke-width="2" fill="none"/><path d="M197.75 52.24l4.64 14.26h-9.3z" stroke="#0c7cba" stroke-width="2" fill="#0c7cba"/><path d="M198.75 90.63l-1.92-.05-.08.02v-1.02h2" fill="#0c7cba"/><path d="M256.05 120.58h37.98c3.32 0 6 2.7 6 6v72.1" stroke="#0c7cba" stroke-width="2" fill="none"/><path d="M240.78 120.58l14.27-4.64v9.28z" stroke="#0c7cba" stroke-width="2" fill="#0c7cba"/><path d="M301.03 199.68h-2v-1.02h2" fill="#0c7cba"/><path d="M159.4 253.9v18.78c0 .1.08.2.2.2.1 0 .2.1.2.2v1.26" stroke="#000" stroke-width="2" fill="none"/><path d="M160.3 252.93l.1-.02v1.04h-2v-1.05"/><path d="M159.8 289.6l-4.65-14.26h9.27z" stroke="#000" stroke-width="2" fill="#fff"/><path d="M140.9 300.34c0-3.3 2.68-6 6-6h25.78c3.32 0 6 2.7 6 6v33.5c0 3.32-2.68 6-6 6h-25.8c-3.3 0-6-2.68-6-6z" stroke="#000" stroke-width="3" fill="#7ab648" fill-opacity=".39"/><use xlink:href="#u" transform="matrix(1,0,0,1,152.89087021343408,306.3430768891235) translate(0.9236111111111116 19.422743055555554)"/><path d="M40 206.4c0-3.32 2.7-6 6-6h28c3.3 0 6 2.68 6 6v33.5c0 3.3-2.7 6-6 6H46c-3.3 0-6-2.7-6-6z" stroke="#000" stroke-width="3" fill="#f5b5c8" fill-opacity=".39"/><use xlink:href="#v" transform="matrix(1,0,0,1,52,212.38930084745704) translate(2.091796875 19.422743055555554)"/><path d="M100 223.06l18.6-.04" stroke="#de5f85" stroke-width="2" fill="none"/><path d="M84.74 223.1L99 218.4v9.27z" stroke="#de5f85" stroke-width="2" fill="#de5f85"/><path d="M119.5 222.44l.28 1.57-1.2.02v-2h1.1" fill="#de5f85"/><path d="M320 301.34c0-3.3 2.7-6 6-6h28.07c3.3 0 6 2.7 6 6v33.15c0 3.3-2.7 6-6 6H326c-3.3 0-6-2.7-6-6z" stroke="#000" stroke-width="3" fill="#ef8d22" fill-opacity=".39"/><use xlink:href="#w" transform="matrix(1,0,0,1,332.0000000000001,307.34307688912355) translate(2.8576388888888893 19.422743055555554)"/><path d="M156.96 120.58H66c-3.3 0-6 2.7-6 6v53.8" stroke="#000" stroke-width="2" fill="none"/><path d="M157.87 120.1l.26 1.48h-1.2v-2h1.15"/><path d="M60 195.65l-4.64-14.26h9.28z" stroke="#000" stroke-width="2" fill="#fff"/><path d="M340.03 249.18V275.35" stroke="#000" stroke-width="2" fill="none"/><path d="M341.03 249.2h-2v-1.02h2"/><path d="M340.03 290.6l-4.63-14.26h9.27z" stroke="#000" stroke-width="2" fill="#fff"/><path d="M192.95 92.53c2.65-2 6.95-2 9.6 0l32.6 24.45c2.65 2 2.65 5.2 0 7.2l-32.6 24.45c-2.65 2-6.95 2-9.6 0l-32.6-24.45c-2.65-2-2.65-5.2 0-7.2z" fill="#c1e4f7" fill-opacity=".39"/><path d="M196.9 91.08l1.7.04m3.2 1l.75.4.78.6m3.1 2.32l1.55 1.17m3.1 2.34l1.56 1.16m3.1 2.33l1.56 1.16m3.1 2.32l1.55 1.16m3.1 2.33l1.56 1.18m3.1 2.33l1.57 1.17m3.1 2.33l.78.58.9 1.08m.1 5.13l-1 .98-.78.58m-3.1 2.33l-1.56 1.15m-3.1 2.33l-1.54 1.17m-3.1 2.33l-1.56 1.16m-3.1 2.33l-1.56 1.16m-3.1 2.33l-1.55 1.17m-3.12 2.32l-1.55 1.17m-3.1 2.33l-.78.58-.75.4m-3.2 1.05l-1.7-.04m-3.2-1l-.75-.4-.78-.6m-3.1-2.32l-1.55-1.17m-3.1-2.32l-1.56-1.17m-3.1-2.33l-1.56-1.16m-3.1-2.33l-1.55-1.16m-3.1-2.33l-1.56-1.17m-3.1-2.33l-1.57-1.16m-3.1-2.34l-.78-.58-.9-1.08m-.1-5.13l1-1 .78-.57m3.1-2.33l1.56-1.16m3.1-2.32l1.54-1.17m3.1-2.32l1.56-1.16m3.1-2.33l1.56-1.17m3.1-2.33l1.55-1.16m3.12-2.33l1.55-1.16m3.1-2.33l.78-.57.75-.4" stroke="#5e5e5e" fill="none"/><use xlink:href="#x" transform="matrix(1,0,0,1,160.5524202455566,93.93207097457616) translate(16.13368923611111 32.92274305555556)"/><path d="M154.6 194.88c2.64-1.98 6.94-1.98 9.6 0l32.58 24.45c2.66 2 2.66 5.2 0 7.2l-32.6 24.45c-2.64 2-6.94 2-9.6 0L122 226.53c-2.64-2-2.64-5.2 0-7.2z" fill="#f5b5c8" fill-opacity=".39"/><path d="M158.54 193.43l1.7.05m3.2.98l.75.42.76.6m3.1 2.3l1.56 1.18m3.1 2.33l1.56 1.15m3.1 2.33l1.55 1.16m3.1 2.33l1.56 1.17m3.1 2.32l1.55 1.17m3.1 2.33l1.55 1.16m3.1 2.33l.78.58.9 1.08m.1 5.15l-1 .98-.77.58m-3.1 2.34l-1.55 1.17m-3.1 2.34l-1.56 1.16m-3.1 2.33l-1.56 1.16m-3.1 2.32l-1.56 1.16m-3.1 2.33l-1.56 1.18m-3.1 2.33l-1.55 1.17m-3.1 2.33l-.78.58-.76.4m-3.2 1.05l-1.7-.04m-3.22-1l-.73-.42-.8-.58m-3.1-2.33l-1.55-1.16m-3.1-2.32l-1.55-1.17m-3.1-2.32l-1.56-1.16m-3.1-2.33l-1.56-1.17m-3.1-2.33l-1.55-1.16m-3.1-2.33l-1.56-1.16m-3.1-2.33l-.78-.57-.92-1.07m-.1-5.14l1-1 .8-.57m3.1-2.33l1.54-1.16m3.1-2.33l1.56-1.17m3.1-2.32l1.56-1.17m3.1-2.33l1.55-1.16m3.1-2.33l1.55-1.16m3.1-2.34l1.56-1.17m3.1-2.33l.8-.6.74-.4" stroke="#de5f85" fill="none"/><use xlink:href="#y" transform="matrix(1,0,0,1,122.18887319522963,196.28385416666666) translate(16.53516493055556 32.92274305555556)"/><path d="M127.86 428h549.4v82h-549.4z" fill="#fff" fill-opacity="0"/><use xlink:href="#z" transform="matrix(1,0,0,1,132.85553986189592,433.00000000000006) translate(0 15.999999999999998)"/><use xlink:href="#A" transform="matrix(1,0,0,1,132.85553986189592,433.00000000000006) translate(51.1111111111111 15.999999999999998)"/><use xlink:href="#B" transform="matrix(1,0,0,1,132.85553986189592,433.00000000000006) translate(151 15.999999999999998)"/><use xlink:href="#C" transform="matrix(1,0,0,1,132.85553986189592,433.00000000000006) translate(170.94444444444443 15.999999999999998)"/><use xlink:href="#D" transform="matrix(1,0,0,1,132.85553986189592,433.00000000000006) translate(234.2222222222222 15.999999999999998)"/><use xlink:href="#E" transform="matrix(1,0,0,1,132.85553986189592,433.00000000000006) translate(255.27777777777774 15.999999999999998)"/><use xlink:href="#F" transform="matrix(1,0,0,1,132.85553986189592,433.00000000000006) translate(309.66666666666663 15.999999999999998)"/><use xlink:href="#G" transform="matrix(1,0,0,1,132.85553986189592,433.00000000000006) translate(342.99999999999994 15.999999999999998)"/><use xlink:href="#H" transform="matrix(1,0,0,1,132.85553986189592,433.00000000000006) translate(391.7777777777777 15.999999999999998)"/><use xlink:href="#I" transform="matrix(1,0,0,1,132.85553986189592,433.00000000000006) translate(418.4444444444444 15.999999999999998)"/><use xlink:href="#J" transform="matrix(1,0,0,1,132.85553986189592,433.00000000000006) translate(0 39.99999999999999)"/><path d="M128.8 494h530.37v93.64H128.8z" fill="#fff" fill-opacity="0"/><g><use xlink:href="#z" transform="matrix(1,0,0,1,133.80746658137463,499) translate(0 15.999999999999998)"/><use xlink:href="#K" transform="matrix(1,0,0,1,133.80746658137463,499) translate(51.1111111111111 15.999999999999998)"/><use xlink:href="#L" transform="matrix(1,0,0,1,133.80746658137463,499) translate(141 15.999999999999998)"/><use xlink:href="#M" transform="matrix(1,0,0,1,133.80746658137463,499) translate(178.77777777777777 15.999999999999998)"/><use xlink:href="#N" transform="matrix(1,0,0,1,133.80746658137463,499) translate(217.66666666666666 15.999999999999998)"/><use xlink:href="#O" transform="matrix(1,0,0,1,133.80746658137463,499) translate(299.7222222222222 15.999999999999998)"/><use xlink:href="#F" transform="matrix(1,0,0,1,133.80746658137463,499) translate(335.2777777777777 15.999999999999998)"/><use xlink:href="#E" transform="matrix(1,0,0,1,133.80746658137463,499) translate(368.61111111111103 15.999999999999998)"/><use xlink:href="#P" transform="matrix(1,0,0,1,133.80746658137463,499) translate(422.9999999999999 15.999999999999998)"/><use xlink:href="#Q" transform="matrix(1,0,0,1,133.80746658137463,499) translate(0 39.99999999999999)"/><use xlink:href="#R" transform="matrix(1,0,0,1,133.80746658137463,499) translate(37.77777777777777 39.99999999999999)"/><use xlink:href="#S" transform="matrix(1,0,0,1,133.80746658137463,499) translate(65.55555555555554 39.99999999999999)"/><use xlink:href="#D" transform="matrix(1,0,0,1,133.80746658137463,499) translate(114.44444444444443 39.99999999999999)"/><use xlink:href="#T" transform="matrix(1,0,0,1,133.80746658137463,499) translate(135.49999999999997 39.99999999999999)"/><use xlink:href="#U" transform="matrix(1,0,0,1,133.80746658137463,499) translate(209.72222222222217 39.99999999999999)"/><use xlink:href="#V" transform="matrix(1,0,0,1,133.80746658137463,499) translate(0 63.99999999999999)"/></g><path d="M84.3 523H16.86" stroke="#000" stroke-width="2" fill="none"/><path d="M99.56 523l-14.26 4.64v-9.28z" stroke="#000" stroke-width="2" fill="#fff"/><path d="M16.88 523h-1.02" stroke="#000" stroke-width="2" fill="none"/><path d="M81.7 452.63H16.86" stroke="#0c7cba" stroke-width="2" fill="none"/><path d="M96.96 452.63l-14.26 4.64V448z" stroke="#0c7cba" stroke-width="2" fill="#0c7cba"/><path d="M16.88 452.63h-1.02" stroke="#0c7cba" stroke-width="2" fill="none"/><path d="M346 6h331.25v40H346z" fill="#fff" fill-opacity="0"/><g><use xlink:href="#W" transform="matrix(1,0,0,1,350.9999999999999,11.000000000000004) translate(0 19.422743055555554)"/><use xlink:href="#X" transform="matrix(1,0,0,1,350.9999999999999,11.000000000000004) translate(18.28342013888889 19.422743055555554)"/><use xlink:href="#Y" transform="matrix(1,0,0,1,350.9999999999999,11.000000000000004) translate(33.21397569444444 19.422743055555554)"/><use xlink:href="#Z" transform="matrix(1,0,0,1,350.9999999999999,11.000000000000004) translate(64.20355902777777 19.422743055555554)"/><use xlink:href="#aa" transform="matrix(1,0,0,1,350.9999999999999,11.000000000000004) translate(152.00737847222223 19.422743055555554)"/><use xlink:href="#ab" transform="matrix(1,0,0,1,350.9999999999999,11.000000000000004) translate(169.63975694444446 19.422743055555554)"/></g><path d="M346 37h331.25v40H346z" fill="#fff" fill-opacity="0"/><g><use xlink:href="#ac" transform="matrix(1,0,0,1,350.9999999999999,42.00000000000002) translate(0 19.422743055555554)"/><use xlink:href="#X" transform="matrix(1,0,0,1,350.9999999999999,42.00000000000002) translate(17.14409722222222 19.422743055555554)"/><use xlink:href="#Y" transform="matrix(1,0,0,1,350.9999999999999,42.00000000000002) translate(32.07465277777777 19.422743055555554)"/><use xlink:href="#Z" transform="matrix(1,0,0,1,350.9999999999999,42.00000000000002) translate(63.0642361111111 19.422743055555554)"/><use xlink:href="#ad" transform="matrix(1,0,0,1,350.9999999999999,42.00000000000002) translate(150.86805555555554 19.422743055555554)"/><use xlink:href="#ae" transform="matrix(1,0,0,1,350.9999999999999,42.00000000000002) translate(208.61545138888886 19.422743055555554)"/><use xlink:href="#af" transform="matrix(1,0,0,1,350.9999999999999,42.00000000000002) translate(223.06857638888886 19.422743055555554)"/></g><path d="M346 68h362.8v61.43H346z" fill="#fff" fill-opacity="0"/><g><use xlink:href="#ag" transform="matrix(1,0,0,1,351,72.99999999999993) translate(0 19.422743055555554)"/><use xlink:href="#X" transform="matrix(1,0,0,1,351,72.99999999999993) translate(16.612413194444443 19.422743055555554)"/><use xlink:href="#Y" transform="matrix(1,0,0,1,351,72.99999999999993) translate(31.542968749999996 19.422743055555554)"/><use xlink:href="#Z" transform="matrix(1,0,0,1,351,72.99999999999993) translate(62.53255208333333 19.422743055555554)"/><use xlink:href="#ah" transform="matrix(1,0,0,1,351,72.99999999999993) translate(150.33637152777777 19.422743055555554)"/><use xlink:href="#ai" transform="matrix(1,0,0,1,351,72.99999999999993) translate(238.25954861111111 19.422743055555554)"/><use xlink:href="#aj" transform="matrix(1,0,0,1,351,72.99999999999993) translate(270.3125 19.422743055555554)"/></g><path d="M346 98h362.8v61.43H346z" fill="#fff" fill-opacity="0"/><g><use xlink:href="#ak" transform="matrix(1,0,0,1,351,103.00000000000001) translate(0 19.422743055555554)"/><use xlink:href="#X" transform="matrix(1,0,0,1,351,103.00000000000001) translate(17.48046875 19.422743055555554)"/><use xlink:href="#Y" transform="matrix(1,0,0,1,351,103.00000000000001) translate(32.41102430555556 19.422743055555554)"/><use xlink:href="#al" transform="matrix(1,0,0,1,351,103.00000000000001) translate(63.400607638888886 19.422743055555554)"/><use xlink:href="#am" transform="matrix(1,0,0,1,351,103.00000000000001) translate(146.44097222222223 19.422743055555554)"/><use xlink:href="#an" transform="matrix(1,0,0,1,351,103.00000000000001) translate(182.60633680555554 19.422743055555554)"/></g><path d="M18 378c0-3.3 2.7-6 6-6h25c3.3 0 6 2.7 6 6v28c0 3.33-2.7 6-6 6H24c-3.3 0-6-2.67-6-6z" stroke="#000" stroke-width="3" fill-opacity="0"/><path d="M65 377.35h115.03V428H65z" fill="#fff" fill-opacity="0"/><g><use xlink:href="#ao" transform="matrix(1,0,0,1,70.00000000000004,382.3479357933167) translate(0 15.999999999999998)"/><use xlink:href="#ap" transform="matrix(1,0,0,1,70.00000000000004,382.3479357933167) translate(39.94444444444444 15.999999999999998)"/></g><path d="M459 378c0-3.3 2.7-6 6-6h23.94c3.3 0 6 2.7 6 6v26.6c0 3.3-2.7 6-6 6H465c-3.3 0-6-2.7-6-6z" fill="#c1e4f7" fill-opacity=".38"/><path d="M460.5 378c0 .83-.67 1.5-1.5 1.5s-1.5-.67-1.5-1.5.67-1.5 1.5-1.5 1.5.67 1.5 1.5zm1.9-4.1c0 .82-.68 1.5-1.5 1.5-.83 0-1.5-.68-1.5-1.5 0-.83.67-1.5 1.5-1.5.82 0 1.5.67 1.5 1.5zm4.1-1.9c0 .83-.67 1.5-1.5 1.5s-1.5-.67-1.5-1.5.67-1.5 1.5-1.5 1.5.67 1.5 1.5zm5.98 0c0 .83-.67 1.5-1.5 1.5-.82 0-1.5-.67-1.5-1.5s.68-1.5 1.5-1.5c.83 0 1.5.67 1.5 1.5zm6 0c0 .83-.68 1.5-1.5 1.5-.84 0-1.5-.67-1.5-1.5s.66-1.5 1.5-1.5c.82 0 1.5.67 1.5 1.5zm5.97 0c0 .83-.67 1.5-1.5 1.5s-1.5-.67-1.5-1.5.67-1.5 1.5-1.5 1.5.67 1.5 1.5zm6 0c0 .83-.7 1.5-1.5 1.5-.84 0-1.5-.67-1.5-1.5s.66-1.5 1.5-1.5c.8 0 1.5.67 1.5 1.5zm4.1 1.9c0 .82-.68 1.5-1.5 1.5-.84 0-1.5-.68-1.5-1.5 0-.83.66-1.5 1.5-1.5.82 0 1.5.67 1.5 1.5zm1.9 4.1c0 .83-.7 1.5-1.5 1.5-.84 0-1.5-.67-1.5-1.5s.66-1.5 1.5-1.5c.8 0 1.5.67 1.5 1.5zm0 6.65c0 .83-.7 1.5-1.5 1.5-.84 0-1.5-.67-1.5-1.5s.66-1.5 1.5-1.5c.8 0 1.5.67 1.5 1.5zm0 6.65c0 .83-.7 1.5-1.5 1.5-.84 0-1.5-.67-1.5-1.5s.66-1.5 1.5-1.5c.8 0 1.5.67 1.5 1.5zm0 6.65c0 .83-.7 1.5-1.5 1.5-.84 0-1.5-.67-1.5-1.5s.66-1.5 1.5-1.5c.8 0 1.5.67 1.5 1.5zm0 6.65c0 .82-.7 1.5-1.5 1.5-.84 0-1.5-.68-1.5-1.5 0-.83.66-1.5 1.5-1.5.8 0 1.5.67 1.5 1.5zm-1.9 4.1c0 .83-.68 1.5-1.5 1.5-.84 0-1.5-.67-1.5-1.5s.66-1.5 1.5-1.5c.82 0 1.5.67 1.5 1.5zm-4.1 1.9c0 .82-.7 1.5-1.5 1.5-.84 0-1.5-.68-1.5-1.5 0-.83.66-1.5 1.5-1.5.8 0 1.5.67 1.5 1.5zm-6 0c0 .82-.67 1.5-1.5 1.5s-1.5-.68-1.5-1.5c0-.83.67-1.5 1.5-1.5s1.5.67 1.5 1.5zm-5.98 0c0 .82-.67 1.5-1.5 1.5s-1.5-.68-1.5-1.5c0-.83.67-1.5 1.5-1.5s1.5.67 1.5 1.5zm-6 0c0 .82-.66 1.5-1.5 1.5-.8 0-1.5-.68-1.5-1.5 0-.83.7-1.5 1.5-1.5.84 0 1.5.67 1.5 1.5zm-5.97 0c0 .82-.67 1.5-1.5 1.5s-1.5-.68-1.5-1.5c0-.83.67-1.5 1.5-1.5s1.5.67 1.5 1.5zm-4.1-1.9c0 .83-.68 1.5-1.5 1.5-.83 0-1.5-.67-1.5-1.5s.67-1.5 1.5-1.5c.82 0 1.5.67 1.5 1.5zm-1.9-4.1c0 .82-.67 1.5-1.5 1.5s-1.5-.68-1.5-1.5c0-.83.67-1.5 1.5-1.5s1.5.67 1.5 1.5zm0-6.65c0 .83-.67 1.5-1.5 1.5s-1.5-.67-1.5-1.5.67-1.5 1.5-1.5 1.5.67 1.5 1.5zm0-6.65c0 .83-.67 1.5-1.5 1.5s-1.5-.67-1.5-1.5.67-1.5 1.5-1.5 1.5.67 1.5 1.5zm0-6.65c0 .83-.67 1.5-1.5 1.5s-1.5-.67-1.5-1.5.67-1.5 1.5-1.5 1.5.67 1.5 1.5zm0-6.65c0 .83-.67 1.5-1.5 1.5s-1.5-.67-1.5-1.5.67-1.5 1.5-1.5 1.5.67 1.5 1.5z"/><path d="M503.45 375.54H681v32.8H503.45z" fill="#fff" fill-opacity="0"/><g><use xlink:href="#aq" transform="matrix(1,0,0,1,508.4532374100722,380.53801413594147) translate(0 15.999999999999998)"/><use xlink:href="#ar" transform="matrix(1,0,0,1,508.4532374100722,380.53801413594147) translate(72.05555555555553 15.999999999999998)"/></g><path d="M212.35 371.47c2.65-2 6.95-2 9.6 0l21.55 16.16c2.65 2 2.65 5.22 0 7.2L221.95 411c-2.65 1.98-6.95 1.98-9.6 0l-21.55-16.17c-2.65-1.98-2.65-5.2 0-7.2z" fill="#c1e4f7" fill-opacity=".39"/><path d="M216.3 370.02l1.7.04m3.2 1l.75.4.9.68m3.6 2.7l1.8 1.34m3.58 2.7l1.8 1.35m3.6 2.7l1.78 1.34m3.6 2.7l.9.66.9 1.08m.1 5.15l-1 .98-.9.68m-3.6 2.7l-1.78 1.35m-3.6 2.7l-1.8 1.34m-3.58 2.68l-1.8 1.35m-3.6 2.7l-.9.67-.74.4m-3.2 1.05l-1.7-.04m-3.2-.98l-.75-.42-.9-.68m-3.6-2.7l-1.78-1.34m-3.6-2.7l-1.8-1.34m-3.58-2.7l-1.8-1.34m-3.6-2.7l-.9-.67-.9-1.07m-.1-5.14l1-1 .9-.66m3.6-2.7l1.8-1.34m3.58-2.7l1.8-1.34m3.6-2.7l1.78-1.34m3.6-2.7l.9-.67.74-.4" stroke="#5e5e5e" fill="none"/><path d="M253.18 376.6H475.5v34H253.2z" fill="#fff" fill-opacity="0"/><g><use xlink:href="#as" transform="matrix(1,0,0,1,258.1801901875392,381.5965178466356) translate(0 15.999999999999998)"/><use xlink:href="#ar" transform="matrix(1,0,0,1,258.1801901875392,381.5965178466356) translate(76.49999999999999 15.999999999999998)"/></g><defs><path fill="#333" d="M205 0l-28-72H64L36 0H1l101-248h38L239 0h-34zm-38-99l-47-123c-12 45-31 82-46 123h93" id="at"/><use transform="matrix(0.055555555555555546,0,0,0.055555555555555546,0,0)" xlink:href="#at" id="a"/><path fill="#333" d="M177-190C167-65 218 103 67 71c-23-6-38-20-44-43l32-5c15 47 100 32 89-28v-30C133-14 115 1 83 1 29 1 15-40 15-95c0-56 16-97 71-98 29-1 48 16 59 35 1-10 0-23 2-32h30zM94-22c36 0 50-32 50-73 0-42-14-75-50-75-39 0-46 34-46 75s6 73 46 73" id="au"/><path fill="#333" d="M114-163C36-179 61-72 57 0H25l-1-190h30c1 12-1 29 2 39 6-27 23-49 58-41v29" id="av"/><path fill="#333" d="M141-36C126-15 110 5 73 4 37 3 15-17 15-53c-1-64 63-63 125-63 3-35-9-54-41-54-24 1-41 7-42 31l-33-3c5-37 33-52 76-52 45 0 72 20 72 64v82c-1 20 7 32 28 27v20c-31 9-61-2-59-35zM48-53c0 20 12 33 32 33 41-3 63-29 60-74-43 2-92-5-92 41" id="aw"/><path fill="#333" d="M115-194c55 1 70 41 70 98S169 2 115 4C84 4 66-9 55-30l1 105H24l-1-265h31l2 30c10-21 28-34 59-34zm-8 174c40 0 45-34 45-75s-6-73-45-74c-42 0-51 32-51 76 0 43 10 73 51 73" id="ax"/><path fill="#333" d="M106-169C34-169 62-67 57 0H25v-261h32l-1 103c12-21 28-36 61-36 89 0 53 116 60 194h-32v-121c2-32-8-49-39-48" id="ay"/><g id="b"><use transform="matrix(0.055555555555555546,0,0,0.055555555555555546,0,0)" xlink:href="#au"/><use transform="matrix(0.055555555555555546,0,0,0.055555555555555546,11.111111111111109,0)" xlink:href="#av"/><use transform="matrix(0.055555555555555546,0,0,0.055555555555555546,17.722222222222218,0)" xlink:href="#aw"/><use transform="matrix(0.055555555555555546,0,0,0.055555555555555546,28.83333333333333,0)" xlink:href="#ax"/><use transform="matrix(0.055555555555555546,0,0,0.055555555555555546,39.944444444444436,0)" xlink:href="#ay"/></g><path fill="#333" d="M100-194c62-1 85 37 85 99 1 63-27 99-86 99S16-35 15-95c0-66 28-99 85-99zM99-20c44 1 53-31 53-75 0-43-8-75-51-75s-53 32-53 75 10 74 51 75" id="az"/><path fill="#333" d="M101-234c-31-9-42 10-38 44h38v23H63V0H32v-167H5v-23h27c-7-52 17-82 69-68v24" id="aA"/><g id="c"><use transform="matrix(0.055555555555555546,0,0,0.055555555555555546,0,0)" xlink:href="#az"/><use transform="matrix(0.055555555555555546,0,0,0.055555555555555546,11.111111111111109,0)" xlink:href="#aA"/></g><path fill="#333" d="M84 4C-5 8 30-112 23-190h32v120c0 31 7 50 39 49 72-2 45-101 50-169h31l1 190h-30c-1-10 1-25-2-33-11 22-28 36-60 37" id="aB"/><g id="d"><use transform="matrix(0.055555555555555546,0,0,0.055555555555555546,0,0)" xlink:href="#az"/><use transform="matrix(0.055555555555555546,0,0,0.055555555555555546,11.111111111111109,0)" xlink:href="#aB"/><use transform="matrix(0.055555555555555546,0,0,0.055555555555555546,22.222222222222218,0)" xlink:href="#av"/></g><path fill="#333" d="M135-143c-3-34-86-38-87 0 15 53 115 12 119 90S17 21 10-45l28-5c4 36 97 45 98 0-10-56-113-15-118-90-4-57 82-63 122-42 12 7 21 19 24 35" id="aC"/><path fill="#333" d="M210-169c-67 3-38 105-44 169h-31v-121c0-29-5-50-35-48C34-165 62-65 56 0H25l-1-190h30c1 10-1 24 2 32 10-44 99-50 107 0 11-21 27-35 58-36 85-2 47 119 55 194h-31v-121c0-29-5-49-35-48" id="aD"/><path fill="#333" d="M24 0v-261h32V0H24" id="aE"/><path fill="#333" d="M100-194c63 0 86 42 84 106H49c0 40 14 67 53 68 26 1 43-12 49-29l28 8c-11 28-37 45-77 45C44 4 14-33 15-96c1-61 26-98 85-98zm52 81c6-60-76-77-97-28-3 7-6 17-6 28h103" id="aF"/><g id="e"><use transform="matrix(0.055555555555555546,0,0,0.055555555555555546,0,0)" xlink:href="#aC"/><use transform="matrix(0.055555555555555546,0,0,0.055555555555555546,9.999999999999998,0)" xlink:href="#aw"/><use transform="matrix(0.055555555555555546,0,0,0.055555555555555546,21.111111111111107,0)" xlink:href="#aD"/><use transform="matrix(0.055555555555555546,0,0,0.055555555555555546,37.722222222222214,0)" xlink:href="#ax"/><use transform="matrix(0.055555555555555546,0,0,0.055555555555555546,48.83333333333332,0)" xlink:href="#aE"/><use transform="matrix(0.055555555555555546,0,0,0.055555555555555546,53.22222222222221,0)" xlink:href="#aF"/></g><path fill="#333" d="M117-194c89-4 53 116 60 194h-32v-121c0-31-8-49-39-48C34-167 62-67 57 0H25l-1-190h30c1 10-1 24 2 32 11-22 29-35 61-36" id="aG"/><path fill="#333" d="M59-47c-2 24 18 29 38 22v24C64 9 27 4 27-40v-127H5v-23h24l9-43h21v43h35v23H59v120" id="aH"/><g id="f"><use transform="matrix(0.055555555555555546,0,0,0.055555555555555546,0,0)" xlink:href="#aw"/><use transform="matrix(0.055555555555555546,0,0,0.055555555555555546,11.111111111111109,0)" xlink:href="#av"/><use transform="matrix(0.055555555555555546,0,0,0.055555555555555546,17.722222222222218,0)" xlink:href="#au"/><use transform="matrix(0.055555555555555546,0,0,0.055555555555555546,28.83333333333333,0)" xlink:href="#aB"/><use transform="matrix(0.055555555555555546,0,0,0.055555555555555546,39.944444444444436,0)" xlink:href="#aD"/><use transform="matrix(0.055555555555555546,0,0,0.055555555555555546,56.55555555555554,0)" xlink:href="#aF"/><use transform="matrix(0.055555555555555546,0,0,0.055555555555555546,67.66666666666666,0)" xlink:href="#aG"/><use transform="matrix(0.055555555555555546,0,0,0.055555555555555546,78.77777777777777,0)" xlink:href="#aH"/></g><path fill="#333" d="M24-231v-30h32v30H24zM24 0v-190h32V0H24" id="aI"/><g id="g"><use transform="matrix(0.055555555555555546,0,0,0.055555555555555546,0,0)" xlink:href="#aB"/><use transform="matrix(0.055555555555555546,0,0,0.055555555555555546,11.111111111111109,0)" xlink:href="#aC"/><use transform="matrix(0.055555555555555546,0,0,0.055555555555555546,21.111111111111107,0)" xlink:href="#aI"/><use transform="matrix(0.055555555555555546,0,0,0.055555555555555546,25.499999999999996,0)" xlink:href="#aG"/><use transform="matrix(0.055555555555555546,0,0,0.055555555555555546,36.61111111111111,0)" xlink:href="#au"/></g><path fill="#333" d="M85-194c31 0 48 13 60 33l-1-100h32l1 261h-30c-2-10 0-23-3-31C134-8 116 4 85 4 32 4 16-35 15-94c0-66 23-100 70-100zm9 24c-40 0-46 34-46 75 0 40 6 74 45 74 42 0 51-32 51-76 0-42-9-74-50-73" id="aJ"/><g id="h"><use transform="matrix(0.055555555555555546,0,0,0.055555555555555546,0,0)" xlink:href="#aI"/><use transform="matrix(0.055555555555555546,0,0,0.055555555555555546,4.388888888888888,0)" xlink:href="#aJ"/><use transform="matrix(0.055555555555555546,0,0,0.055555555555555546,15.499999999999996,0)" xlink:href="#aF"/><use transform="matrix(0.055555555555555546,0,0,0.055555555555555546,26.611111111111107,0)" xlink:href="#aG"/><use transform="matrix(0.055555555555555546,0,0,0.055555555555555546,37.722222222222214,0)" xlink:href="#aH"/><use transform="matrix(0.055555555555555546,0,0,0.055555555555555546,43.27777777777777,0)" xlink:href="#aI"/><use transform="matrix(0.055555555555555546,0,0,0.055555555555555546,47.66666666666666,0)" xlink:href="#aA"/><use transform="matrix(0.055555555555555546,0,0,0.055555555555555546,53.222222222222214,0)" xlink:href="#aI"/><use transform="matrix(0.055555555555555546,0,0,0.055555555555555546,57.6111111111111,0)" xlink:href="#aF"/><use transform="matrix(0.055555555555555546,0,0,0.055555555555555546,68.72222222222221,0)" xlink:href="#av"/><use transform="matrix(0.055555555555555546,0,0,0.055555555555555546,75.33333333333333,0)" xlink:href="#aC"/></g><g id="i"><use transform="matrix(0.055555555555555546,0,0,0.055555555555555546,0,0)" xlink:href="#aI"/><use transform="matrix(0.055555555555555546,0,0,0.055555555555555546,4.388888888888888,0)" xlink:href="#aG"/></g><path fill="#333" d="M109-170H84l-4-78h32zm-65 0H19l-4-78h33" id="aK"/><path fill="#333" d="M371-429L244-141c-9 21-3 36 16 45s54 16 104 23l-9 73H-50l10-73c71-17 125-16 148-68l468-1064c61-50 141-86 225-112l227 1176c8 50 51 60 105 68l-9 73H663l10-73c48-3 82-10 101-20s26-26 22-48l-54-288H371zm348-121l-90-472-205 472h295" id="aL"/><path fill="#333" d="M774-331c-32 27-70 67-108 90L82-486l-24-40c14-41 33-84 50-121l718-273 26 32-50 129-504 191 460 193" id="aM"/><path fill="#333" d="M28-472c14-38 38-75 58-108h520l27 31c-14 37-38 76-56 109H54" id="aN"/><path fill="#333" d="M767-723c156 29 257 137 257 313 0 227-148 347-325 408C487 71 231 0-8 0l6-73c43-9 75-20 98-31s35-21 36-30l144-1034c-52 6-96 15-142 25v-84c267-72 884-155 884 187 0 166-112 268-251 317zm11 348c6-201-139-298-346-246l-68 487c4 29 57 39 88 45 213 35 320-90 326-286zm-6-612c0-148-105-208-262-196l-62 443c188 2 324-65 324-247" id="aO"/><path fill="#333" d="M224-1352c61-27 149-58 217-78l44 28-152 547c-26 14-67 17-104 19zm374 0c61-27 149-58 217-78l44 28-152 547c-26 14-67 17-104 19" id="aP"/><g id="j"><use transform="matrix(0.055555555555555546,0,0,0.055555555555555546,0,0)" xlink:href="#aK"/><use transform="matrix(0.009765624999999998,0,0,0.009765624999999998,7.0555555555555545,0)" xlink:href="#aL"/><use transform="matrix(0.010850694444444444,0,0,0.010850694444444444,18.715711805555554,0)" xlink:href="#aM"/><use transform="matrix(0.010850694444444444,0,0,0.010850694444444444,28.318576388888886,0)" xlink:href="#aN"/><use transform="matrix(0.009765624999999998,0,0,0.009765624999999998,35.686197916666664,0)" xlink:href="#aO"/><use transform="matrix(0.009765624999999998,0,0,0.009765624999999998,46.320963541666664,0)" xlink:href="#aP"/></g><path fill="#333" d="M68-38c1 34 0 65-14 84H32c9-13 17-26 17-46H33v-38h35" id="aQ"/><g id="k"><use transform="matrix(0.055555555555555546,0,0,0.055555555555555546,0,0)" xlink:href="#aG"/><use transform="matrix(0.055555555555555546,0,0,0.055555555555555546,11.111111111111109,0)" xlink:href="#az"/><use transform="matrix(0.055555555555555546,0,0,0.055555555555555546,22.222222222222218,0)" xlink:href="#aH"/><use transform="matrix(0.055555555555555546,0,0,0.055555555555555546,27.77777777777777,0)" xlink:href="#aw"/><use transform="matrix(0.055555555555555546,0,0,0.055555555555555546,38.88888888888888,0)" xlink:href="#aH"/><use transform="matrix(0.055555555555555546,0,0,0.055555555555555546,44.444444444444436,0)" xlink:href="#aI"/><use transform="matrix(0.055555555555555546,0,0,0.055555555555555546,48.83333333333332,0)" xlink:href="#az"/><use transform="matrix(0.055555555555555546,0,0,0.055555555555555546,59.944444444444436,0)" xlink:href="#aG"/><use transform="matrix(0.055555555555555546,0,0,0.055555555555555546,71.05555555555554,0)" xlink:href="#aQ"/></g><path fill="#333" d="M206 0h-36l-40-164L89 0H53L-1-190h32L70-26l43-164h34l41 164 42-164h31" id="aR"/><g id="l"><use transform="matrix(0.055555555555555546,0,0,0.055555555555555546,0,0)" xlink:href="#aR"/><use transform="matrix(0.055555555555555546,0,0,0.055555555555555546,14.388888888888886,0)" xlink:href="#aI"/><use transform="matrix(0.055555555555555546,0,0,0.055555555555555546,18.777777777777775,0)" xlink:href="#aH"/><use transform="matrix(0.055555555555555546,0,0,0.055555555555555546,24.33333333333333,0)" xlink:href="#ay"/></g><g id="m"><use transform="matrix(0.055555555555555546,0,0,0.055555555555555546,0,0)" xlink:href="#aC"/><use transform="matrix(0.055555555555555546,0,0,0.055555555555555546,9.999999999999998,0)" xlink:href="#aF"/><use transform="matrix(0.055555555555555546,0,0,0.055555555555555546,21.111111111111107,0)" xlink:href="#ax"/><use transform="matrix(0.055555555555555546,0,0,0.055555555555555546,32.222222222222214,0)" xlink:href="#aw"/><use transform="matrix(0.055555555555555546,0,0,0.055555555555555546,43.33333333333332,0)" xlink:href="#av"/><use transform="matrix(0.055555555555555546,0,0,0.055555555555555546,49.94444444444443,0)" xlink:href="#aw"/><use transform="matrix(0.055555555555555546,0,0,0.055555555555555546,61.05555555555553,0)" xlink:href="#aH"/><use transform="matrix(0.055555555555555546,0,0,0.055555555555555546,66.61111111111109,0)" xlink:href="#aF"/></g><g id="n"><use transform="matrix(0.055555555555555546,0,0,0.055555555555555546,0,0)" xlink:href="#aG"/><use transform="matrix(0.055555555555555546,0,0,0.055555555555555546,11.111111111111109,0)" xlink:href="#az"/><use transform="matrix(0.055555555555555546,0,0,0.055555555555555546,22.222222222222218,0)" xlink:href="#aJ"/><use transform="matrix(0.055555555555555546,0,0,0.055555555555555546,33.33333333333333,0)" xlink:href="#aF"/><use transform="matrix(0.055555555555555546,0,0,0.055555555555555546,44.444444444444436,0)" xlink:href="#aC"/></g><g id="o"><use transform="matrix(0.055555555555555546,0,0,0.055555555555555546,0,0)" xlink:href="#aA"/><use transform="matrix(0.055555555555555546,0,0,0.055555555555555546,5.5555555555555545,0)" xlink:href="#az"/><use transform="matrix(0.055555555555555546,0,0,0.055555555555555546,16.666666666666664,0)" xlink:href="#av"/></g><path fill="#333" d="M96-169c-40 0-48 33-48 73s9 75 48 75c24 0 41-14 43-38l32 2c-6 37-31 61-74 61-59 0-76-41-82-99-10-93 101-131 147-64 4 7 5 14 7 22l-32 3c-4-21-16-35-41-35" id="aS"/><g id="p"><use transform="matrix(0.055555555555555546,0,0,0.055555555555555546,0,0)" xlink:href="#aS"/><use transform="matrix(0.055555555555555546,0,0,0.055555555555555546,9.999999999999998,0)" xlink:href="#aE"/><use transform="matrix(0.055555555555555546,0,0,0.055555555555555546,14.388888888888886,0)" xlink:href="#aw"/><use transform="matrix(0.055555555555555546,0,0,0.055555555555555546,25.499999999999993,0)" xlink:href="#aI"/><use transform="matrix(0.055555555555555546,0,0,0.055555555555555546,29.888888888888882,0)" xlink:href="#aD"/><use transform="matrix(0.055555555555555546,0,0,0.055555555555555546,46.499999999999986,0)" xlink:href="#aC"/></g><g id="q"><use transform="matrix(0.055555555555555546,0,0,0.055555555555555546,0,0)" xlink:href="#aw"/><use transform="matrix(0.055555555555555546,0,0,0.055555555555555546,11.111111111111109,0)" xlink:href="#aG"/><use transform="matrix(0.055555555555555546,0,0,0.055555555555555546,22.222222222222218,0)" xlink:href="#aJ"/></g><path fill="#333" d="M33 0v-38h34V0H33" id="aT"/><g id="r"><use transform="matrix(0.055555555555555546,0,0,0.055555555555555546,0,0)" xlink:href="#aw"/><use transform="matrix(0.055555555555555546,0,0,0.055555555555555546,11.111111111111109,0)" xlink:href="#av"/><use transform="matrix(0.055555555555555546,0,0,0.055555555555555546,17.722222222222218,0)" xlink:href="#au"/><use transform="matrix(0.055555555555555546,0,0,0.055555555555555546,28.83333333333333,0)" xlink:href="#aB"/><use transform="matrix(0.055555555555555546,0,0,0.055555555555555546,39.944444444444436,0)" xlink:href="#aD"/><use transform="matrix(0.055555555555555546,0,0,0.055555555555555546,56.55555555555554,0)" xlink:href="#aF"/><use transform="matrix(0.055555555555555546,0,0,0.055555555555555546,67.66666666666666,0)" xlink:href="#aG"/><use transform="matrix(0.055555555555555546,0,0,0.055555555555555546,78.77777777777777,0)" xlink:href="#aH"/><use transform="matrix(0.055555555555555546,0,0,0.055555555555555546,84.33333333333333,0)" xlink:href="#aC"/><use transform="matrix(0.055555555555555546,0,0,0.055555555555555546,94.33333333333333,0)" xlink:href="#aT"/></g><path fill="#333" d="M957-211C830-91 701 27 480 27 202 27 61-172 61-459c0-329 146-547 329-708 148-130 524-173 686-23-20 71-67 134-104 190-9 12-17 20-23 25l-60-15c-40-104-145-208-291-152-213 81-296 340-296 626 0 220 87 382 286 382 148 0 230-77 333-145 17 14 25 48 36 68" id="aU"/><g id="s"><use transform="matrix(0.010850694444444444,0,0,0.010850694444444444,0,0)" xlink:href="#aL"/><use transform="matrix(0.010850694444444444,0,0,0.010850694444444444,12.955729166666666,0)" xlink:href="#aM"/><use transform="matrix(0.010850694444444444,0,0,0.010850694444444444,22.55859375,0)" xlink:href="#aN"/><use transform="matrix(0.010850694444444444,0,0,0.010850694444444444,29.926215277777775,0)" xlink:href="#aO"/><use transform="matrix(0.010850694444444444,0,0,0.010850694444444444,41.74262152777778,0)" xlink:href="#aM"/><use transform="matrix(0.010850694444444444,0,0,0.010850694444444444,51.34548611111112,0)" xlink:href="#aN"/><use transform="matrix(0.010850694444444444,0,0,0.010850694444444444,58.7131076388889,0)" xlink:href="#aU"/></g><use transform="matrix(0.010850694444444444,0,0,0.010850694444444444,0,0)" xlink:href="#aL" id="t"/><path fill="#333" d="M1119-547c-83 22-108 56-115 151-5 72-18 158-27 227C865-81 764-5 612 22 350 69 177-80 99-272c-73-181-28-439 45-580 126-240 298-438 657-438 127 0 242 41 314 102-13 74-68 135-105 188-9 12-18 20-24 25l-58-13c-47-95-110-176-251-176-238 0-321 256-363 484-52 279 28 552 289 552 58 0 111-13 148-43l42-294c-3-46-46-47-92-60-28-8-68-14-118-22l6-73h536" id="aV"/><use transform="matrix(0.010850694444444444,0,0,0.010850694444444444,0,0)" xlink:href="#aV" id="u"/><use transform="matrix(0.010850694444444444,0,0,0.010850694444444444,0,0)" xlink:href="#aO" id="v"/><use transform="matrix(0.010850694444444444,0,0,0.010850694444444444,0,0)" xlink:href="#aU" id="w"/><g id="x"><use transform="matrix(0.010850694444444444,0,0,0.010850694444444444,0,0)" xlink:href="#aL"/><use transform="matrix(0.010850694444444444,0,0,0.010850694444444444,12.955729166666666,0)" xlink:href="#aM"/><use transform="matrix(0.010850694444444444,0,0,0.010850694444444444,22.55859375,0)" xlink:href="#aN"/><use transform="matrix(0.010850694444444444,0,0,0.010850694444444444,29.926215277777775,0)" xlink:href="#aO"/></g><g id="y"><use transform="matrix(0.010850694444444444,0,0,0.010850694444444444,0,0)" xlink:href="#aO"/><use transform="matrix(0.010850694444444444,0,0,0.010850694444444444,11.81640625,0)" xlink:href="#aM"/><use transform="matrix(0.010850694444444444,0,0,0.010850694444444444,21.419270833333332,0)" xlink:href="#aN"/><use transform="matrix(0.010850694444444444,0,0,0.010850694444444444,28.78689236111111,0)" xlink:href="#aV"/></g><path fill="#333" d="M30 0v-248h187v28H63v79h144v27H63v87h162V0H30" id="aW"/><g id="z"><use transform="matrix(0.055555555555555546,0,0,0.055555555555555546,0,0)" xlink:href="#aW"/><use transform="matrix(0.055555555555555546,0,0,0.055555555555555546,13.33333333333333,0)" xlink:href="#aw"/><use transform="matrix(0.055555555555555546,0,0,0.055555555555555546,24.44444444444444,0)" xlink:href="#aS"/><use transform="matrix(0.055555555555555546,0,0,0.055555555555555546,34.444444444444436,0)" xlink:href="#ay"/></g><g id="A"><use transform="matrix(0.055555555555555546,0,0,0.055555555555555546,0,0)" xlink:href="#aw"/><use transform="matrix(0.055555555555555546,0,0,0.055555555555555546,11.111111111111109,0)" xlink:href="#av"/><use transform="matrix(0.055555555555555546,0,0,0.055555555555555546,17.722222222222218,0)" xlink:href="#au"/><use transform="matrix(0.055555555555555546,0,0,0.055555555555555546,28.83333333333333,0)" xlink:href="#aB"/><use transform="matrix(0.055555555555555546,0,0,0.055555555555555546,39.944444444444436,0)" xlink:href="#aD"/><use transform="matrix(0.055555555555555546,0,0,0.055555555555555546,56.55555555555554,0)" xlink:href="#aF"/><use transform="matrix(0.055555555555555546,0,0,0.055555555555555546,67.66666666666666,0)" xlink:href="#aG"/><use transform="matrix(0.055555555555555546,0,0,0.055555555555555546,78.77777777777777,0)" xlink:href="#aH"/><use transform="matrix(0.055555555555555546,0,0,0.055555555555555546,84.33333333333333,0)" xlink:href="#aC"/></g><g id="B"><use transform="matrix(0.055555555555555546,0,0,0.055555555555555546,0,0)" xlink:href="#aI"/><use transform="matrix(0.055555555555555546,0,0,0.055555555555555546,4.388888888888888,0)" xlink:href="#aC"/></g><g id="C"><use transform="matrix(0.055555555555555546,0,0,0.055555555555555546,0,0)" xlink:href="#aC"/><use transform="matrix(0.055555555555555546,0,0,0.055555555555555546,9.999999999999998,0)" xlink:href="#ay"/><use transform="matrix(0.055555555555555546,0,0,0.055555555555555546,21.111111111111107,0)" xlink:href="#az"/><use transform="matrix(0.055555555555555546,0,0,0.055555555555555546,32.222222222222214,0)" xlink:href="#aR"/><use transform="matrix(0.055555555555555546,0,0,0.055555555555555546,46.6111111111111,0)" xlink:href="#aG"/></g><g id="D"><use transform="matrix(0.055555555555555546,0,0,0.055555555555555546,0,0)" xlink:href="#aI"/><use transform="matrix(0.055555555555555546,0,0,0.055555555555555546,4.388888888888888,0)" xlink:href="#aG"/></g><g id="E"><use transform="matrix(0.055555555555555546,0,0,0.055555555555555546,0,0)" xlink:href="#aC"/><use transform="matrix(0.055555555555555546,0,0,0.055555555555555546,9.999999999999998,0)" xlink:href="#aw"/><use transform="matrix(0.055555555555555546,0,0,0.055555555555555546,21.111111111111107,0)" xlink:href="#aD"/><use transform="matrix(0.055555555555555546,0,0,0.055555555555555546,37.722222222222214,0)" xlink:href="#aF"/></g><g id="F"><use transform="matrix(0.055555555555555546,0,0,0.055555555555555546,0,0)" xlink:href="#aH"/><use transform="matrix(0.055555555555555546,0,0,0.055555555555555546,5.5555555555555545,0)" xlink:href="#ay"/><use transform="matrix(0.055555555555555546,0,0,0.055555555555555546,16.666666666666664,0)" xlink:href="#aF"/></g><g id="G"><use transform="matrix(0.055555555555555546,0,0,0.055555555555555546,0,0)" xlink:href="#aS"/><use transform="matrix(0.055555555555555546,0,0,0.055555555555555546,9.999999999999998,0)" xlink:href="#az"/><use transform="matrix(0.055555555555555546,0,0,0.055555555555555546,21.111111111111107,0)" xlink:href="#aE"/><use transform="matrix(0.055555555555555546,0,0,0.055555555555555546,25.499999999999996,0)" xlink:href="#az"/><use transform="matrix(0.055555555555555546,0,0,0.055555555555555546,36.61111111111111,0)" xlink:href="#av"/></g><g id="H"><use transform="matrix(0.055555555555555546,0,0,0.055555555555555546,0,0)" xlink:href="#aw"/><use transform="matrix(0.055555555555555546,0,0,0.055555555555555546,11.111111111111109,0)" xlink:href="#aC"/></g><g id="I"><use transform="matrix(0.055555555555555546,0,0,0.055555555555555546,0,0)" xlink:href="#aI"/><use transform="matrix(0.055555555555555546,0,0,0.055555555555555546,4.388888888888888,0)" xlink:href="#aH"/><use transform="matrix(0.055555555555555546,0,0,0.055555555555555546,9.944444444444443,0)" xlink:href="#aC"/></g><g id="J"><use transform="matrix(0.055555555555555546,0,0,0.055555555555555546,0,0)" xlink:href="#aS"/><use transform="matrix(0.055555555555555546,0,0,0.055555555555555546,9.999999999999998,0)" xlink:href="#az"/><use transform="matrix(0.055555555555555546,0,0,0.055555555555555546,21.111111111111107,0)" xlink:href="#aG"/><use transform="matrix(0.055555555555555546,0,0,0.055555555555555546,32.222222222222214,0)" xlink:href="#aS"/><use transform="matrix(0.055555555555555546,0,0,0.055555555555555546,42.222222222222214,0)" xlink:href="#aE"/><use transform="matrix(0.055555555555555546,0,0,0.055555555555555546,46.6111111111111,0)" xlink:href="#aB"/><use transform="matrix(0.055555555555555546,0,0,0.055555555555555546,57.722222222222214,0)" xlink:href="#aC"/><use transform="matrix(0.055555555555555546,0,0,0.055555555555555546,67.7222222222222,0)" xlink:href="#aI"/><use transform="matrix(0.055555555555555546,0,0,0.055555555555555546,72.11111111111109,0)" xlink:href="#az"/><use transform="matrix(0.055555555555555546,0,0,0.055555555555555546,83.2222222222222,0)" xlink:href="#aG"/><use transform="matrix(0.055555555555555546,0,0,0.055555555555555546,94.33333333333331,0)" xlink:href="#aT"/></g><g id="K"><use transform="matrix(0.055555555555555546,0,0,0.055555555555555546,0,0)" xlink:href="#aw"/><use transform="matrix(0.055555555555555546,0,0,0.055555555555555546,11.111111111111109,0)" xlink:href="#av"/><use transform="matrix(0.055555555555555546,0,0,0.055555555555555546,17.722222222222218,0)" xlink:href="#au"/><use transform="matrix(0.055555555555555546,0,0,0.055555555555555546,28.83333333333333,0)" xlink:href="#aB"/><use transform="matrix(0.055555555555555546,0,0,0.055555555555555546,39.944444444444436,0)" xlink:href="#aD"/><use transform="matrix(0.055555555555555546,0,0,0.055555555555555546,56.55555555555554,0)" xlink:href="#aF"/><use transform="matrix(0.055555555555555546,0,0,0.055555555555555546,67.66666666666666,0)" xlink:href="#aG"/><use transform="matrix(0.055555555555555546,0,0,0.055555555555555546,78.77777777777777,0)" xlink:href="#aH"/></g><g id="L"><use transform="matrix(0.055555555555555546,0,0,0.055555555555555546,0,0)" xlink:href="#ay"/><use transform="matrix(0.055555555555555546,0,0,0.055555555555555546,11.111111111111109,0)" xlink:href="#aw"/><use transform="matrix(0.055555555555555546,0,0,0.055555555555555546,22.222222222222218,0)" xlink:href="#aC"/></g><g id="M"><use transform="matrix(0.055555555555555546,0,0,0.055555555555555546,0,0)" xlink:href="#az"/><use transform="matrix(0.055555555555555546,0,0,0.055555555555555546,11.111111111111109,0)" xlink:href="#aG"/><use transform="matrix(0.055555555555555546,0,0,0.055555555555555546,22.222222222222218,0)" xlink:href="#aF"/></g><g id="N"><use transform="matrix(0.055555555555555546,0,0,0.055555555555555546,0,0)" xlink:href="#ax"/><use transform="matrix(0.055555555555555546,0,0,0.055555555555555546,11.111111111111109,0)" xlink:href="#av"/><use transform="matrix(0.055555555555555546,0,0,0.055555555555555546,17.722222222222218,0)" xlink:href="#aF"/><use transform="matrix(0.055555555555555546,0,0,0.055555555555555546,28.83333333333333,0)" xlink:href="#aD"/><use transform="matrix(0.055555555555555546,0,0,0.055555555555555546,45.444444444444436,0)" xlink:href="#aI"/><use transform="matrix(0.055555555555555546,0,0,0.055555555555555546,49.83333333333332,0)" xlink:href="#aC"/><use transform="matrix(0.055555555555555546,0,0,0.055555555555555546,59.83333333333332,0)" xlink:href="#aF"/><use transform="matrix(0.055555555555555546,0,0,0.055555555555555546,70.94444444444443,0)" xlink:href="#aT"/></g><path fill="#333" d="M160-131c35 5 61 23 61 61C221 17 115-2 30 0v-248c76 3 177-17 177 60 0 33-19 50-47 57zm-97-11c50-1 110 9 110-42 0-47-63-36-110-37v79zm0 115c55-2 124 14 124-45 0-56-70-42-124-44v89" id="aX"/><g id="O"><use transform="matrix(0.055555555555555546,0,0,0.055555555555555546,0,0)" xlink:href="#aX"/><use transform="matrix(0.055555555555555546,0,0,0.055555555555555546,13.33333333333333,0)" xlink:href="#aB"/><use transform="matrix(0.055555555555555546,0,0,0.055555555555555546,24.44444444444444,0)" xlink:href="#aH"/></g><g id="P"><use transform="matrix(0.055555555555555546,0,0,0.055555555555555546,0,0)" xlink:href="#ax"/><use transform="matrix(0.055555555555555546,0,0,0.055555555555555546,11.111111111111109,0)" xlink:href="#av"/><use transform="matrix(0.055555555555555546,0,0,0.055555555555555546,17.722222222222218,0)" xlink:href="#aF"/><use transform="matrix(0.055555555555555546,0,0,0.055555555555555546,28.83333333333333,0)" xlink:href="#aD"/><use transform="matrix(0.055555555555555546,0,0,0.055555555555555546,45.444444444444436,0)" xlink:href="#aI"/><use transform="matrix(0.055555555555555546,0,0,0.055555555555555546,49.83333333333332,0)" xlink:href="#aC"/><use transform="matrix(0.055555555555555546,0,0,0.055555555555555546,59.83333333333332,0)" xlink:href="#aF"/></g><g id="Q"><use transform="matrix(0.055555555555555546,0,0,0.055555555555555546,0,0)" xlink:href="#aS"/><use transform="matrix(0.055555555555555546,0,0,0.055555555555555546,9.999999999999998,0)" xlink:href="#aw"/><use transform="matrix(0.055555555555555546,0,0,0.055555555555555546,21.111111111111107,0)" xlink:href="#aG"/></g><path fill="#333" d="M115-194c53 0 69 39 70 98 0 66-23 100-70 100C84 3 66-7 56-30L54 0H23l1-261h32v101c10-23 28-34 59-34zm-8 174c40 0 45-34 45-75 0-40-5-75-45-74-42 0-51 32-51 76 0 43 10 73 51 73" id="aY"/><g id="R"><use transform="matrix(0.055555555555555546,0,0,0.055555555555555546,0,0)" xlink:href="#aY"/><use transform="matrix(0.055555555555555546,0,0,0.055555555555555546,11.111111111111109,0)" xlink:href="#aF"/></g><g id="S"><use transform="matrix(0.055555555555555546,0,0,0.055555555555555546,0,0)" xlink:href="#aB"/><use transform="matrix(0.055555555555555546,0,0,0.055555555555555546,11.111111111111109,0)" xlink:href="#aC"/><use transform="matrix(0.055555555555555546,0,0,0.055555555555555546,21.111111111111107,0)" xlink:href="#aF"/><use transform="matrix(0.055555555555555546,0,0,0.055555555555555546,32.222222222222214,0)" xlink:href="#aJ"/></g><g id="T"><use transform="matrix(0.055555555555555546,0,0,0.055555555555555546,0,0)" xlink:href="#aD"/><use transform="matrix(0.055555555555555546,0,0,0.055555555555555546,16.611111111111107,0)" xlink:href="#aB"/><use transform="matrix(0.055555555555555546,0,0,0.055555555555555546,27.722222222222214,0)" xlink:href="#aE"/><use transform="matrix(0.055555555555555546,0,0,0.055555555555555546,32.1111111111111,0)" xlink:href="#aH"/><use transform="matrix(0.055555555555555546,0,0,0.055555555555555546,37.66666666666666,0)" xlink:href="#aI"/><use transform="matrix(0.055555555555555546,0,0,0.055555555555555546,42.05555555555554,0)" xlink:href="#ax"/><use transform="matrix(0.055555555555555546,0,0,0.055555555555555546,53.16666666666665,0)" xlink:href="#aE"/><use transform="matrix(0.055555555555555546,0,0,0.055555555555555546,57.555555555555536,0)" xlink:href="#aF"/></g><g id="U"><use transform="matrix(0.055555555555555546,0,0,0.055555555555555546,0,0)" xlink:href="#aw"/><use transform="matrix(0.055555555555555546,0,0,0.055555555555555546,11.111111111111109,0)" xlink:href="#av"/><use transform="matrix(0.055555555555555546,0,0,0.055555555555555546,17.722222222222218,0)" xlink:href="#au"/><use transform="matrix(0.055555555555555546,0,0,0.055555555555555546,28.83333333333333,0)" xlink:href="#aB"/><use transform="matrix(0.055555555555555546,0,0,0.055555555555555546,39.944444444444436,0)" xlink:href="#aD"/><use transform="matrix(0.055555555555555546,0,0,0.055555555555555546,56.55555555555554,0)" xlink:href="#aF"/><use transform="matrix(0.055555555555555546,0,0,0.055555555555555546,67.66666666666666,0)" xlink:href="#aG"/><use transform="matrix(0.055555555555555546,0,0,0.055555555555555546,78.77777777777777,0)" xlink:href="#aH"/><use transform="matrix(0.055555555555555546,0,0,0.055555555555555546,84.33333333333333,0)" xlink:href="#aC"/><use transform="matrix(0.055555555555555546,0,0,0.055555555555555546,94.33333333333333,0)" xlink:href="#aT"/></g><use transform="matrix(0.010850694444444444,0,0,0.010850694444444444,0,0)" xlink:href="#aL" id="W"/><path fill="#333" d="M83-672c16-37 39-79 58-113h673l25 31c-15 38-38 80-57 114H108zM43-372c15-38 38-79 57-113h673l25 31c-15 38-38 80-57 114H67" id="aZ"/><use transform="matrix(0.010850694444444444,0,0,0.010850694444444444,0,0)" xlink:href="#aZ" id="X"/><path fill="#333" d="M352-90c82 0 133-30 211-64l17 37C486-49 387 21 252 41 109 22 117-184 141-332l77-483H74l-15-31 101-59h72c14-82 21-160 75-199l101-72 28 25c-33 61-45 156-60 246h249l20 28c-32 41-83 79-127 107-20-47-87-43-156-45-27 202-72 388-83 604-3 66 23 121 73 121" id="ba"/><path fill="#333" d="M793-135c-6 100 112 46 161 26l15 37C872-21 815 28 713 41c-47-3-79-59-74-117 17-205 86-416 86-624 0-70 2-136-70-134-130 42-229 138-293 252-71 126-89 326-102 510 0 17 1 33 2 47-44 22-100 43-143 66L86 10c68-407 139-834 188-1260 4-42 7-75 7-96-1-38-5-69-41-67-40 3-78 17-115 27l-12-39c84-36 173-77 270-95 74 4 61 83 53 162-26 224-64 465-98 680 90-110 186-200 330-244 33-10 64-14 94-14 100 0 117 63 117 176 0 217-73 413-86 625" id="bb"/><path fill="#333" d="M579-646c37-99-17-228-128-174-115 56-180 180-224 308-12 36-18 73-21 108 139-55 237-96 323-171 27-24 42-49 50-71zm-61-283c157-36 268 72 226 228-42 154-187 215-329 287-57 29-127 57-208 87 12 102 51 186 115 233 18 12 37 18 55 18 144 0 224-74 319-145 13 5 26 29 31 41C613-85 528-4 380 33 225 72 123-22 88-142c-97-333 92-609 306-738 36-22 78-39 124-49" id="bc"/><g id="Y"><use transform="matrix(0.010850694444444444,0,0,0.010850694444444444,0,0)" xlink:href="#ba"/><use transform="matrix(0.010850694444444444,0,0,0.010850694444444444,6.825086805555555,0)" xlink:href="#bb"/><use transform="matrix(0.010850694444444444,0,0,0.010850694444444444,17.805989583333332,0)" xlink:href="#bc"/></g><path fill="#333" d="M668-722c-47-47-91-109-179-109-154 0-210 145-262 265-62 143-43 381 62 450 83 55 145-25 185-74 54-66 104-151 147-234 14-93 31-199 47-298zM795-78c47-1 77-9 116-26l13 36C838-14 788 27 696 41c-67-13-69-91-81-168-6-41-7-93-7-154C545-167 470-54 364 14c-91 58-187 3-234-58-69-89-97-274-60-424 60-241 222-390 457-460 75-22 127 9 168 45 23-151 53-304 59-463 2-40-7-70-45-67s-72 18-107 27l-12-39c84-35 172-77 268-95 45 2 55 29 55 82 0 397-163 746-163 1139 0 77 4 134 11 169s19 52 34 52" id="bd"/><path fill="#333" d="M526-770c-19-49-90-43-159-45l-72 622C254 110 134 350-74 485l-26-63C53 318 115 88 141-139l78-676H68l-15-31 101-59h75c24-228 81-415 230-522 71-51 177-125 295-77 59 24 99 73 149 101-51 33-100 82-166 98-54-24-64-112-141-112-130 0-153 152-183 269-20 77-25 163-36 243h256l20 28c-32 41-82 79-127 107" id="be"/><path fill="#333" d="M833-76c48 0 81-16 125-33l15 37C881-21 816 41 717 41c-54 0-78-56-74-117 15-206 90-414 90-624 0-86-3-131-76-136-128 42-223 142-286 256-74 134-103 351-103 555-44 22-100 43-143 66L92 10c46-243 113-505 113-772 0-37 0-70-37-67-38 3-72 17-107 26l-14-39c84-34 173-76 268-94 58 2 38 81 38 143 0 37-6 81-9 115 87-107 182-199 320-244 33-11 64-14 94-14 102-1 129 71 129 174 0 219-90 412-90 627 0 38 5 59 36 59" id="bf"/><path fill="#333" d="M661-760c-53-49-159-101-247-48-113 67-182 195-214 341-30 137-2 291 76 351 83 63 145-40 186-90 52-62 103-149 141-225 17-109 40-224 58-329zM774-76c46 0 73-10 115-28l12 36C815-15 765 25 678 41c-67-11-72-79-84-155-6-40-8-93-8-158C527-170 447-59 354 10c-84 62-182 13-228-48-67-88-94-277-54-422 66-239 224-400 465-468 89-26 161 15 213 52 30-23 66-43 102-60l20 35c-81 49-83 182-104 289-30 154-64 328-30 492 5 25 13 44 36 44" id="bg"/><g id="Z"><use transform="matrix(0.010850694444444444,0,0,0.010850694444444444,0,0)" xlink:href="#bd"/><use transform="matrix(0.010850694444444444,0,0,0.010850694444444444,10.514322916666666,0)" xlink:href="#bc"/><use transform="matrix(0.010850694444444444,0,0,0.010850694444444444,19.249131944444443,0)" xlink:href="#be"/><use transform="matrix(0.010850694444444444,0,0,0.010850694444444444,25.31467013888889,0)" xlink:href="#bc"/><use transform="matrix(0.010850694444444444,0,0,0.010850694444444444,34.049479166666664,0)" xlink:href="#bf"/><use transform="matrix(0.010850694444444444,0,0,0.010850694444444444,45.03038194444444,0)" xlink:href="#bd"/><use transform="matrix(0.010850694444444444,0,0,0.010850694444444444,55.54470486111111,0)" xlink:href="#bg"/><use transform="matrix(0.010850694444444444,0,0,0.010850694444444444,65.54904513888889,0)" xlink:href="#bf"/><use transform="matrix(0.010850694444444444,0,0,0.010850694444444444,76.52994791666666,0)" xlink:href="#ba"/></g><path fill="#333" d="M311-76c55 0 81-15 129-33l15 37C371-28 309 41 199 41c-53 0-78-56-74-117 14-232 100-454 100-684 0-38-3-70-41-67-36 2-67 15-100 24l-14-37c83-35 168-78 264-96 45 2 51 31 51 84 0 243-104 474-104 717 0 34 2 59 30 59zm106-1257c42-3 67 28 65 71-4 84-41 151-123 156-42 3-68-26-65-70 5-82 42-152 123-157" id="bh"/><path fill="#333" d="M256-68c152 49 300-73 232-226-66-147-309-140-356-298-50-169 83-276 212-324 89-33 204-20 266 20 30 20 54 42 88 52-38 39-73 84-127 103-57-27-76-110-161-111-113-1-199 125-118 217 59 66 206 105 270 177 37 42 76 93 73 169-7 163-126 253-250 305C251 72 86 26 18-52-7-81-13-97 8-130c21-34 50-79 90-93 48 53 78 129 158 155" id="bi"/><g id="aa"><use transform="matrix(0.010850694444444444,0,0,0.010850694444444444,0,0)" xlink:href="#bh"/><use transform="matrix(0.010850694444444444,0,0,0.010850694444444444,5.46875,0)" xlink:href="#bi"/></g><path fill="#333" d="M674-748c-47-35-92-83-172-83-157 0-216 146-272 265-64 135-51 381 51 450 45 31 72 28 114-14 96-95 179-235 237-374 10-83 14-176 42-244zM538-928c95-27 164 21 218 59 29-28 63-48 100-67l23 35c-51 44-69 93-82 182-45 313-7 671-127 913-56 113-141 206-246 266-130 75-313 23-402-42-18-14-27-27-27-39C6 323 51 279 95 256c41 25 63 74 110 98 37 19 83 36 142 35 65 0 116-29 154-87 89-134 113-411 119-638C554-210 466-78 359 6c-85 67-183 19-233-44-69-87-94-276-57-422 57-221 202-364 401-447 23-9 46-15 68-21" id="bj"/><path fill="#333" d="M808-120c19 78 102 32 153 16l14 36C892-16 837 29 743 41c-69-16-80-95-89-179-5-43-3-96 2-159C583-170 503-46 374 16c-50 24-105 41-152 10-63-42-101-123-101-231 0-192 74-366 74-555 0-38-3-69-41-67-37 2-69 15-103 24l-12-37c84-35 170-78 266-96 47 2 49 31 49 84 0 202-80 388-80 590 0 64 6 110 20 139 25 50 64 55 111 23 117-80 193-207 269-347 15-103 45-201 45-313 0-37-1-69-37-67-34 2-64 14-94 24l-15-37c82-35 164-78 258-96 45 3 46 32 46 84 0 206-82 390-82 598 0 61 6 105 13 134" id="bk"/><path fill="#333" d="M295-76c50 0 81-16 129-33l12 37C351-24 291 41 174 41c-49 0-78-56-72-119 38-425 141-836 172-1268 3-41-11-70-51-67-37 3-69 18-104 27l-15-39c84-35 172-77 269-95 45 2 64 29 61 82-29 447-174 858-174 1303 0 37 6 59 35 59" id="bl"/><path fill="#333" d="M811-936c96-8 94 88 63 164-94 239-205 440-333 690-110 215-221 423-416 540-83 51-219 61-295 8-32-22 9-71 22-96 13-26 38-56 61-69 41 27 76 43 143 43 54 0 106-26 158-78S320 139 376 44c-51-272-106-558-200-789-21-51-28-72-72-82-36 3-66 15-98 24l-12-37c79-33 150-77 237-96 60 11 66 74 86 127 71 194 127 423 172 644 92-183 187-372 258-573 19-53 17-103-42-106-21-2-52 6-91 23l-18-37c73-42 131-71 215-78" id="bm"/><g id="ab"><use transform="matrix(0.010850694444444444,0,0,0.010850694444444444,0,0)" xlink:href="#bj"/><use transform="matrix(0.010850694444444444,0,0,0.010850694444444444,9.88498263888889,0)" xlink:href="#bk"/><use transform="matrix(0.010850694444444444,0,0,0.010850694444444444,20.97439236111111,0)" xlink:href="#bh"/><use transform="matrix(0.010850694444444444,0,0,0.010850694444444444,26.44314236111111,0)" xlink:href="#bl"/><use transform="matrix(0.010850694444444444,0,0,0.010850694444444444,31.66232638888889,0)" xlink:href="#ba"/><use transform="matrix(0.010850694444444444,0,0,0.010850694444444444,38.48741319444444,0)" xlink:href="#bm"/></g><use transform="matrix(0.010850694444444444,0,0,0.010850694444444444,0,0)" xlink:href="#aO" id="ac"/><g id="ad"><use transform="matrix(0.010850694444444444,0,0,0.010850694444444444,0,0)" xlink:href="#bi"/><use transform="matrix(0.010850694444444444,0,0,0.010850694444444444,7.71484375,0)" xlink:href="#bh"/><use transform="matrix(0.010850694444444444,0,0,0.010850694444444444,13.18359375,0)" xlink:href="#bj"/><use transform="matrix(0.010850694444444444,0,0,0.010850694444444444,23.06857638888889,0)" xlink:href="#bf"/><use transform="matrix(0.010850694444444444,0,0,0.010850694444444444,34.049479166666664,0)" xlink:href="#bc"/><use transform="matrix(0.010850694444444444,0,0,0.010850694444444444,42.78428819444444,0)" xlink:href="#bd"/></g><use transform="matrix(0.010850694444444444,0,0,0.010850694444444444,0,0)" xlink:href="#bg" id="ae"/><path fill="#333" d="M686-221c9 13 23 29 31 41C607-84 522-3 374 33 214 72 121-24 78-147c-48-136-20-342 34-453 79-162 215-279 412-328 118-29 197 32 254 88 14 13 25 22 35 25-50 33-97 80-164 94-57-29-87-110-172-110-153 0-206 143-247 267-61 185-47 488 165 488 129 0 203-79 291-145" id="bn"/><path fill="#333" d="M610-226c90-190 100-606-157-593-200 10-256 215-256 420 0 137 49 245 131 301 48 34 117 34 168 6 51-29 88-78 114-134zm-88-710c316 0 338 408 230 646C684-140 577-6 407 33 126 98 12-191 65-482c37-207 165-342 334-426 40-20 82-28 123-28" id="bo"/><g id="af"><use transform="matrix(0.010850694444444444,0,0,0.010850694444444444,0,0)" xlink:href="#bn"/><use transform="matrix(0.010850694444444444,0,0,0.010850694444444444,8.626302083333332,0)" xlink:href="#bo"/><use transform="matrix(0.010850694444444444,0,0,0.010850694444444444,18.001302083333332,0)" xlink:href="#bf"/><use transform="matrix(0.010850694444444444,0,0,0.010850694444444444,28.982204861111104,0)" xlink:href="#be"/><use transform="matrix(0.010850694444444444,0,0,0.010850694444444444,35.04774305555555,0)" xlink:href="#bc"/><use transform="matrix(0.010850694444444444,0,0,0.010850694444444444,43.78255208333333,0)" xlink:href="#bi"/><use transform="matrix(0.010850694444444444,0,0,0.010850694444444444,51.49739583333333,0)" xlink:href="#bi"/><use transform="matrix(0.010850694444444444,0,0,0.010850694444444444,59.21223958333333,0)" xlink:href="#bh"/><use transform="matrix(0.010850694444444444,0,0,0.010850694444444444,64.68098958333333,0)" xlink:href="#bo"/><use transform="matrix(0.010850694444444444,0,0,0.010850694444444444,74.05598958333333,0)" xlink:href="#bf"/></g><use transform="matrix(0.010850694444444444,0,0,0.010850694444444444,0,0)" xlink:href="#aU" id="ag"/><path fill="#333" d="M1276-78c53 0 80-14 127-31l10 37c-97 51-154 113-258 113-47 0-75-59-70-117 19-212 81-422 93-643 4-83-20-141-91-101-110 61-201 166-253 289-57 135-77 325-74 506-46 22-103 43-148 66l-32-31c45-222 99-469 114-710 6-94-24-164-99-121-171 97-278 281-310 526-13 98-25 173-23 270-44 22-100 43-143 66L86 10c44-246 113-500 113-770 0-38-3-69-39-69-39 0-73 16-107 26l-12-39c84-34 170-76 264-94 69 3 41 109 41 178 0 25-7 55-8 80 90-102 168-195 298-244 28-10 56-14 83-14 122 0 135 126 123 248 87-96 160-184 280-234 25-10 51-14 76-14 99 2 129 73 129 176 0 219-88 412-88 625 0 38 7 57 37 57" id="bp"/><g id="ah"><use transform="matrix(0.010850694444444444,0,0,0.010850694444444444,0,0)" xlink:href="#bp"/><use transform="matrix(0.010850694444444444,0,0,0.010850694444444444,16.026475694444443,0)" xlink:href="#bg"/><use transform="matrix(0.010850694444444444,0,0,0.010850694444444444,26.03081597222222,0)" xlink:href="#bh"/><use transform="matrix(0.010850694444444444,0,0,0.010850694444444444,31.49956597222222,0)" xlink:href="#bf"/><use transform="matrix(0.010850694444444444,0,0,0.010850694444444444,42.48046875,0)" xlink:href="#ba"/><use transform="matrix(0.010850694444444444,0,0,0.010850694444444444,49.30555555555556,0)" xlink:href="#bg"/><use transform="matrix(0.010850694444444444,0,0,0.010850694444444444,59.30989583333333,0)" xlink:href="#bh"/><use transform="matrix(0.010850694444444444,0,0,0.010850694444444444,64.77864583333334,0)" xlink:href="#bf"/><use transform="matrix(0.010850694444444444,0,0,0.010850694444444444,75.75954861111111,0)" xlink:href="#bi"/></g><path fill="#333" d="M309-936c52 1 39 62 39 115 0 66-17 142-26 203 53-109 101-190 172-258 41-39 78-60 141-60 62 0 79 68 133 86-27 36-54 87-83 120-9 10-16 15-23 15-54-2-59-62-107-69-59 13-96 73-129 128-99 165-168 368-164 631-44 22-100 43-143 66L86 10c48-243 113-499 113-770 0-38-5-69-41-67-38 2-70 15-103 24l-14-37c84-36 172-78 268-96" id="bq"/><g id="ai"><use transform="matrix(0.010850694444444444,0,0,0.010850694444444444,0,0)" xlink:href="#bb"/><use transform="matrix(0.010850694444444444,0,0,0.010850694444444444,10.980902777777777,0)" xlink:href="#bc"/><use transform="matrix(0.010850694444444444,0,0,0.010850694444444444,19.715711805555554,0)" xlink:href="#bq"/></g><g id="aj"><use transform="matrix(0.010850694444444444,0,0,0.010850694444444444,0,0)" xlink:href="#bh"/><use transform="matrix(0.010850694444444444,0,0,0.010850694444444444,5.46875,0)" xlink:href="#bf"/><use transform="matrix(0.010850694444444444,0,0,0.010850694444444444,16.44965277777778,0)" xlink:href="#bf"/><use transform="matrix(0.010850694444444444,0,0,0.010850694444444444,27.43055555555556,0)" xlink:href="#bo"/><use transform="matrix(0.010850694444444444,0,0,0.010850694444444444,36.80555555555556,0)" xlink:href="#bn"/><use transform="matrix(0.010850694444444444,0,0,0.010850694444444444,45.431857638888886,0)" xlink:href="#bc"/><use transform="matrix(0.010850694444444444,0,0,0.010850694444444444,54.166666666666664,0)" xlink:href="#bf"/><use transform="matrix(0.010850694444444444,0,0,0.010850694444444444,65.14756944444444,0)" xlink:href="#bn"/><use transform="matrix(0.010850694444444444,0,0,0.010850694444444444,73.77387152777777,0)" xlink:href="#bc"/></g><use transform="matrix(0.010850694444444444,0,0,0.010850694444444444,0,0)" xlink:href="#aV" id="ak"/><g id="al"><use transform="matrix(0.010850694444444444,0,0,0.010850694444444444,0,0)" xlink:href="#bi"/><use transform="matrix(0.010850694444444444,0,0,0.010850694444444444,7.71484375,0)" xlink:href="#bh"/><use transform="matrix(0.010850694444444444,0,0,0.010850694444444444,13.18359375,0)" xlink:href="#bj"/><use transform="matrix(0.010850694444444444,0,0,0.010850694444444444,23.06857638888889,0)" xlink:href="#bf"/><use transform="matrix(0.010850694444444444,0,0,0.010850694444444444,34.049479166666664,0)" xlink:href="#bg"/><use transform="matrix(0.010850694444444444,0,0,0.010850694444444444,44.05381944444444,0)" xlink:href="#ba"/><use transform="matrix(0.010850694444444444,0,0,0.010850694444444444,50.87890625,0)" xlink:href="#bk"/><use transform="matrix(0.010850694444444444,0,0,0.010850694444444444,61.96831597222222,0)" xlink:href="#bq"/><use transform="matrix(0.010850694444444444,0,0,0.010850694444444444,69.85677083333333,0)" xlink:href="#bc"/></g><path fill="#333" d="M1194-936c119-13 85 137 60 222-78 260-198 476-322 712-28 15-63 29-92 43l-33-31c-31-236-60-485-111-700-43 204-132 385-214 556-21 45-45 86-68 124-31 16-66 37-99 51l-32-31c-33-247-45-525-95-755-10-44-22-82-71-82-36 0-66 15-99 24L4-840c80-33 151-78 240-96 19 0 34 10 42 32 69 202 83 495 111 738 100-206 213-430 246-698 36-29 74-62 127-72 71 197 92 450 132 677 7 40 10 77 13 112 101-191 187-343 233-559 14-65 28-138-46-138-26 1-53 8-76 15l-18-37c56-32 114-62 186-70" id="br"/><g id="am"><use transform="matrix(0.010850694444444444,0,0,0.010850694444444444,0,0)" xlink:href="#br"/><use transform="matrix(0.010850694444444444,0,0,0.010850694444444444,13.997395833333332,0)" xlink:href="#bg"/><use transform="matrix(0.010850694444444444,0,0,0.010850694444444444,24.001736111111104,0)" xlink:href="#bi"/></g><g id="an"><use transform="matrix(0.010850694444444444,0,0,0.010850694444444444,0,0)" xlink:href="#be"/><use transform="matrix(0.010850694444444444,0,0,0.010850694444444444,6.065538194444445,0)" xlink:href="#bo"/><use transform="matrix(0.010850694444444444,0,0,0.010850694444444444,15.440538194444445,0)" xlink:href="#bq"/><use transform="matrix(0.010850694444444444,0,0,0.010850694444444444,23.328993055555554,0)" xlink:href="#bj"/><use transform="matrix(0.010850694444444444,0,0,0.010850694444444444,33.21397569444444,0)" xlink:href="#bc"/><use transform="matrix(0.010850694444444444,0,0,0.010850694444444444,41.94878472222222,0)" xlink:href="#bd"/></g><g id="ao"><use transform="matrix(0.055555555555555546,0,0,0.055555555555555546,0,0)" xlink:href="#av"/><use transform="matrix(0.055555555555555546,0,0,0.055555555555555546,6.61111111111111,0)" xlink:href="#az"/><use transform="matrix(0.055555555555555546,0,0,0.055555555555555546,17.722222222222218,0)" xlink:href="#az"/><use transform="matrix(0.055555555555555546,0,0,0.055555555555555546,28.83333333333333,0)" xlink:href="#aH"/></g><g id="ap"><use transform="matrix(0.055555555555555546,0,0,0.055555555555555546,0,0)" xlink:href="#aS"/><use transform="matrix(0.055555555555555546,0,0,0.055555555555555546,9.999999999999998,0)" xlink:href="#aE"/><use transform="matrix(0.055555555555555546,0,0,0.055555555555555546,14.388888888888886,0)" xlink:href="#aw"/><use transform="matrix(0.055555555555555546,0,0,0.055555555555555546,25.499999999999993,0)" xlink:href="#aI"/><use transform="matrix(0.055555555555555546,0,0,0.055555555555555546,29.888888888888882,0)" xlink:href="#aD"/></g><g id="aq"><use transform="matrix(0.055555555555555546,0,0,0.055555555555555546,0,0)" xlink:href="#aR"/><use transform="matrix(0.055555555555555546,0,0,0.055555555555555546,14.388888888888886,0)" xlink:href="#aw"/><use transform="matrix(0.055555555555555546,0,0,0.055555555555555546,25.499999999999993,0)" xlink:href="#av"/><use transform="matrix(0.055555555555555546,0,0,0.055555555555555546,32.1111111111111,0)" xlink:href="#av"/><use transform="matrix(0.055555555555555546,0,0,0.055555555555555546,38.72222222222221,0)" xlink:href="#aw"/><use transform="matrix(0.055555555555555546,0,0,0.055555555555555546,49.833333333333314,0)" xlink:href="#aG"/><use transform="matrix(0.055555555555555546,0,0,0.055555555555555546,60.94444444444442,0)" xlink:href="#aH"/></g><g id="ar"><use transform="matrix(0.055555555555555546,0,0,0.055555555555555546,0,0)" xlink:href="#aw"/><use transform="matrix(0.055555555555555546,0,0,0.055555555555555546,11.111111111111109,0)" xlink:href="#av"/><use transform="matrix(0.055555555555555546,0,0,0.055555555555555546,17.722222222222218,0)" xlink:href="#au"/><use transform="matrix(0.055555555555555546,0,0,0.055555555555555546,28.83333333333333,0)" xlink:href="#aB"/><use transform="matrix(0.055555555555555546,0,0,0.055555555555555546,39.944444444444436,0)" xlink:href="#aD"/><use transform="matrix(0.055555555555555546,0,0,0.055555555555555546,56.55555555555554,0)" xlink:href="#aF"/><use transform="matrix(0.055555555555555546,0,0,0.055555555555555546,67.66666666666666,0)" xlink:href="#aG"/><use transform="matrix(0.055555555555555546,0,0,0.055555555555555546,78.77777777777777,0)" xlink:href="#aH"/></g><g id="as"><use transform="matrix(0.055555555555555546,0,0,0.055555555555555546,0,0)" xlink:href="#ax"/><use transform="matrix(0.055555555555555546,0,0,0.055555555555555546,11.111111111111109,0)" xlink:href="#av"/><use transform="matrix(0.055555555555555546,0,0,0.055555555555555546,17.722222222222218,0)" xlink:href="#aF"/><use transform="matrix(0.055555555555555546,0,0,0.055555555555555546,28.83333333333333,0)" xlink:href="#aD"/><use transform="matrix(0.055555555555555546,0,0,0.055555555555555546,45.444444444444436,0)" xlink:href="#aI"/><use transform="matrix(0.055555555555555546,0,0,0.055555555555555546,49.83333333333332,0)" xlink:href="#aC"/><use transform="matrix(0.055555555555555546,0,0,0.055555555555555546,59.83333333333332,0)" xlink:href="#aF"/></g></defs></g></svg>