
<svg version="1.1" xmlns="http://www.w3.org/2000/svg" xmlns:xlink="http://www.w3.org/1999/xlink" x="0px" y="0px" viewBox="0 0 1000 1000" enable-background="new 0 0 1000 1000" xml:space="preserve" stroke="currentColor" fill="currentColor" >
<metadata> Svg Vector Icons : http://www.onlinewebfonts.com/icon </metadata>
<g><g transform="translate(0.000000,511.000000) scale(0.100000,-0.100000)"><path d="M5719.4,4272.3c-90-15.3-231.6-47.9-310.1-74.7c-160.8-53.6-442.2-189.5-461.3-222c-13.4-23,178-331.1,199.1-319.7c352.2,187.6,555.1,246.9,872.9,246.9c779.1,1.9,1391.6-467.1,1588.8-1219.3c17.2-63.2,36.4-208.6,42.1-325.4c40.2-788.6-411.5-1435.6-1154.2-1657.7c-90-26.8-212.5-44-375.2-49.8l-243.1-11.5l-9.6-78.5c-5.8-42.1-15.3-126.3-21.1-185.7L5836.2,266l111-13.4c248.8-28.7,631.7,53.6,934.1,201c580,283.3,995.4,811.6,1123.6,1433.7c49.8,241.2,40.2,624-19.1,855.6c-155.1,587.6-541.7,1066.2-1085.3,1338C6529.1,4266.6,6104.2,4335.5,5719.4,4272.3z"/><path d="M3652.1,3757.4c-788.6-139.7-1429.9-733.1-1646.2-1523.7c-38.3-141.6-44-204.8-42.1-488.1c0-271.8,7.7-350.3,42.1-474.7c134-484.3,442.2-916.9,849.9-1186.8c603-402,1315-455.6,1958.2-149.3c553.2,264.2,957.1,756.1,1112.1,1351.4c44,164.6,49.8,231.6,49.8,469c0,237.4-5.7,306.3-49.8,469c-57.4,225.9-216.3,557-354.1,738.9c-283.3,373.3-712.1,656.6-1158.1,765.7C4211.1,3778.5,3847.4,3791.9,3652.1,3757.4z M4381.4,3344c359.9-86.1,717.8-325.4,915-614.5c344.6-499.6,394.3-1198.3,124.4-1734.2c-157-310.1-390.5-541.7-702.5-694.8C4465.7,176,4345.1,147.3,4056,133.9c-373.3-17.2-656.6,47.9-941.8,214.4c-486.2,285.2-779.1,813.5-779.1,1406.9c0,738.9,453.7,1361,1142.8,1569.6C3753.6,3407.1,4082.8,3414.8,4381.4,3344z"/><path d="M7371.4,377c-36.4-95.7-61.2-174.2-57.4-178c3.8-3.8,78.5-36.4,164.6-74.7c444.1-195.2,907.3-557,1215.5-945.6c415.4-522.6,689.1-1183,788.6-1904.6l13.4-88.1l-407.7-78.5c-224-44-541.7-99.6-704.4-120.6c-162.7-23-298.6-42.1-300.5-44c-1.9-1.9,7.7-84.2,21.1-183.8l23-181.8l112.9,5.7c204.8,7.7,892,126.3,1311.2,225.9l201,47.9l72.7,105.3l74.7,105.3l-23,176.1C9756.4-1812.8,9369.8-974.4,8759.1-337c-233.5,243.1-417.3,398.1-671.9,566.6c-181.8,118.7-572.3,319.7-622.1,319.7C7444.1,549.3,7413.5,493.8,7371.4,377z"/><path  d="M2325.6-51.8c-396.2-189.5-650.8-369.4-983.9-691C646.9-1416.6,221.9-2308.6,105.2-3340.3c-11.5-103.4-7.7-114.9,51.7-201c34.5-49.8,68.9-97.6,74.6-105.3c30.6-45.9,1102.6-245,1653.8-310.1c1891.2-222,3993-128.2,5602.8,248.8L7693-3660l67,99.5c82.3,118.7,84.2,145.5,30.6,463.2c-139.7,853.7-509.2,1627-1071.9,2233.8c-323.5,352.2-802,685.3-1248,874.8l-90,38.3L5363.4-2c-11.5-28.7-42.1-109.1-68.9-179.9l-47.9-128.3l220.1-105.3c853.7-409.6,1460.5-1114.1,1780.2-2063.5c70.8-208.6,153.1-560.8,172.3-733.1l11.5-116.8l-350.3-70.8c-1975.4-396.2-4454.3-388.6-6335.9,21.1L507.1-3325l5.7,93.8c9.6,158.9,95.7,532.1,178,769.5C1016.3-1512.3,1623.1-815.5,2484.5-404c107.2,51.7,195.2,99.5,195.2,103.3c0,17.2-120.6,323.5-132.1,336.9C2541.9,43.9,2442.4,3.7,2325.6-51.8z"/></g></g>
</svg>